<?xml version="1.0" encoding="iso-8859-1"?>
<!-- Generator: Adobe Illustrator 19.0.0, SVG Export Plug-In . SVG Version: 6.00 Build 0)  -->
<svg version="1.1" id="Capa_1" xmlns="http://www.w3.org/2000/svg" xmlns:xlink="http://www.w3.org/1999/xlink" x="0px" y="0px"
	 viewBox="0 0 512 512" style="enable-background:new 0 0 512 512;" xml:space="preserve">
<linearGradient id="SVGID_1_" gradientUnits="userSpaceOnUse" x1="0.2024" y1="257.7392" x2="512.2024" y2="257.7392" gradientTransform="matrix(0.9993 0 0 -0.9993 -0.0325 513.5679)">
	<stop  offset="0" style="stop-color:#00F2FE"/>
	<stop  offset="0.021" style="stop-color:#03EFFE"/>
	<stop  offset="0.293" style="stop-color:#24D2FE"/>
	<stop  offset="0.554" style="stop-color:#3CBDFE"/>
	<stop  offset="0.796" style="stop-color:#4AB0FE"/>
	<stop  offset="1" style="stop-color:#4FACFE"/>
</linearGradient>
<path style="fill:url(#SVGID_1_);" d="M503.537,469.641c-34.856-18.113-76.475-18.114-111.329,0
	c-3.047,1.583-5.837,2.386-8.294,2.386s-5.247-0.803-8.293-2.386c-13.131-6.823-27.223-11.075-41.55-12.757
	c3.188-62.762-3.593-122.267-20.185-177.43c29.423-3.805,52.234-29.003,52.234-59.446c0-33.062-26.898-59.96-59.96-59.96
	c-10.112,0-19.642,2.526-28.008,6.966c-2.574-8.028-6.798-15.321-12.271-21.485c58.438-21.395,125.36-29.662,177.281,33.7
	c-3.686,0.318-7.397,0.558-11.129,0.716c-11.029,0.47-19.59,9.79-19.121,20.817c0.457,10.74,9.307,19.138,19.955,19.138
	c0.286,0,0.574-0.006,0.862-0.018c16.55-0.704,32.827-2.779,48.38-6.171c6.278-1.369,11.514-5.673,14.075-11.566
	c2.56-5.893,2.13-12.659-1.156-18.181c-19.552-32.863-43.61-57.49-71.505-73.198c-10.61-5.975-21.805-10.667-33.509-14.081
	c22.989-16.899,41.192-34.754,55.068-53.955c3.799-5.257,4.811-12.03,2.715-18.168c-2.098-6.138-7.041-10.877-13.262-12.711
	c-25.983-7.659-47.997-11.528-67.3-11.828c-45.676-0.711-85.329,14.639-114.614,44.388c-4.355,4.424-8.452,9.156-12.268,14.133
	c-4.052-9.17-10.094-18.418-19.07-26.424c-18.35-16.367-43.83-19.927-61.973-20.032c-0.266-0.001-0.528-0.002-0.79-0.002
	c-13.986,0-24.446,2.145-25.612,2.393c-5.538,1.182-10.315,4.657-13.144,9.563c-2.828,4.906-3.444,10.781-1.691,16.167
	c0.831,2.556,2.886,8.525,6.104,15.84c-20.019,0.123-40.554,4.474-61.02,13.065C44.451,76.967,25.876,88.13,7.947,102.293
	c-5.016,3.961-7.833,10.082-7.582,16.468c0.251,6.386,3.54,12.266,8.85,15.823c19.624,13.141,41.713,23.61,64.383,30.77
	c-14.94,11.883-27.161,26.44-36.441,43.491c-14.595,26.816-21.996,60.03-21.996,98.721c0,5.869,2.579,11.441,7.055,15.239
	c3.639,3.088,8.229,4.748,12.931,4.748c1.081,0,2.169-0.088,3.252-0.267c35.791-5.901,72.122-22.758,105.064-48.749
	c8.666-6.837,10.148-19.405,3.311-28.07c-6.836-8.666-19.405-10.148-28.07-3.311c-14.794,11.672-36.316,25.813-62.162,34.504
	c9.327-81.527,63.177-104.355,106.497-111.554c-1.27,4.85-1.951,9.935-1.951,15.178c0,33.062,26.898,59.96,59.96,59.96
	c0.197,0,0.392-0.013,0.589-0.015c5.208,66.12-1.63,141.89-18.919,206.331c-0.441,1.644-0.639,3.291-0.661,4.919
	c-22.4-1.86-45.206,2.521-65.679,13.161c-3.047,1.583-5.837,2.386-8.293,2.386c-2.456,0-5.247-0.803-8.292-2.386
	c-34.856-18.113-76.475-18.114-111.329,0c-3.047,1.583-5.837,2.386-8.293,2.386V512c8.936,0,17.927-2.317,26.725-6.889
	c23.312-12.116,51.15-12.116,74.466,0c17.593,9.142,35.854,9.142,53.45,0c23.312-12.116,51.15-12.116,74.466,0
	c17.593,9.142,35.854,9.142,53.449,0c23.312-12.116,51.15-12.116,74.466,0c17.593,9.142,35.854,9.142,53.449,0
	c23.312-12.116,51.15-12.116,74.466,0c8.797,4.571,17.788,6.889,26.724,6.889v-39.973
	C509.374,472.027,506.583,471.224,503.537,469.641z M306.16,200.022c11.021,0,19.987,8.966,19.987,19.987
	c0,11.021-8.966,19.987-19.987,19.987s-19.987-8.966-19.987-19.987C286.174,208.988,295.14,200.022,306.16,200.022z M364.162,39.974
	c0.809,0,1.636,0.006,2.453,0.02c7.804,0.121,16.324,1.012,25.696,2.698c-17.156,16.672-39.326,32.458-67.039,47.791
	c-0.08,0.044-0.151,0.098-0.23,0.143c-25.077,2.059-48.197,8.448-66.766,14.98C272.924,73.686,304.912,39.974,364.162,39.974z
	 M194.676,61.952c6.618,5.902,10.074,13.635,11.863,20.654c-7.937-5.68-16.401-10.577-25.2-14.52
	c-1.155-1.029-2.431-1.954-3.854-2.716c-2.929-1.569-6.695-6.555-10.38-12.938C179.145,53.504,188.955,56.85,194.676,61.952z
	 M78.629,105.973c54.011-22.676,94.838-2.811,118.395,20.716c-15.57,0.81-39.273,2.199-64.733,9.411
	c-0.333-0.037-0.661-0.091-0.998-0.111c-23.779-1.44-49.709-8.51-73.311-19.654C64.854,112.324,71.748,108.861,78.629,105.973z
	 M201.061,185.285c0-11.021,8.966-19.987,19.987-19.987c11.021,0,19.987,8.966,19.987,19.987s-8.966,19.987-19.987,19.987
	C210.027,205.271,201.061,196.306,201.061,185.285z M264.293,469.641c-3.047,1.583-5.837,2.386-8.293,2.386
	c-2.456,0-5.247-0.803-8.293-2.386c-2.607-1.354-5.256-2.595-7.933-3.748c0.641-1.245,1.173-2.566,1.551-3.974
	c16.76-62.468,24.295-134.985,21.332-200.712c1.383,1.46,2.838,2.849,4.36,4.164c21.863,58.775,30.928,123.748,26.94,193.221
	c-0.006,0.101,0.002,0.2-0.002,0.301C283.751,461.14,273.771,464.715,264.293,469.641z"/>
<g>
</g>
<g>
</g>
<g>
</g>
<g>
</g>
<g>
</g>
<g>
</g>
<g>
</g>
<g>
</g>
<g>
</g>
<g>
</g>
<g>
</g>
<g>
</g>
<g>
</g>
<g>
</g>
<g>
</g>
</svg>
