<?xml version="1.0" encoding="iso-8859-1"?>
<!-- Generator: Adobe Illustrator 19.0.0, SVG Export Plug-In . SVG Version: 6.00 Build 0)  -->
<svg version="1.1" id="Capa_1" xmlns="http://www.w3.org/2000/svg" xmlns:xlink="http://www.w3.org/1999/xlink" x="0px" y="0px"
	 viewBox="0 0 512 512" style="enable-background:new 0 0 512 512;" xml:space="preserve">
<linearGradient id="SVGID_1_" gradientUnits="userSpaceOnUse" x1="20.4943" y1="258" x2="491.5057" y2="258" gradientTransform="matrix(1 0 0 -1 0 514)">
	<stop  offset="0" style="stop-color:#00F2FE"/>
	<stop  offset="0.021" style="stop-color:#03EFFE"/>
	<stop  offset="0.293" style="stop-color:#24D2FE"/>
	<stop  offset="0.554" style="stop-color:#3CBDFE"/>
	<stop  offset="0.796" style="stop-color:#4AB0FE"/>
	<stop  offset="1" style="stop-color:#4FACFE"/>
</linearGradient>
<path style="fill:url(#SVGID_1_);" d="M490.82,307.828c2.856,10.67-3.478,21.636-14.147,24.491l-35.048,9.382l29.012,17.057
	c9.521,5.599,12.702,17.855,7.104,27.378c-3.727,6.338-10.404,9.866-17.26,9.866c-3.445,0-6.934-0.89-10.118-2.762l-29.172-17.152
	c3.699,14.116,7.387,28.186,9.656,36.839c2.801,10.685-3.59,21.616-14.275,24.418c-1.699,0.445-3.406,0.658-5.085,0.658
	c-8.873,0-16.977-5.948-19.333-14.934l-19.833-75.714l-48.957-28.784c-0.149-0.088-0.283-0.191-0.429-0.282
	c-0.327-0.204-0.649-0.412-0.963-0.634c-0.257-0.181-0.505-0.37-0.751-0.562c-0.253-0.198-0.504-0.398-0.747-0.608
	c-0.272-0.234-0.535-0.474-0.793-0.72c-0.2-0.192-0.397-0.386-0.589-0.587c-0.262-0.273-0.516-0.551-0.76-0.837
	c-0.176-0.204-0.346-0.412-0.513-0.624c-0.228-0.288-0.447-0.58-0.657-0.879c-0.17-0.24-0.332-0.485-0.491-0.733
	c-0.179-0.28-0.352-0.562-0.516-0.849c-0.167-0.29-0.323-0.585-0.476-0.885c-0.131-0.26-0.258-0.52-0.378-0.785
	c-0.153-0.336-0.294-0.677-0.429-1.022c-0.096-0.248-0.188-0.497-0.274-0.749c-0.123-0.358-0.235-0.72-0.338-1.087
	c-0.074-0.265-0.142-0.531-0.205-0.798c-0.082-0.348-0.157-0.699-0.22-1.054c-0.057-0.315-0.103-0.631-0.145-0.949
	c-0.04-0.309-0.078-0.619-0.104-0.933c-0.032-0.384-0.048-0.768-0.058-1.154c-0.004-0.171-0.026-0.338-0.026-0.511v-77.764
	c-0.312-0.44-0.613-0.891-0.893-1.362c-0.108-0.183-0.192-0.373-0.294-0.557l-55.814-31.631l-57,32.306v67.357l66.524,37.705
	c0.01,0.005,0.019,0.01,0.028,0.016l0.309,0.175c0.157,0.089,0.298,0.194,0.452,0.287c0.368,0.222,0.733,0.445,1.085,0.689
	c0.253,0.175,0.492,0.364,0.734,0.549c0.264,0.202,0.529,0.401,0.782,0.616c0.28,0.236,0.543,0.485,0.807,0.734
	c0.2,0.189,0.401,0.375,0.592,0.571c0.269,0.275,0.522,0.561,0.772,0.85c0.173,0.199,0.347,0.396,0.512,0.602
	c0.231,0.288,0.447,0.584,0.66,0.883c0.168,0.235,0.335,0.469,0.493,0.711c0.18,0.277,0.348,0.56,0.513,0.844
	c0.167,0.286,0.331,0.573,0.484,0.867c0.132,0.255,0.252,0.514,0.373,0.774c0.156,0.335,0.308,0.672,0.446,1.017
	c0.096,0.242,0.181,0.487,0.268,0.732c0.129,0.364,0.254,0.729,0.362,1.102c0.075,0.259,0.136,0.521,0.201,0.783
	c0.088,0.357,0.175,0.714,0.244,1.079c0.061,0.319,0.102,0.641,0.147,0.963c0.043,0.31,0.09,0.617,0.118,0.931
	c0.038,0.416,0.051,0.833,0.063,1.251c0.005,0.188,0.028,0.372,0.028,0.561v0.375c0,0.001,0,0.002,0,0.003v57.211l24.171,24.231
	l29.994,30.087c7.798,7.822,7.777,20.485-0.046,28.284c-3.902,3.89-9.012,5.835-14.119,5.835c-5.13,0-10.257-1.96-14.165-5.881
	c-6.09-6.11-15.901-15.951-25.835-25.915V492c0,11.046-8.954,20-20,20c-11.046,0-20-8.954-20-20v-33.347l-26.956,26.586
	c-3.896,3.843-8.972,5.761-14.043,5.761c-5.165,0-10.327-1.987-14.24-5.956c-7.757-7.864-7.669-20.527,0.195-28.283l55.044-54.289
	v-45.845l-56.891-32.244l-38.997,23.14l-19.782,74.607c-2.377,8.957-10.469,14.875-19.318,14.875c-1.698,0-3.423-0.218-5.143-0.674
	c-10.676-2.833-17.034-13.784-14.201-24.461c2.204-8.306,5.749-21.666,9.342-35.211L63.636,393.2
	c-3.201,1.899-6.717,2.803-10.188,2.803c-6.828,0-13.481-3.498-17.219-9.797c-5.637-9.499-2.505-21.77,6.994-27.406l28.435-16.873
	l-36.271-9.592c-10.679-2.824-17.046-13.77-14.222-24.448c2.823-10.678,13.763-17.047,24.448-14.222l74.274,19.643l39.612-23.505
	v-68.37l-38.951-23.008l-75.155,18.967c-1.643,0.415-3.29,0.613-4.909,0.613c-8.944,0-17.089-6.043-19.377-15.11
	c-2.703-10.71,3.788-21.584,14.497-24.286l36.011-9.088l-29.288-17.3c-9.511-5.617-12.666-17.881-7.048-27.392
	c5.617-9.511,17.882-12.668,27.392-7.048l28.852,17.043c-3.603-13.748-7.16-27.321-9.371-35.752
	c-2.801-10.685,3.59-21.616,14.275-24.418c10.682-2.799,21.615,3.59,24.418,14.275l19.59,74.786l39.833,23.529l56.231-31.87v-45.84
	l-55.048-54.297c-7.862-7.759-7.946-20.422-0.188-28.284c7.759-7.861,20.421-7.947,28.284-0.188
	c6.332,6.249,16.62,16.399,26.952,26.593V20c0-11.046,8.954-20,20-20c11.046,0,20,8.954,20,20v33.347l26.956-26.586
	c7.862-7.757,20.527-7.671,28.283,0.195c7.757,7.864,7.669,20.527-0.195,28.283l-55.042,54.289v45.845l56.029,31.756l40.047-23.763
	l18.536-73.274c2.711-10.708,13.59-17.19,24.297-14.48c10.708,2.711,17.191,13.59,14.48,24.297
	c-2.074,8.192-5.392,21.3-8.771,34.654l28.248-16.762c9.498-5.636,21.769-2.505,27.406,6.994s2.505,21.77-6.994,27.406
	l-29.771,17.666l36.665,9.815c10.67,2.855,17.004,13.821,14.147,24.491c-2.392,8.937-10.475,14.833-19.307,14.833
	c-1.713,0-3.451-0.222-5.185-0.686L391.92,198.4l-38.419,22.798v68.692l39.73,23.359l73.098-19.568
	C476.997,290.82,487.964,297.158,490.82,307.828z M119.501,256c0-11.046-8.954-20-20-20s-20,8.954-20,20c0,11.046,8.954,20,20,20
	S119.501,267.046,119.501,256z M391.501,256c0,11.046,8.954,20,20,20s20-8.954,20-20s-8.954-20-20-20S391.501,244.954,391.501,256z
	 M196.025,401.597c5.444-9.611,2.065-21.815-7.546-27.259c-9.611-5.444-21.815-2.065-27.259,7.546
	c-5.443,9.611-2.065,21.815,7.546,27.259C178.377,414.587,190.581,411.208,196.025,401.597z M314.977,110.403
	c-5.444,9.611-2.065,21.815,7.546,27.259c9.611,5.443,21.815,2.065,27.259-7.546c5.443-9.611,2.065-21.815-7.546-27.259
	C332.625,97.413,320.421,100.792,314.977,110.403z M322.524,374.338c-9.611,5.443-12.99,17.648-7.546,27.259
	c5.443,9.611,17.648,12.99,27.259,7.547c9.611-5.444,12.99-17.648,7.546-27.259C344.339,372.273,332.135,368.895,322.524,374.338z
	 M188.478,137.662c9.611-5.443,12.99-17.648,7.546-27.259c-5.443-9.611-17.648-12.99-27.259-7.547
	c-9.611,5.444-12.99,17.648-7.546,27.259C166.663,139.727,178.867,143.105,188.478,137.662z"/>
<g>
</g>
<g>
</g>
<g>
</g>
<g>
</g>
<g>
</g>
<g>
</g>
<g>
</g>
<g>
</g>
<g>
</g>
<g>
</g>
<g>
</g>
<g>
</g>
<g>
</g>
<g>
</g>
<g>
</g>
</svg>
