<?xml version="1.0" encoding="iso-8859-1"?>
<!-- Generator: Adobe Illustrator 19.0.0, SVG Export Plug-In . SVG Version: 6.00 Build 0)  -->
<svg version="1.1" id="Capa_1" xmlns="http://www.w3.org/2000/svg" xmlns:xlink="http://www.w3.org/1999/xlink" x="0px" y="0px"
	 viewBox="0 0 512.001 512.001" style="enable-background:new 0 0 512.001 512.001;" xml:space="preserve">
<linearGradient id="SVGID_1_" gradientUnits="userSpaceOnUse" x1="4.882813e-004" y1="257.9995" x2="512.0005" y2="257.9995" gradientTransform="matrix(1 0 0 -1 0 514)">
	<stop  offset="0" style="stop-color:#00F2FE"/>
	<stop  offset="0.021" style="stop-color:#03EFFE"/>
	<stop  offset="0.293" style="stop-color:#24D2FE"/>
	<stop  offset="0.554" style="stop-color:#3CBDFE"/>
	<stop  offset="0.796" style="stop-color:#4AB0FE"/>
	<stop  offset="1" style="stop-color:#4FACFE"/>
</linearGradient>
<path style="fill:url(#SVGID_1_);" d="M267.512,512c-10.208,0-18.785-7.691-19.883-17.852l-48.528-449.12
	c-7.441,4.706-12.88,12.376-14.589,21.562l-33.988,258.022c-1.305,9.903-9.716,17.326-19.706,17.388c-0.042,0-0.083,0-0.125,0
	c-9.936,0-18.373-7.298-19.793-17.145L76.16,84.064C70.935,58.504,48.305,40,22.175,40H20C8.954,40,0,31.046,0,20S8.954,0,20,0
	h2.175c45.364,0,84.615,32.313,93.331,76.831c0.064,0.328,0.12,0.656,0.167,0.987l14.122,97.878L144.916,60.9
	c0.037-0.276,0.079-0.553,0.127-0.828C151.121,25.264,181.179,0,216.513,0c10.214,0,18.787,7.696,19.884,17.852l30.117,278.729
	l8.357-85.526c1.075-10.994,10.857-19.035,21.851-17.96c10.993,1.074,19.034,10.857,17.96,21.851l-27.264,279
	c-0.998,10.204-9.55,18.002-19.803,18.055C267.581,512,267.546,512,267.512,512z M413.329,255.277l29.387-176.919
	C447.484,51.113,460.029,40,486,40h6c11.046,0,20-8.954,20-20s-8.954-20-20-20h-6c-45.288,0-74.659,25.416-82.703,71.565
	c-0.009,0.053-0.018,0.104-0.026,0.157l-8.751,52.686l-16.252-107.4C376.787,7.229,368.382,0,358.492,0
	c-35.353,0-65.044,26.486-69.064,61.61c-0.013,0.112-0.025,0.224-0.036,0.336l-5.854,60.115
	c-1.071,10.994,6.974,20.773,17.967,21.845c10.993,1.059,20.773-6.974,21.844-17.968l5.835-59.925
	c1.055-8.83,5.933-16.362,12.863-21.015l31.777,209.993c1.472,9.725,9.795,16.937,19.631,17.007
	c0.049,0.001,0.097,0.001,0.146,0.001C403.374,271.999,411.727,264.931,413.329,255.277z"/>
<g>
</g>
<g>
</g>
<g>
</g>
<g>
</g>
<g>
</g>
<g>
</g>
<g>
</g>
<g>
</g>
<g>
</g>
<g>
</g>
<g>
</g>
<g>
</g>
<g>
</g>
<g>
</g>
<g>
</g>
</svg>
