<?xml version="1.0" encoding="iso-8859-1"?>
<!-- Generator: Adobe Illustrator 19.0.0, SVG Export Plug-In . SVG Version: 6.00 Build 0)  -->
<svg version="1.1" id="Capa_1" xmlns="http://www.w3.org/2000/svg" xmlns:xlink="http://www.w3.org/1999/xlink" x="0px" y="0px"
	 viewBox="0 0 512 512" style="enable-background:new 0 0 512 512;" xml:space="preserve">
<linearGradient id="SVGID_1_" gradientUnits="userSpaceOnUse" x1="58" y1="258" x2="454" y2="258" gradientTransform="matrix(1 0 0 -1 0 514)">
	<stop  offset="0" style="stop-color:#00F2FE"/>
	<stop  offset="0.021" style="stop-color:#03EFFE"/>
	<stop  offset="0.293" style="stop-color:#24D2FE"/>
	<stop  offset="0.554" style="stop-color:#3CBDFE"/>
	<stop  offset="0.796" style="stop-color:#4AB0FE"/>
	<stop  offset="1" style="stop-color:#4FACFE"/>
</linearGradient>
<path style="fill:url(#SVGID_1_);" d="M361.094,117.063C316.479,56.592,272.6,8.514,270.753,6.497C266.965,2.357,261.611,0,256,0
	s-10.965,2.357-14.753,6.497c-1.846,2.017-45.726,50.095-90.341,110.566C89.258,200.624,58,264.884,58,308.059v5.467
	C58,422.965,146.822,512,256,512c33.919,0,67.396-8.75,96.81-25.306c9.626-5.417,13.037-17.612,7.62-27.238
	c-5.417-9.625-17.61-13.039-27.239-7.619C309.753,465.027,283.062,472,256,472c-77.252,0-141.724-55.9-155.342-129.487
	c9.286,4.979,18.731,7.487,28.28,7.487c20.464,0,40.453-11.508,59.412-34.205c0.938-1.124,2.654-1.795,4.588-1.795
	s3.65,0.671,4.589,1.795C216.486,338.492,236.475,350,256.938,350s40.453-11.508,59.412-34.205c0.938-1.124,2.654-1.795,4.588-1.795
	s3.65,0.671,4.589,1.795C344.486,338.492,364.475,350,384.938,350c8.852,0,17.615-2.158,26.244-6.438
	c-2.854,14.993-7.865,29.447-15.027,43.202c-5.101,9.798-1.293,21.875,8.504,26.976c9.795,5.103,21.875,1.293,26.976-8.503
	C446.266,377.134,454,345.421,454,313.525v-5.467C454,264.884,422.742,200.624,361.094,117.063z M384.938,310
	c-7.711,0-18.176-7.234-28.711-19.848C347.653,279.888,334.791,274,320.938,274s-26.714,5.888-35.288,16.152
	C275.114,302.766,264.649,310,256.938,310s-18.176-7.234-28.711-19.848C219.653,279.888,206.791,274,192.938,274
	s-26.714,5.888-35.288,16.152C147.114,302.766,136.649,310,128.938,310c-7.701,0-18.148-7.217-28.67-19.799
	c7.941-34.801,36.58-86.67,82.626-149.119c28.099-38.109,56.482-71.792,73.107-90.919c16.574,19.065,44.839,52.607,72.904,90.647
	c46.95,63.639,75.833,116.292,83.2,151.142C402.098,303.445,392.272,310,384.938,310z"/>
<g>
</g>
<g>
</g>
<g>
</g>
<g>
</g>
<g>
</g>
<g>
</g>
<g>
</g>
<g>
</g>
<g>
</g>
<g>
</g>
<g>
</g>
<g>
</g>
<g>
</g>
<g>
</g>
<g>
</g>
</svg>
