<?xml version="1.0" encoding="iso-8859-1"?>
<!-- Generator: Adobe Illustrator 19.0.0, SVG Export Plug-In . SVG Version: 6.00 Build 0)  -->
<svg version="1.1" id="Capa_1" xmlns="http://www.w3.org/2000/svg" xmlns:xlink="http://www.w3.org/1999/xlink" x="0px" y="0px"
	 viewBox="0 0 512 512" style="enable-background:new 0 0 512 512;" xml:space="preserve">
<linearGradient id="SVGID_1_" gradientUnits="userSpaceOnUse" x1="0.0016" y1="257.9974" x2="512.0018" y2="257.9974" gradientTransform="matrix(1 0 0 -1 -2.862216e-004 513.9958)">
	<stop  offset="0" style="stop-color:#00F2FE"/>
	<stop  offset="0.021" style="stop-color:#03EFFE"/>
	<stop  offset="0.293" style="stop-color:#24D2FE"/>
	<stop  offset="0.554" style="stop-color:#3CBDFE"/>
	<stop  offset="0.796" style="stop-color:#4AB0FE"/>
	<stop  offset="1" style="stop-color:#4FACFE"/>
</linearGradient>
<path style="fill:url(#SVGID_1_);" d="M227.777,383.259c-1.922-4.154-5.21-7.524-9.317-9.546
	c-2.545-1.252-63.168-30.323-134.76,2.189c-11.399,5.176-21.264,11.117-29.799,17.468c7.421-23.764,18.031-47.408,31.79-70.803
	c2.375,0.288,4.774,0.437,7.186,0.437c3.218,0,6.459-0.259,9.698-0.782c15.822-2.556,29.701-11.121,39.08-24.116
	c1.511-2.093,3.166-4.778,4.924-8.642c1.781,3.856,3.453,6.532,4.977,8.617c9.456,12.939,23.385,21.422,39.222,23.885
	c3.124,0.486,6.246,0.727,9.348,0.727c12.625,0,24.888-3.98,35.275-11.571c26.711-19.521,32.562-57.134,13.041-83.845
	c-1.857-2.542-4.481-5.558-8.921-9.312c5.177-0.696,8.726-1.707,11.486-2.739c0,0,0,0,0.001-0.001
	c30.988-11.588,46.771-46.227,35.183-77.214c-11.587-30.989-46.227-46.768-77.215-35.185c-0.978,0.366-2.03,0.8-3.172,1.333
	c0.145-1.541,0.2-2.91,0.2-4.145c0-33.084-26.916-60-60-60s-60,26.916-60,60c0,1.913,0.124,4.133,0.528,6.848
	c-2.328-1.191-4.31-1.995-6.058-2.594c0,0,0,0-0.001,0c-31.298-10.73-65.487,6.003-76.216,37.298
	c-5.198,15.16-4.181,31.438,2.864,45.833c7.045,14.396,19.274,25.186,34.434,30.383c2.492,0.854,5.611,1.675,9.954,2.235
	c-3.405,3.093-5.562,5.654-7.153,7.859c-9.38,12.995-13.138,28.865-10.581,44.687c1.982,12.265,7.588,23.351,16.055,32.09
	C18.197,359.219,1.803,415.396,1.041,471.862c-0.54,2.385-0.775,3.884-0.829,4.252c-1.157,7.92,2.52,15.767,9.345,19.946
	C11.102,497.006,36.23,512,74.415,512c18.95,0,41.122-3.696,65.21-14.636c71.689-32.555,89.041-97.18,89.745-99.915
	c1.149-4.467,0.719-9.194-1.218-13.38L227.777,383.259z M109.221,274.695c-3.126,4.332-7.752,7.187-13.026,8.039
	c-5.275,0.854-10.563-0.4-14.896-3.527c-4.332-3.127-7.187-7.753-8.039-13.026c-0.852-5.27,0.398-10.556,3.52-14.886
	c3.828-5.059,22.069-16.155,44.628-27.652C117.603,248.673,112.815,269.48,109.221,274.695z M211.798,278.825
	c-4.313,3.151-9.598,4.436-14.874,3.615c-5.274-0.82-9.914-3.644-13.066-7.951c-3.626-5.202-8.536-25.98-12.491-50.987
	c22.631,11.365,40.937,22.353,44.778,27.375C222.653,259.78,220.702,272.318,211.798,278.825z M222.984,140.293
	c10.327-3.864,21.876,1.398,25.739,11.729c3.861,10.324-1.395,21.865-11.715,25.733c-5.988,2.087-27.32,1.207-52.466-1.734
	C201.592,157.297,217.112,142.636,222.984,140.293z M146.001,80.015c11.024,0,19.994,8.965,20,19.987
	c-0.144,6.342-8.44,26.017-20.003,48.54c-11.563-22.521-19.859-42.195-19.997-48.527C126.001,88.986,134.973,80.015,146.001,80.015z
	 M43.048,169.817c-2.348-4.799-2.687-10.225-0.955-15.278c2.843-8.291,10.625-13.515,18.937-13.515c2.143,0,4.32,0.347,6.458,1.078
	c5.952,2.192,21.87,16.419,39.425,34.66c-25.063,3.633-46.362,5.102-52.387,3.182C49.473,178.212,45.396,174.615,43.048,169.817z
	 M123.085,460.944c-34.397,15.621-62.768,11.625-78.752,6.712c1.32-3.129,2.996-6.627,5.11-10.342
	c11.166-19.619,28.255-34.757,50.796-44.993c34.506-15.669,65.354-12.721,83.556-8.345
	C175.267,420.4,157.424,445.351,123.085,460.944z M510.576,25.615l-0.283-0.709c-1.693-4.244-4.788-7.781-8.771-10.022
	c-2.164-1.217-53.736-29.536-117.624-4.746c-65.238,25.314-77.024,79.553-77.494,81.849c-1.56,7.625,1.445,15.463,7.703,20.09
	c1.424,1.053,26.554,19.187,65.333,19.187c14.482,0,30.87-2.53,48.635-9.423c64.022-24.843,82.249-80.432,82.992-82.785
	C512.46,34.652,512.286,29.904,510.576,25.615z M413.606,84.548c-27.168,10.543-49.14,6.657-62.326,1.896
	c6.604-11.84,20.204-28.583,47.089-39.016c27.15-10.534,50.998-8.021,66.224-4.06C456.192,56.417,440.55,74.093,413.606,84.548z
	 M484.001,184.618l-0.608-0.489c-3.477-2.798-7.79-4.353-12.252-4.417c-2.525-0.025-62.107-0.279-105.639,52.379
	c-38.175,46.175-31.865,90.503-28.91,103.381c-16.521,26.178-40.221,50.306-68.205,70.756c-0.093,0.395-0.177,0.791-0.279,1.186
	c-1.035,4.024-7.032,25.38-23.468,50.632c-3.502,5.381-7.27,10.559-11.241,15.565c5.81-2.849,11.571-5.839,17.266-8.983
	c51.228-28.277,93.164-66.035,119.395-107.233c17.979-0.956,56.695-8.065,90.07-48.436c43.655-52.807,31.395-110.672,30.852-113.109
	C489.996,191.422,487.534,187.462,484.001,184.618z M429.302,283.472c-20.343,24.606-42.437,31.545-55.044,33.425
	c-0.604-12.504,1.946-34.976,22.072-59.32c18.704-22.625,41.302-31.734,56.655-35.4
	C452.376,237.663,447.821,261.071,429.302,283.472z"/>
<g>
</g>
<g>
</g>
<g>
</g>
<g>
</g>
<g>
</g>
<g>
</g>
<g>
</g>
<g>
</g>
<g>
</g>
<g>
</g>
<g>
</g>
<g>
</g>
<g>
</g>
<g>
</g>
<g>
</g>
</svg>
