<?xml version="1.0" encoding="iso-8859-1"?>
<!-- Generator: Adobe Illustrator 19.0.0, SVG Export Plug-In . SVG Version: 6.00 Build 0)  -->
<svg version="1.1" id="Capa_1" xmlns="http://www.w3.org/2000/svg" xmlns:xlink="http://www.w3.org/1999/xlink" x="0px" y="0px"
	 viewBox="0 0 512 512" style="enable-background:new 0 0 512 512;" xml:space="preserve">
<linearGradient id="SVGID_1_" gradientUnits="userSpaceOnUse" x1="9.635161e-004" y1="257.9961" x2="512.005" y2="257.9961" gradientTransform="matrix(1 0 0 -1 -4.789794e-004 513.9936)">
	<stop  offset="0" style="stop-color:#00F2FE"/>
	<stop  offset="0.021" style="stop-color:#03EFFE"/>
	<stop  offset="0.293" style="stop-color:#24D2FE"/>
	<stop  offset="0.554" style="stop-color:#3CBDFE"/>
	<stop  offset="0.796" style="stop-color:#4AB0FE"/>
	<stop  offset="1" style="stop-color:#4FACFE"/>
</linearGradient>
<path style="fill:url(#SVGID_1_);" d="M434.746,104.56l20.402-20.427c7.806-7.815,7.798-20.479-0.018-28.285
	c-7.815-7.804-20.478-7.798-28.284,0.018l-20.451,20.476C380.878,53.77,352.287,35.8,321.142,22.829
	C284.768,7.681,246.617,0,207.749,0C131.655,0,59.946,29.933,5.828,84.283c-4.711,4.731-6.751,11.503-5.436,18.049
	c1.315,6.547,5.81,12.006,11.983,14.552c0.329,0.136,33.302,13.951,64.888,45.675c17.195,17.269,35.216,52.792,43.096,70.197
	c0.632,4.052,2.49,7.949,5.616,11.067c2.444,2.437,5.36,4.11,8.453,5.021c0.146,0.051,0.284,0.117,0.431,0.165
	c0.36,0.116,31.432,10.324,62.977,36.148L73.575,409.569c-23.394,23.395-23.394,61.458,0,84.853
	c11.697,11.696,27.062,17.545,42.426,17.545s30.729-5.849,42.426-17.545c7.811-7.811,7.811-20.475,0-28.285
	c-7.811-7.809-20.474-7.809-28.284,0c-7.798,7.799-20.486,7.799-28.284,0c-7.798-7.798-7.798-20.485,0.009-28.292l124.256-124.409
	c20.511,25.1,31.284,50.264,34.944,59.858c0.523,4.289,2.416,8.443,5.713,11.731c0.766,0.764,1.589,1.43,2.439,2.044
	c1.448,1.144,3.06,2.095,4.803,2.811c13.918,5.713,54.208,24.729,73.254,43.856c31.24,31.376,45.952,65.438,46.199,66.018
	C396.692,507.4,404.107,512,411.915,512c0.294,0,0.59-0.03,0.885-0.043c0.267,0.011,0.534,0.038,0.801,0.038
	c5.103,0,10.208-1.941,14.111-5.827c14.722-14.658,28.598-32.346,41.243-52.569c5.855-9.366,3.01-21.706-6.356-27.562
	c-9.365-5.854-21.706-3.009-27.561,6.356c-5.851,9.359-11.967,18.048-18.294,26.018c-8.955-14.842-22.492-34.184-41.124-52.896
	c-16.54-16.611-42.081-31.296-61.127-40.913c77.069-84.671,101.921-161.123,109.34-209.597
	c40.526,57.254,56.771,127.472,43.774,195.224c-2.081,10.848,5.026,21.328,15.874,23.409c1.273,0.244,2.54,0.362,3.79,0.362
	c9.401,0,17.783-6.661,19.62-16.236C524.114,267.99,497.225,174.684,434.746,104.56z M241.444,270.758
	c-22.673-22.771-47.273-38.033-65.677-47.447c61.431-55.432,116.728-79.691,153.837-90.288c24.573-7.018,44.284-9.04,57.092-9.438
	c-0.97,33.652-13.302,115.432-99.152,211.156C278.186,316.516,263.346,292.754,241.444,270.758z M54.555,94.139
	C98.039,59.053,151.514,40,207.749,40c52.662,0,103.429,16.267,146.927,46.481c-48.296,7.552-124.047,32.516-207.913,109.112
	c-9.98-19.357-24.886-44.918-41.155-61.256C87.544,116.192,69.021,102.994,54.555,94.139z"/>
<g>
</g>
<g>
</g>
<g>
</g>
<g>
</g>
<g>
</g>
<g>
</g>
<g>
</g>
<g>
</g>
<g>
</g>
<g>
</g>
<g>
</g>
<g>
</g>
<g>
</g>
<g>
</g>
<g>
</g>
</svg>
