<?xml version="1.0" encoding="iso-8859-1"?>
<!-- Generator: Adobe Illustrator 19.0.0, SVG Export Plug-In . SVG Version: 6.00 Build 0)  -->
<svg version="1.1" id="Capa_1" xmlns="http://www.w3.org/2000/svg" xmlns:xlink="http://www.w3.org/1999/xlink" x="0px" y="0px"
	 viewBox="0 0 512 512" style="enable-background:new 0 0 512 512;" xml:space="preserve">
<linearGradient id="SVGID_1_" gradientUnits="userSpaceOnUse" x1="-0.0028" y1="258.0226" x2="511.9683" y2="258.0226" gradientTransform="matrix(1.0001 0 0 -1.0001 0.0028 514.0372)">
	<stop  offset="0" style="stop-color:#00F2FE"/>
	<stop  offset="0.021" style="stop-color:#03EFFE"/>
	<stop  offset="0.293" style="stop-color:#24D2FE"/>
	<stop  offset="0.554" style="stop-color:#3CBDFE"/>
	<stop  offset="0.796" style="stop-color:#4AB0FE"/>
	<stop  offset="1" style="stop-color:#4FACFE"/>
</linearGradient>
<path style="fill:url(#SVGID_1_);" d="M506.181,426.342l-75.432-169.098l75.402-171.683c10.845-23.17,6.169-49.782-11.953-67.879
	C476.001-0.488,449.24-5.088,426.016,5.959c-0.13,0.062-0.26,0.125-0.389,0.19L32.832,203.611
	C12.53,213.922-0.051,234.472,0,257.244s12.724,43.265,33.148,53.524l392.668,195.138c0.107,0.053,0.215,0.106,0.323,0.157
	c8.386,3.981,17.23,5.923,25.966,5.922c15.464,0,30.587-6.084,42.203-17.706C512.428,476.154,517.073,449.514,506.181,426.342z
	 M466.019,466c-2.331,2.332-10.83,9.487-22.584,3.993L55.087,277.001h253.8c11.047,0,20.001-8.954,20.001-20.001
	c0-11.047-8.954-20.001-20.001-20.001H55.478L443.374,42.001c11.735-5.478,20.227,1.66,22.558,3.987
	c2.342,2.339,9.549,10.891,3.939,22.721c-0.083,0.174-0.163,0.35-0.24,0.526l-79.068,180.03c-2.268,5.162-2.25,11.043,0.047,16.191
	l79.128,177.381c0.064,0.146,0.132,0.292,0.2,0.436C475.558,455.1,468.359,463.657,466.019,466z"/>
<g>
</g>
<g>
</g>
<g>
</g>
<g>
</g>
<g>
</g>
<g>
</g>
<g>
</g>
<g>
</g>
<g>
</g>
<g>
</g>
<g>
</g>
<g>
</g>
<g>
</g>
<g>
</g>
<g>
</g>
</svg>
