<?xml version="1.0" encoding="iso-8859-1"?>
<!-- Generator: Adobe Illustrator 19.0.0, SVG Export Plug-In . SVG Version: 6.00 Build 0)  -->
<svg version="1.1" id="Capa_1" xmlns="http://www.w3.org/2000/svg" xmlns:xlink="http://www.w3.org/1999/xlink" x="0px" y="0px"
	 viewBox="0 0 512 512" style="enable-background:new 0 0 512 512;" xml:space="preserve">
<linearGradient id="SVGID_1_" gradientUnits="userSpaceOnUse" x1="-0.003" y1="258.0239" x2="511.966" y2="258.0239" gradientTransform="matrix(1.0001 0 0 -1.0001 0.003 514.0396)">
	<stop  offset="0" style="stop-color:#00F2FE"/>
	<stop  offset="0.021" style="stop-color:#03EFFE"/>
	<stop  offset="0.293" style="stop-color:#24D2FE"/>
	<stop  offset="0.554" style="stop-color:#3CBDFE"/>
	<stop  offset="0.796" style="stop-color:#4AB0FE"/>
	<stop  offset="1" style="stop-color:#4FACFE"/>
</linearGradient>
<path style="fill:url(#SVGID_1_);" d="M473.564,266.783l-164.532-62.829L244.255,38.223c-8.452-23.233-29.867-38.22-54.658-38.22
	c-0.014,0-0.03,0-0.044,0c-24.915,0.018-46.409,15.168-54.755,38.597c-0.049,0.137-0.096,0.273-0.142,0.411L2.908,435.905
	c-6.841,20.899-1.411,43.537,14.171,59.078c11.118,11.088,25.831,17.014,40.978,17.014c6.16,0,12.396-0.981,18.487-2.993
	l396.454-132.819c0.113-0.038,0.226-0.077,0.339-0.117c23.49-8.34,38.666-29.81,38.662-54.692
	C511.996,296.578,496.917,275.179,473.564,266.783z M460.095,338.319L71.792,468.408l167.33-167.241
	c7.813-7.809,7.815-20.473,0.007-28.286c-7.808-7.813-20.472-7.816-28.286-0.008L43.733,439.896L172.541,51.852
	c4.013-10.981,14.047-11.844,17.039-11.846c0.004,0,0.007,0,0.011,0c3.021,0,13.127,0.87,17.107,11.996
	c0.065,0.182,0.133,0.362,0.203,0.542l68.094,174.22c2.053,5.251,6.227,9.393,11.494,11.404l173.007,66.065
	c0.149,0.057,0.299,0.112,0.449,0.166c11.181,3.965,12.051,14.003,12.052,16.985C471.998,324.352,471.139,334.316,460.095,338.319z"
	/>
<g>
</g>
<g>
</g>
<g>
</g>
<g>
</g>
<g>
</g>
<g>
</g>
<g>
</g>
<g>
</g>
<g>
</g>
<g>
</g>
<g>
</g>
<g>
</g>
<g>
</g>
<g>
</g>
<g>
</g>
</svg>
