<?xml version="1.0" encoding="iso-8859-1"?>
<!-- Generator: Adobe Illustrator 19.0.0, SVG Export Plug-In . SVG Version: 6.00 Build 0)  -->
<svg version="1.1" id="Capa_1" xmlns="http://www.w3.org/2000/svg" xmlns:xlink="http://www.w3.org/1999/xlink" x="0px" y="0px"
	 viewBox="0 0 512 512" style="enable-background:new 0 0 512 512;" xml:space="preserve">
<linearGradient id="SVGID_1_" gradientUnits="userSpaceOnUse" x1="0.0118" y1="258.0218" x2="511.9549" y2="258.0218" gradientTransform="matrix(1.0001 0 0 -1.0001 0.0027 514.0359)">
	<stop  offset="0" style="stop-color:#00F2FE"/>
	<stop  offset="0.021" style="stop-color:#03EFFE"/>
	<stop  offset="0.293" style="stop-color:#24D2FE"/>
	<stop  offset="0.554" style="stop-color:#3CBDFE"/>
	<stop  offset="0.796" style="stop-color:#4AB0FE"/>
	<stop  offset="1" style="stop-color:#4FACFE"/>
</linearGradient>
<path style="fill:url(#SVGID_1_);" d="M494.279,17.691C476.154-0.427,449.514-5.074,426.344,5.819L257.245,81.254L85.561,5.849
	C62.389-4.995,35.78-0.318,17.683,17.804C-0.488,36-5.089,62.764,5.96,85.985c0.062,0.13,0.125,0.26,0.19,0.39l197.461,392.792
	C213.902,499.429,234.39,512,257.106,512c0.046,0,0.092,0,0.138,0c22.771-0.051,43.265-12.724,53.524-33.148L505.907,86.186
	c0.054-0.107,0.105-0.215,0.157-0.324C517.092,62.631,512.466,35.872,494.279,17.691z M469.992,68.567L277.001,456.914v-253.8
	c0-11.046-8.954-20.001-20.001-20.001s-20.001,8.956-20.001,20.001v253.407L42.003,68.631c-5.479-11.737,1.658-20.23,3.986-22.561
	c2.339-2.342,10.891-9.55,22.72-3.939c0.175,0.083,0.35,0.163,0.525,0.24l180.031,79.069c5.162,2.268,11.043,2.25,16.191-0.046
	l177.381-79.129c0.146-0.065,0.292-0.132,0.437-0.201c11.826-5.621,20.382,1.579,22.724,3.919
	C468.329,48.314,475.485,56.811,469.992,68.567z"/>
<g>
</g>
<g>
</g>
<g>
</g>
<g>
</g>
<g>
</g>
<g>
</g>
<g>
</g>
<g>
</g>
<g>
</g>
<g>
</g>
<g>
</g>
<g>
</g>
<g>
</g>
<g>
</g>
<g>
</g>
</svg>
