<?xml version="1.0" encoding="iso-8859-1"?>
<!-- Generator: Adobe Illustrator 19.0.0, SVG Export Plug-In . SVG Version: 6.00 Build 0)  -->
<svg version="1.1" id="Capa_1" xmlns="http://www.w3.org/2000/svg" xmlns:xlink="http://www.w3.org/1999/xlink" x="0px" y="0px"
	 viewBox="0 0 511.999 511.999" style="enable-background:new 0 0 511.999 511.999;" xml:space="preserve">
<linearGradient id="SVGID_1_" gradientUnits="userSpaceOnUse" x1="1.180447e-004" y1="258.0237" x2="511.9631" y2="258.0237" gradientTransform="matrix(1.0001 0 0 -1.0001 0.0029 514.0383)">
	<stop  offset="0" style="stop-color:#00F2FE"/>
	<stop  offset="0.021" style="stop-color:#03EFFE"/>
	<stop  offset="0.293" style="stop-color:#24D2FE"/>
	<stop  offset="0.554" style="stop-color:#3CBDFE"/>
	<stop  offset="0.796" style="stop-color:#4AB0FE"/>
	<stop  offset="1" style="stop-color:#4FACFE"/>
</linearGradient>
<path style="fill:url(#SVGID_1_);" d="M509.003,435.456L376.184,39.001c-0.038-0.113-0.077-0.226-0.117-0.338
	C367.728,15.175,346.265,0,321.385,0c-0.003,0-0.007,0-0.01,0c-24.796,0.004-46.195,15.081-54.591,38.432l-62.83,164.537
	L38.221,267.746c-23.246,8.455-38.235,29.892-38.218,54.701c0.018,24.916,15.168,46.409,38.597,54.755
	c0.137,0.048,0.273,0.096,0.411,0.141L435.904,509.09c5.974,1.956,12.09,2.909,18.141,2.909c15.119,0,29.839-5.95,40.937-17.079
	C510.58,479.281,515.963,456.526,509.003,435.456z M51.852,339.458c-10.981-4.012-11.845-14.046-11.847-17.039
	c-0.002-3.008,0.856-13.132,11.995-17.118c0.182-0.065,0.362-0.133,0.542-0.203l174.219-68.094
	c5.252-2.052,9.394-6.226,11.405-11.494l66.065-173.007c0.057-0.149,0.111-0.299,0.165-0.449
	c3.965-11.181,14.003-12.052,16.986-12.052c2.969,0,12.935,0.859,16.938,11.903l130.089,388.304L301.167,272.878
	c-7.808-7.813-20.472-7.816-28.286-0.008c-7.813,7.809-7.815,20.473-0.007,28.286l167.022,167.112L51.852,339.458z"/>
<g>
</g>
<g>
</g>
<g>
</g>
<g>
</g>
<g>
</g>
<g>
</g>
<g>
</g>
<g>
</g>
<g>
</g>
<g>
</g>
<g>
</g>
<g>
</g>
<g>
</g>
<g>
</g>
<g>
</g>
</svg>
