<?xml version="1.0" encoding="iso-8859-1"?>
<!-- Generator: Adobe Illustrator 19.0.0, SVG Export Plug-In . SVG Version: 6.00 Build 0)  -->
<svg version="1.1" id="Capa_1" xmlns="http://www.w3.org/2000/svg" xmlns:xlink="http://www.w3.org/1999/xlink" x="0px" y="0px"
	 viewBox="0 0 512.001 512.001" style="enable-background:new 0 0 512.001 512.001;" xml:space="preserve">
<linearGradient id="SVGID_1_" gradientUnits="userSpaceOnUse" x1="-0.0028" y1="258.0229" x2="511.9693" y2="258.0229" gradientTransform="matrix(1.0001 0 0 -1.0001 0.0028 514.0381)">
	<stop  offset="0" style="stop-color:#00F2FE"/>
	<stop  offset="0.021" style="stop-color:#03EFFE"/>
	<stop  offset="0.293" style="stop-color:#24D2FE"/>
	<stop  offset="0.554" style="stop-color:#3CBDFE"/>
	<stop  offset="0.796" style="stop-color:#4AB0FE"/>
	<stop  offset="1" style="stop-color:#4FACFE"/>
</linearGradient>
<path style="fill:url(#SVGID_1_);" d="M478.852,201.233L86.185,6.094c-0.107-0.053-0.215-0.106-0.323-0.157
	C62.63-5.092,35.872-0.466,17.69,17.721C-0.428,35.847-5.073,62.487,5.819,85.658l75.434,169.097L5.849,426.44
	c-10.844,23.17-6.167,49.781,11.955,67.878c11.616,11.599,26.721,17.669,42.167,17.669c8.752,0,17.615-1.949,26.014-5.945
	c0.13-0.062,0.26-0.125,0.389-0.19L479.168,308.39c20.303-10.312,32.884-30.862,32.833-53.633S499.277,211.492,478.852,201.233z
	 M68.631,469.997c-11.739,5.484-20.23-1.658-22.562-3.985c-2.342-2.339-9.55-10.891-3.94-22.721c0.083-0.174,0.163-0.349,0.24-0.525
	l79.069-180.03c2.268-5.162,2.25-11.043-0.046-16.191L42.263,69.162c-0.065-0.146-0.132-0.292-0.201-0.436
	c-5.619-11.827,1.579-20.384,3.919-22.725c1.711-1.711,6.743-6.021,13.948-6.021c2.612,0,5.508,0.566,8.636,2.027l388.348,192.991
	H203.982c-11.047,0-20.001,8.954-20.001,20.001c0,11.047,8.954,20.001,20.001,20.001h252.539L68.631,469.997z"/>
<g>
</g>
<g>
</g>
<g>
</g>
<g>
</g>
<g>
</g>
<g>
</g>
<g>
</g>
<g>
</g>
<g>
</g>
<g>
</g>
<g>
</g>
<g>
</g>
<g>
</g>
<g>
</g>
<g>
</g>
</svg>
