<?xml version="1.0" encoding="iso-8859-1"?>
<!-- Generator: Adobe Illustrator 19.0.0, SVG Export Plug-In . SVG Version: 6.00 Build 0)  -->
<svg version="1.1" id="Capa_1" xmlns="http://www.w3.org/2000/svg" xmlns:xlink="http://www.w3.org/1999/xlink" x="0px" y="0px"
	 viewBox="0 0 512 512" style="enable-background:new 0 0 512 512;" xml:space="preserve">
<linearGradient id="SVGID_1_" gradientUnits="userSpaceOnUse" x1="-0.003" y1="258.0237" x2="511.9662" y2="258.0237" gradientTransform="matrix(1.0001 0 0 -1.0001 0.003 514.0394)">
	<stop  offset="0" style="stop-color:#00F2FE"/>
	<stop  offset="0.021" style="stop-color:#03EFFE"/>
	<stop  offset="0.293" style="stop-color:#24D2FE"/>
	<stop  offset="0.554" style="stop-color:#3CBDFE"/>
	<stop  offset="0.796" style="stop-color:#4AB0FE"/>
	<stop  offset="1" style="stop-color:#4FACFE"/>
</linearGradient>
<path style="fill:url(#SVGID_1_);" d="M494.922,17.018c-15.64-15.599-38.394-20.982-59.466-14.021L39.001,135.816
	c-0.113,0.038-0.226,0.077-0.338,0.117C15.171,144.274-0.004,165.742,0,190.625c0.004,24.796,15.083,46.197,38.437,54.591
	l164.532,62.829l64.776,165.731c8.452,23.233,29.867,38.221,54.658,38.22c0.014,0,0.03,0,0.044,0
	c24.915-0.018,46.409-15.168,54.755-38.597c0.048-0.137,0.096-0.273,0.141-0.411L509.092,76.095
	C515.933,55.196,510.504,32.559,494.922,17.018z M339.459,460.149c-4.012,10.98-14.046,11.844-17.039,11.846
	c-0.003,0-0.007,0-0.011,0c-3.021,0-13.126-0.87-17.107-11.996c-0.065-0.182-0.133-0.362-0.203-0.542l-68.094-174.22
	c-2.052-5.251-6.226-9.393-11.494-11.404L52.503,207.769c-0.149-0.057-0.299-0.112-0.449-0.166
	c-11.181-3.964-12.052-14.002-12.052-16.984c0-2.969,0.859-12.935,11.903-16.938L440.209,43.592l-167.33,167.241
	c-7.813,7.809-7.816,20.473-0.008,28.286c3.906,3.908,9.027,5.862,14.147,5.862c5.117,0,10.234-1.951,14.139-5.854L468.268,72.104
	L339.459,460.149z"/>
<g>
</g>
<g>
</g>
<g>
</g>
<g>
</g>
<g>
</g>
<g>
</g>
<g>
</g>
<g>
</g>
<g>
</g>
<g>
</g>
<g>
</g>
<g>
</g>
<g>
</g>
<g>
</g>
<g>
</g>
</svg>
