<?xml version="1.0" encoding="iso-8859-1"?>
<!-- Generator: Adobe Illustrator 19.0.0, SVG Export Plug-In . SVG Version: 6.00 Build 0)  -->
<svg version="1.1" id="Capa_1" xmlns="http://www.w3.org/2000/svg" xmlns:xlink="http://www.w3.org/1999/xlink" x="0px" y="0px"
	 viewBox="0 0 511.999 511.999" style="enable-background:new 0 0 511.999 511.999;" xml:space="preserve">
<linearGradient id="SVGID_1_" gradientUnits="userSpaceOnUse" x1="-0.0055" y1="258.0427" x2="511.937" y2="258.0427" gradientTransform="matrix(1.0001 0 0 -1.0001 0.0055 514.0712)">
	<stop  offset="0" style="stop-color:#00F2FE"/>
	<stop  offset="0.021" style="stop-color:#03EFFE"/>
	<stop  offset="0.293" style="stop-color:#24D2FE"/>
	<stop  offset="0.554" style="stop-color:#3CBDFE"/>
	<stop  offset="0.796" style="stop-color:#4AB0FE"/>
	<stop  offset="1" style="stop-color:#4FACFE"/>
</linearGradient>
<path style="fill:url(#SVGID_1_);" d="M506.077,426.036c-0.052-0.109-0.104-0.218-0.159-0.326L310.733,33.097
	c-10.221-20.35-30.716-33.023-53.489-33.074c-0.047,0-0.09,0-0.138,0c-22.716,0-43.209,12.573-53.536,32.908L6.136,425.673
	c-0.065,0.129-0.128,0.259-0.19,0.389c-11.05,23.223-6.449,49.986,11.723,68.185c11.62,11.637,26.752,17.73,42.229,17.73
	c8.626,0,17.36-1.893,25.654-5.775l171.702-75.412l169.108,75.296c23.17,10.889,49.808,6.241,67.932-11.876
	C512.48,476.027,517.106,449.267,506.077,426.036z M466.01,465.916c-2.342,2.341-10.902,9.539-22.727,3.919
	c-0.149-0.07-0.298-0.139-0.449-0.207l-177.391-78.984c-5.148-2.292-11.022-2.307-16.18-0.041l-180.04,79.074
	c-0.176,0.077-0.352,0.157-0.525,0.24c-11.833,5.61-20.383-1.599-22.723-3.94c-2.328-2.332-9.468-10.824-3.985-22.563
	L236.998,55.501v253.423c0,11.047,8.955,20.002,20.002,20.002c11.047,0,20.002-8.955,20.002-20.002V55.111l193.001,388.219
	C475.497,455.088,468.343,463.585,466.01,465.916z"/>
<g>
</g>
<g>
</g>
<g>
</g>
<g>
</g>
<g>
</g>
<g>
</g>
<g>
</g>
<g>
</g>
<g>
</g>
<g>
</g>
<g>
</g>
<g>
</g>
<g>
</g>
<g>
</g>
<g>
</g>
</svg>
