<?xml version="1.0" encoding="iso-8859-1"?>
<!-- Generator: Adobe Illustrator 19.0.0, SVG Export Plug-In . SVG Version: 6.00 Build 0)  -->
<svg version="1.1" id="Capa_1" xmlns="http://www.w3.org/2000/svg" xmlns:xlink="http://www.w3.org/1999/xlink" x="0px" y="0px"
	 viewBox="0 0 511.999 511.999" style="enable-background:new 0 0 511.999 511.999;" xml:space="preserve">
<linearGradient id="SVGID_1_" gradientUnits="userSpaceOnUse" x1="0.0908" y1="257.8801" x2="512.0941" y2="257.8801" gradientTransform="matrix(0.9997 0 0 -0.9997 -0.0149 513.8011)">
	<stop  offset="0" style="stop-color:#00F2FE"/>
	<stop  offset="0.021" style="stop-color:#03EFFE"/>
	<stop  offset="0.293" style="stop-color:#24D2FE"/>
	<stop  offset="0.554" style="stop-color:#3CBDFE"/>
	<stop  offset="0.796" style="stop-color:#4AB0FE"/>
	<stop  offset="1" style="stop-color:#4FACFE"/>
</linearGradient>
<path style="fill:url(#SVGID_1_);" d="M9.759,183.208l28.534-17.181L9.759,148.847c-9.46-5.695-12.511-17.982-6.815-27.442
	c5.695-9.46,17.983-12.512,27.442-6.815l26.676,16.061v-30.604c0-11.043,8.951-19.994,19.994-19.994s19.994,8.951,19.994,19.994
	v30.604l26.676-16.061c9.46-5.696,21.745-2.645,27.442,6.815c5.696,9.46,2.645,21.746-6.815,27.442l-28.534,17.181l28.534,17.181
	c9.46,5.695,12.511,17.982,6.815,27.442c-3.752,6.232-10.367,9.684-17.148,9.684c-3.512,0-7.067-0.925-10.294-2.868L97.05,201.405
	v30.604c0,11.043-8.951,19.994-19.994,19.994s-19.994-8.951-19.994-19.994v-30.604l-26.676,16.061
	c-3.227,1.943-6.783,2.868-10.294,2.868c-6.782,0-13.395-3.451-17.148-9.684C-2.752,201.19,0.299,188.903,9.759,183.208z
	 M337.091,292.641c-5.713-9.449-18.005-12.476-27.455-6.765l-13.648,8.253v-15.135c0-11.043-8.951-19.994-19.994-19.994
	S256,267.95,256,278.993v13.927l-11.648-7.043c-9.448-5.713-21.741-2.684-27.455,6.765c-5.713,9.449-2.685,21.741,6.765,27.455
	l14.691,8.882l-14.691,8.882c-9.449,5.713-12.478,18.005-6.765,27.455c3.758,6.214,10.36,9.652,17.129,9.652
	c3.523,0,7.091-0.932,10.326-2.887L256,365.038v13.927c0,11.043,8.951,19.994,19.994,19.994s19.994-8.951,19.994-19.994v-15.135
	l13.648,8.252c3.235,1.956,6.802,2.887,10.326,2.887c6.768,0,13.371-3.438,17.129-9.652c5.713-9.449,2.685-21.741-6.765-27.455
	l-14.691-8.882l14.691-8.882C339.776,314.382,342.805,302.09,337.091,292.641z M203.017,223.107h218.933
	c44.65,0,80.975-36.369,80.975-81.072c0-44.65-36.325-80.975-80.975-80.975c-21.791,0-42.234,8.531-57.561,24.023
	c-7.767,7.85-7.7,20.509,0.15,28.275s20.509,7.702,28.275-0.15c7.759-7.842,18.106-12.16,29.137-12.16
	c22.6,0,40.988,18.387,40.988,40.988c0,22.654-18.387,41.084-40.988,41.084H203.018c-11.043,0-19.994,8.951-19.994,19.994
	C183.024,214.156,191.975,223.107,203.017,223.107z M430.948,282.992H389.96c-11.043,0-19.994,8.951-19.994,19.994
	s8.951,19.994,19.994,19.994h40.988c22.6,0,40.988,18.43,40.988,41.084c0,22.6-18.387,40.988-40.988,40.988
	c-10.949,0-21.242-4.264-28.982-12.004c-7.809-7.809-20.468-7.809-28.275,0s-7.809,20.468,0,28.275
	c15.294,15.294,35.629,23.717,57.258,23.717c44.65,0,80.975-36.325,80.975-80.975C511.923,319.361,475.597,282.992,430.948,282.992z
	 M20.073,322.98H163.03c11.043,0,19.994-8.951,19.994-19.994s-8.951-19.994-19.994-19.994H20.073
	c-11.043,0-19.994,8.951-19.994,19.994S9.03,322.98,20.073,322.98z M203.017,140.035h50.984c38.586,0,69.979-31.427,69.979-70.057
	C323.981,31.392,292.588,0,254.002,0c-19.013,0-36.799,7.495-50.081,21.102c-7.713,7.902-7.56,20.561,0.343,28.273
	s20.561,7.56,28.273-0.343c5.692-5.832,13.316-9.044,21.464-9.044c16.537,0,29.991,13.454,29.991,29.991
	c0,16.58-13.454,30.069-29.991,30.069h-50.984c-11.043,0-19.994,8.951-19.994,19.994S191.975,140.035,203.017,140.035z
	 M151.033,371.965H20.073c-11.043,0-19.994,8.951-19.994,19.994s8.951,19.994,19.994,19.994h130.96
	c16.537,0,29.991,13.489,29.991,30.069c0,16.537-13.454,29.991-29.991,29.991c-8.149,0-15.771-3.212-21.464-9.045
	c-7.714-7.904-20.372-8.056-28.273-0.343c-7.903,7.713-8.056,20.372-0.343,28.273c13.282,13.608,31.068,21.102,50.081,21.102
	c38.586,0,69.979-31.392,69.979-69.979C221.012,403.392,189.619,371.965,151.033,371.965z"/>
<g>
</g>
<g>
</g>
<g>
</g>
<g>
</g>
<g>
</g>
<g>
</g>
<g>
</g>
<g>
</g>
<g>
</g>
<g>
</g>
<g>
</g>
<g>
</g>
<g>
</g>
<g>
</g>
<g>
</g>
</svg>
