<?xml version="1.0" encoding="iso-8859-1"?>
<!-- Generator: Adobe Illustrator 19.0.0, SVG Export Plug-In . SVG Version: 6.00 Build 0)  -->
<svg version="1.1" id="Capa_1" xmlns="http://www.w3.org/2000/svg" xmlns:xlink="http://www.w3.org/1999/xlink" x="0px" y="0px"
	 viewBox="0 0 512 512" style="enable-background:new 0 0 512 512;" xml:space="preserve">
<linearGradient id="SVGID_1_" gradientUnits="userSpaceOnUse" x1="0" y1="258" x2="512" y2="258" gradientTransform="matrix(1 0 0 -1 0 514)">
	<stop  offset="0" style="stop-color:#00F2FE"/>
	<stop  offset="0.021" style="stop-color:#03EFFE"/>
	<stop  offset="0.293" style="stop-color:#24D2FE"/>
	<stop  offset="0.554" style="stop-color:#3CBDFE"/>
	<stop  offset="0.796" style="stop-color:#4AB0FE"/>
	<stop  offset="1" style="stop-color:#4FACFE"/>
</linearGradient>
<path style="fill:url(#SVGID_1_);" d="M472,236h20c11.046,0,20,8.954,20,20c0,11.046-8.954,20-20,20h-20c-11.046,0-20-8.954-20-20
	S460.954,236,472,236z M256,80c11.046,0,20-8.954,20-20V20c0-11.046-8.954-20-20-20s-20,8.954-20,20v40
	C236,71.046,244.954,80,256,80z M20,276h20c11.046,0,20-8.954,20-20s-8.954-20-20-20H20c-11.046,0-20,8.954-20,20
	C0,267.046,8.954,276,20,276z M44.164,150.069l34.138,20.848c3.254,1.987,6.852,2.934,10.405,2.934
	c6.739,0,13.318-3.407,17.088-9.579c5.757-9.427,2.782-21.736-6.645-27.493l-34.138-20.848c-9.427-5.756-21.735-2.782-27.493,6.645
	C31.762,132.003,34.737,144.312,44.164,150.069z M467.836,361.931l-34.138-20.848c-9.427-5.756-21.735-2.781-27.493,6.645
	c-5.757,9.427-2.782,21.736,6.645,27.493l34.138,20.848c3.254,1.987,6.852,2.934,10.405,2.934c6.739,0,13.318-3.407,17.088-9.579
	C480.238,379.997,477.263,367.688,467.836,361.931z M358.333,88.836c3.259,1.995,6.863,2.945,10.423,2.945
	c6.731,0,13.305-3.399,17.077-9.561l10.442-17.058c5.767-9.421,2.805-21.733-6.615-27.5c-9.421-5.767-21.733-2.806-27.5,6.615
	l-10.442,17.058C345.951,70.757,348.913,83.069,358.333,88.836z M130.667,78.947c3.705,6.416,10.427,10.002,17.338,10.002
	c3.394,0,6.833-0.865,9.982-2.684c9.565-5.523,12.842-17.755,7.319-27.321l-10.001-17.32c-5.524-9.567-17.756-12.843-27.321-7.319
	c-9.565,5.523-12.842,17.755-7.319,27.321L130.667,78.947z M425.278,177.173c3.424,0,6.895-0.881,10.066-2.732l34.542-20.169
	c9.539-5.57,12.756-17.817,7.187-27.356c-5.569-9.538-17.815-12.756-27.356-7.187l-34.542,20.169
	c-9.539,5.57-12.756,17.817-7.187,27.356C411.706,173.622,418.399,177.173,425.278,177.173z M161,472H20c-11.046,0-20,8.954-20,20
	s8.954,20,20,20h141c11.046,0,20-8.954,20-20S172.046,472,161,472z M492,472H269.5c-10.752,0-19.5-8.748-19.5-19.5
	s8.748-19.5,19.5-19.5H322c32.533,0,59-26.467,59-59s-26.467-59-59-59H156.114C145.557,297.181,140,276.946,140,256
	c0-63.962,52.038-116,116-116s116,52.038,116,116c0,11.046,8.954,20,20,20s20-8.954,20-20c0-86.019-69.981-156-156-156
	s-156,69.981-156,156c0,20.458,3.961,40.414,11.563,59H20c-11.046,0-20,8.954-20,20s8.954,20,20,20h302c10.477,0,19,8.523,19,19
	s-8.523,19-19,19h-52.5c-32.809,0-59.5,26.691-59.5,59.5s26.691,59.5,59.5,59.5H492c11.046,0,20-8.954,20-20S503.046,472,492,472z
	 M20,433h121c11.046,0,20-8.954,20-20s-8.954-20-20-20H20c-11.046,0-20,8.954-20,20S8.954,433,20,433z"/>
<g>
</g>
<g>
</g>
<g>
</g>
<g>
</g>
<g>
</g>
<g>
</g>
<g>
</g>
<g>
</g>
<g>
</g>
<g>
</g>
<g>
</g>
<g>
</g>
<g>
</g>
<g>
</g>
<g>
</g>
</svg>
