<?xml version="1.0" encoding="iso-8859-1"?>
<!-- Generator: Adobe Illustrator 19.0.0, SVG Export Plug-In . SVG Version: 6.00 Build 0)  -->
<svg version="1.1" id="Capa_1" xmlns="http://www.w3.org/2000/svg" xmlns:xlink="http://www.w3.org/1999/xlink" x="0px" y="0px"
	 viewBox="0 0 512.001 512.001" style="enable-background:new 0 0 512.001 512.001;" xml:space="preserve">
<linearGradient id="SVGID_1_" gradientUnits="userSpaceOnUse" x1="0" y1="257.9999" x2="512.0009" y2="257.9999" gradientTransform="matrix(1 0 0 -1 0 514.0003)">
	<stop  offset="0" style="stop-color:#00F2FE"/>
	<stop  offset="0.021" style="stop-color:#03EFFE"/>
	<stop  offset="0.293" style="stop-color:#24D2FE"/>
	<stop  offset="0.554" style="stop-color:#3CBDFE"/>
	<stop  offset="0.796" style="stop-color:#4AB0FE"/>
	<stop  offset="1" style="stop-color:#4FACFE"/>
</linearGradient>
<path style="fill:url(#SVGID_1_);" d="M257.001,149.993c0-11.046,8.954-20,20-20s20,8.954,20,20s-8.954,20-20,20
	S257.001,161.038,257.001,149.993z M393.685,253.168c10.59-3.139,16.63-14.27,13.491-24.86c-3.14-10.59-14.27-16.63-24.86-13.49
	c-10.59,3.139-16.63,14.27-13.491,24.86C371.965,250.267,383.096,256.307,393.685,253.168z M258.001,274.993
	c11.046,0,20-8.954,20-20c0-11.046-8.954-20-20-20s-20,8.954-20,20C238.001,266.038,246.955,274.993,258.001,274.993z
	 M456.001,80.993c11.046,0,20-8.954,20-20s-8.954-20-20-20s-20,8.954-20,20S444.955,80.993,456.001,80.993z M141.001,471.993h-121
	c-11.046,0-20,8.954-20,20s8.954,20,20,20h121c11.046,0,20-8.954,20-20S152.047,471.993,141.001,471.993z M512.001,491.993
	c0,11.046-8.954,20-20,20h-242.5c-32.809,0-59.5-26.691-59.5-59.5s26.691-59.5,59.5-59.5h52.5c10.477,0,19-8.523,19-19
	s-8.523-19-19-19h-282c-11.046,0-20-8.954-20-20c0-6.913,3.508-13.006,8.84-16.598C2.553,295-0.402,270.856,0.044,246.336
	C1.06,190.347,19.559,137.274,53.541,92.854c33.368-43.619,78.631-75.132,130.895-91.133c16.519-5.057,33.87,1.327,43.173,15.887
	c9.316,14.584,7.815,33.041-3.737,45.927c-36.691,40.928-58.698,90.848-58.869,133.537c-0.037,9.295,0.896,18.465,2.771,27.252
	c7.33,34.339,26.568,65.652,54.171,88.171c0.938,0.766,1.773,1.609,2.536,2.497h77.521c32.532,0,59,26.467,59,59s-26.468,59-59,59
	h-52.5c-10.752,0-19.5,8.748-19.5,19.5s8.748,19.5,19.5,19.5h15.023c0.179-0.008,0.353-0.033,0.533-0.037
	c36.918-0.67,71.945-10.218,104.11-28.378l0.774-0.416c26.51-13.468,50.32-34.848,70.771-63.547
	c12.123-16.919,21.716-35.289,28.603-54.741c-9.932,8.28-20.559,16.006-31.687,23.032c-4.124,2.604-8.356,5.132-12.578,7.513
	c-9.624,5.427-21.82,2.024-27.245-7.597c-5.426-9.621-2.024-21.819,7.597-27.245c3.646-2.056,7.304-4.241,10.87-6.493
	c11.768-7.431,22.869-15.746,32.995-24.717c12.832-11.366,31.125-12.758,45.521-3.462c14.289,9.226,20.504,26.338,15.466,42.581
	c-8.256,26.618-20.703,51.645-36.996,74.383c-21.071,29.571-45.535,52.776-72.842,69.123h91.584
	C503.047,471.993,512.001,480.947,512.001,491.993z M49.488,314.993h118.747c-19.446-23.927-33.147-52.183-39.581-82.318
	c-2.471-11.579-3.7-23.61-3.652-35.761c0.281-70.086,42.023-128.463,64.457-154.782C101.467,72.123,41.734,153.604,40.038,247.063
	C39.617,270.262,42.801,293.05,49.488,314.993z M20.001,432.993h111c11.046,0,20-8.954,20-20s-8.954-20-20-20h-111
	c-11.046,0-20,8.954-20,20S8.955,432.993,20.001,432.993z"/>
<g>
</g>
<g>
</g>
<g>
</g>
<g>
</g>
<g>
</g>
<g>
</g>
<g>
</g>
<g>
</g>
<g>
</g>
<g>
</g>
<g>
</g>
<g>
</g>
<g>
</g>
<g>
</g>
<g>
</g>
</svg>
