<?xml version="1.0" encoding="iso-8859-1"?>
<!-- Generator: Adobe Illustrator 19.0.0, SVG Export Plug-In . SVG Version: 6.00 Build 0)  -->
<svg version="1.1" id="Capa_1" xmlns="http://www.w3.org/2000/svg" xmlns:xlink="http://www.w3.org/1999/xlink" x="0px" y="0px"
	 viewBox="0 0 512.001 512.001" style="enable-background:new 0 0 512.001 512.001;" xml:space="preserve">
<linearGradient id="SVGID_1_" gradientUnits="userSpaceOnUse" x1="5.008241e-004" y1="258.0015" x2="512.0005" y2="258.0015" gradientTransform="matrix(1 0 0 -1 0 514.002)">
	<stop  offset="0" style="stop-color:#00F2FE"/>
	<stop  offset="0.021" style="stop-color:#03EFFE"/>
	<stop  offset="0.293" style="stop-color:#24D2FE"/>
	<stop  offset="0.554" style="stop-color:#3CBDFE"/>
	<stop  offset="0.796" style="stop-color:#4AB0FE"/>
	<stop  offset="1" style="stop-color:#4FACFE"/>
</linearGradient>
<path style="fill:url(#SVGID_1_);" d="M0.001,333.001v-76.409c0-68.538,26.69-132.974,75.154-181.438
	c48.168-48.168,112.111-74.827,180.182-75.15c0.024,0,0.047-0.004,0.072-0.004l1.184,0.003c0.898,0.004,1.797,0.02,2.695,0.034
	c0.698,0.01,1.396,0.023,2.093,0.039c1.052,0.025,2.104,0.051,3.155,0.089c1.291,0.045,2.579,0.104,3.867,0.168
	c0.01,0,0.021,0.001,0.031,0.001C309.299,2.373,348.625,14,383.815,34.399c0.38,0.219,0.761,0.437,1.14,0.658
	c1.59,0.933,3.174,1.879,4.747,2.848c31.241,19.114,58.314,44.759,78.822,74.824c0.876,1.284,1.564,2.639,2.105,4.028
	c9.556,14.706,17.627,30.433,24.06,47.004c3.997,10.297-1.109,21.885-11.406,25.882c-2.379,0.923-4.827,1.361-7.233,1.361
	c-8.014,0-15.575-4.849-18.649-12.768c-12.096-31.158-30.623-58.22-53.741-79.943c-38.093-35.402-87.907-56.341-140.723-58.162
	c-0.219-0.007-0.438-0.012-0.658-0.019c-1.914-0.06-3.831-0.094-5.752-0.104c-0.237-0.001-0.474-0.006-0.711-0.007
	C136.741,40.424,40,137.422,40,256.592v76.409c0,11.046-8.954,20-20,20S0.001,344.047,0.001,333.001z M337.057,98.691
	C312.198,85.81,284.171,79.001,256,79.001h-0.391c-0.066,0-0.132,0-0.197,0.001c-46.886,0.152-90.89,18.494-123.968,51.687
	c-33.174,33.289-51.444,77.576-51.444,124.703v33.609c0,11.046,8.954,20,20,20s20-8.954,20-20v-33.609
	c0-75.206,61.01-136.391,136-136.391c43.285,0,84.432,20.87,110.067,55.828c3.919,5.343,9.989,8.174,16.145,8.174
	c4.104,0,8.247-1.26,11.811-3.874c8.907-6.532,10.833-19.048,4.301-27.956C382.279,129.295,361.094,111.147,337.057,98.691z
	 M309.998,220.001c5.226,0,10.446-2.036,14.369-6.086c7.684-7.935,7.481-20.596-0.453-28.281
	c-17.476-16.925-42.161-26.633-67.724-26.633h-0.381c-0.109,0-0.218,0.001-0.326,0.002c-25.442,0.187-49.383,10.487-67.486,29.05
	c-18.054,18.513-27.997,42.854-27.997,68.539v22.409c0,11.046,8.954,20,20,20s20-8.954,20-20v-22.409
	c0-31.217,25.732-57.591,56.19-57.591c15.271,0,29.813,5.601,39.896,15.367C299.971,218.13,304.986,220.001,309.998,220.001z
	 M251.001,450.001c0,34.187-27.813,62-62,62H50.398c-13.675,0-26.435-5.353-35.928-15.073c-9.331-9.555-14.47-22.275-14.47-35.817
	c0-20.885,13.407-39.338,32.002-47.238c0.262-28.096,22.651-50.872,50.136-50.872c4.261,0,8.444,0.504,12.466,1.476
	c3.951-6.708,8.994-12.787,14.973-17.958c13.063-11.296,29.779-17.518,47.071-17.518c19.211,0,37.488,7.568,51.467,21.31
	c14.113,13.874,21.885,32.129,21.885,51.403v1.804C243.174,415.171,251.001,432.097,251.001,450.001z M211.001,450.001
	c0-7.822-4.222-15.124-11.018-19.057c-6.178-3.576-9.982-10.172-9.982-17.311v-11.919c0-17.426-15.585-32.713-33.352-32.713
	c-15.639,0-29.231,11.632-31.618,27.058c-1.187,7.669-6.702,13.96-14.151,16.138c-7.448,2.179-15.485-0.15-20.616-5.971
	c-2.35-2.666-5.716-3.225-8.125-3.225c-5.685,0-10.138,4.993-10.138,11.368c0,5.961-0.068,15.567-0.068,15.567
	c-0.079,10.99-9.011,19.856-20,19.856c-6.244,0-11.932,5.395-11.932,11.319c0,6.208,4.471,10.89,10.398,10.89h138.602
	C201.132,472.001,211.001,462.132,211.001,450.001z M512,330.001c0,34.187-27.813,62-62,62H311.398
	c-13.675,0-26.435-5.353-35.928-15.073c-9.331-9.555-14.47-22.275-14.47-35.817c0-20.885,13.407-39.338,32.002-47.238
	c0.262-28.096,22.651-50.872,50.136-50.872c4.261,0,8.444,0.504,12.466,1.476c3.951-6.708,8.994-12.787,14.973-17.958
	c13.063-11.296,29.779-17.518,47.071-17.518c19.211,0,37.488,7.568,51.467,21.31C483.228,244.185,491,262.44,491,281.714v1.804
	C504.174,295.171,512,312.097,512,330.001z M472,330.001c0-7.822-4.222-15.124-11.018-19.057
	c-6.178-3.576-9.982-10.172-9.982-17.311v-11.919c0-17.426-15.585-32.713-33.352-32.713c-15.639,0-29.231,11.632-31.618,27.058
	c-1.187,7.669-6.702,13.96-14.151,16.138c-7.447,2.179-15.484-0.15-20.616-5.971c-2.35-2.666-5.716-3.225-8.125-3.225
	c-5.685,0-10.138,4.993-10.138,11.368c0,5.961-0.068,15.567-0.068,15.567c-0.079,10.99-9.011,19.856-20,19.856
	c-6.244,0-11.932,5.395-11.932,11.319c0,6.208,4.471,10.89,10.398,10.89H450C462.132,352.001,472,342.132,472,330.001z"/>
<g>
</g>
<g>
</g>
<g>
</g>
<g>
</g>
<g>
</g>
<g>
</g>
<g>
</g>
<g>
</g>
<g>
</g>
<g>
</g>
<g>
</g>
<g>
</g>
<g>
</g>
<g>
</g>
<g>
</g>
</svg>
