<?xml version="1.0" encoding="iso-8859-1"?>
<!-- Generator: Adobe Illustrator 19.0.0, SVG Export Plug-In . SVG Version: 6.00 Build 0)  -->
<svg version="1.1" id="Capa_1" xmlns="http://www.w3.org/2000/svg" xmlns:xlink="http://www.w3.org/1999/xlink" x="0px" y="0px"
	 viewBox="0 0 512.001 512.001" style="enable-background:new 0 0 512.001 512.001;" xml:space="preserve">
<linearGradient id="SVGID_1_" gradientUnits="userSpaceOnUse" x1="9.917414e-004" y1="257.9995" x2="512" y2="257.9995" gradientTransform="matrix(1 0 0 -1 0 514)">
	<stop  offset="0" style="stop-color:#00F2FE"/>
	<stop  offset="0.021" style="stop-color:#03EFFE"/>
	<stop  offset="0.293" style="stop-color:#24D2FE"/>
	<stop  offset="0.554" style="stop-color:#3CBDFE"/>
	<stop  offset="0.796" style="stop-color:#4AB0FE"/>
	<stop  offset="1" style="stop-color:#4FACFE"/>
</linearGradient>
<path style="fill:url(#SVGID_1_);" d="M499.89,236.913l-138.273-59.348c2.862-2.832,5.992-5.937,9.404-9.331
	c14.472-14.392,29.002-28.971,29.147-29.117c7.797-7.824,7.774-20.488-0.05-28.285c-7.823-7.796-20.486-7.774-28.284,0.049
	c-11.666,11.707-26.482,26.499-38.174,38.072L275.403,12.164C272.263,4.788,265.021,0,257.003,0h-1.002
	c-7.965,0-15.171,4.727-18.345,12.032l-59.484,136.954c-2.724-2.752-5.704-5.755-8.937-9.006
	c-14.392-14.472-28.972-29.002-29.117-29.147c-7.823-7.797-20.486-7.775-28.284,0.049c-7.797,7.824-7.774,20.487,0.05,28.284
	c11.852,11.811,26.862,26.846,38.497,38.604L12.136,236.903c-7.361,3.148-12.135,10.383-12.135,18.389v1
	c0,7.985,4.75,15.205,12.082,18.366l137.002,59.065c-2.507,2.483-5.199,5.156-8.104,8.043
	c-14.472,14.392-29.002,28.971-29.147,29.117c-7.797,7.824-7.774,20.488,0.05,28.285c3.903,3.89,9.01,5.833,14.117,5.833
	c5.13,0,10.26-1.962,14.167-5.882c11.382-11.421,25.756-25.774,37.309-37.215l60.188,138.088
	c3.179,7.293,10.378,12.009,18.334,12.009h1.004c8.017,0,15.259-4.787,18.4-12.163l21.998-51.649
	c4.328-10.162-0.401-21.909-10.563-26.237c-10.16-4.327-21.908,0.401-26.237,10.563l-4.306,10.109L204.79,324.458
	c-1.051-8.636-7.594-15.568-16.039-17.193L69.522,255.862l122.679-52.473c4.695-2.009,8.444-5.737,10.479-10.421l53.646-123.513
	l52.332,122.878c2.017,4.736,5.782,8.512,10.512,10.542l123.418,52.972l-116.446,50.289c-7.035,0.612-13.014,4.863-16.067,10.864
	c-0.533,0.859-1.02,1.75-1.421,2.691l-14.256,33.472c-4.328,10.163,0.401,21.909,10.563,26.238
	c10.162,4.328,21.909-0.401,26.237-10.564l3.121-7.328c2.592,2.618,5.405,5.452,8.447,8.511
	c14.392,14.472,28.972,29.002,29.117,29.147c3.903,3.89,9.01,5.833,14.117,5.833c5.13,0,10.26-1.962,14.167-5.882
	c7.797-7.824,7.774-20.487-0.05-28.284c-11.35-11.312-25.596-25.579-37.001-37.095l136.814-59.085
	c7.326-3.164,12.07-10.38,12.07-18.361v-1.001C512.001,247.295,507.237,240.067,499.89,236.913z"/>
<g>
</g>
<g>
</g>
<g>
</g>
<g>
</g>
<g>
</g>
<g>
</g>
<g>
</g>
<g>
</g>
<g>
</g>
<g>
</g>
<g>
</g>
<g>
</g>
<g>
</g>
<g>
</g>
<g>
</g>
</svg>
