<?xml version="1.0" encoding="iso-8859-1"?>
<!-- Generator: Adobe Illustrator 19.0.0, SVG Export Plug-In . SVG Version: 6.00 Build 0)  -->
<svg version="1.1" id="Capa_1" xmlns="http://www.w3.org/2000/svg" xmlns:xlink="http://www.w3.org/1999/xlink" x="0px" y="0px"
	 viewBox="0 0 512 512" style="enable-background:new 0 0 512 512;" xml:space="preserve">
<linearGradient id="SVGID_1_" gradientUnits="userSpaceOnUse" x1="0.0024" y1="257.9969" x2="512.0024" y2="257.9969" gradientTransform="matrix(1 0 0 -1 -3.855230e-004 513.9949)">
	<stop  offset="0" style="stop-color:#00F2FE"/>
	<stop  offset="0.021" style="stop-color:#03EFFE"/>
	<stop  offset="0.293" style="stop-color:#24D2FE"/>
	<stop  offset="0.554" style="stop-color:#3CBDFE"/>
	<stop  offset="0.796" style="stop-color:#4AB0FE"/>
	<stop  offset="1" style="stop-color:#4FACFE"/>
</linearGradient>
<path style="fill:url(#SVGID_1_);" d="M437.018,74.979C392.056,30.019,333.311,3.854,270.314,0.405
	c-2.028-0.413-4.124-0.499-6.215-0.265C261.405,0.057,258.707,0,256,0C187.621,0,123.334,26.629,74.981,74.979
	C26.631,123.332,0.002,187.619,0.002,255.998s26.629,132.666,74.979,181.019c48.352,48.352,112.639,74.979,181.019,74.979
	c2.678,0,5.353-0.047,8.023-0.13c0.764,0.089,1.529,0.134,2.292,0.134c1.359,0,2.709-0.14,4.03-0.411
	c41.786-2.333,82.351-14.822,118.115-36.486c9.448-5.723,12.467-18.021,6.745-27.468c-5.724-9.449-18.021-12.468-27.468-6.745
	c-21.362,12.94-44.766,21.994-69.132,26.877l169.089-169.089c-5.568,27.327-16.47,53.495-32.322,77.203
	c-6.139,9.183-3.672,21.603,5.511,27.742c9.184,6.14,21.604,3.671,27.742-5.511c28.375-42.442,43.374-91.584,43.374-142.115
	C511.998,187.619,485.369,123.332,437.018,74.979z M223.284,430.869l238.997-238.997c4.649,14.924,7.711,30.539,9.007,46.645
	L251.912,457.891C243.47,451.121,233.511,442.164,223.284,430.869z M445.376,152.208L198.694,398.891
	c-7.289-11.248-14.167-23.844-20.121-37.871l243.259-243.259C430.738,128.424,438.635,139.955,445.376,152.208z M195.466,117.939
	c1.285-0.797,2.507-1.734,3.623-2.849l74.393-74.38c15.991,1.287,31.496,4.318,46.323,8.911L161.99,207.425
	C167.489,174.995,178.677,145.084,195.466,117.939z M393.492,89.533L164.8,318.225c-3.529-15.534-5.848-32.347-6.554-50.491
	L359.523,66.471C371.589,73.088,382.96,80.82,393.492,89.533z M40.002,255.998c0-99.748,67.97-183.906,160.023-208.628
	c-4.334,4.477-8.732,9.302-13.128,14.499c-31.43,37.157-68.895,100.998-68.895,194.129s37.466,156.973,68.895,194.129
	c4.396,5.196,8.794,10.022,13.128,14.499C107.972,439.904,40.002,355.746,40.002,255.998z"/>
<g>
</g>
<g>
</g>
<g>
</g>
<g>
</g>
<g>
</g>
<g>
</g>
<g>
</g>
<g>
</g>
<g>
</g>
<g>
</g>
<g>
</g>
<g>
</g>
<g>
</g>
<g>
</g>
<g>
</g>
</svg>
