<?xml version="1.0" encoding="iso-8859-1"?>
<!-- Generator: Adobe Illustrator 19.0.0, SVG Export Plug-In . SVG Version: 6.00 Build 0)  -->
<svg version="1.1" id="Capa_1" xmlns="http://www.w3.org/2000/svg" xmlns:xlink="http://www.w3.org/1999/xlink" x="0px" y="0px"
	 viewBox="0 0 512 512" style="enable-background:new 0 0 512 512;" xml:space="preserve">
<linearGradient id="SVGID_1_" gradientUnits="userSpaceOnUse" x1="0" y1="258" x2="512" y2="258" gradientTransform="matrix(1 0 0 -1 0 514)">
	<stop  offset="0" style="stop-color:#00F2FE"/>
	<stop  offset="0.021" style="stop-color:#03EFFE"/>
	<stop  offset="0.293" style="stop-color:#24D2FE"/>
	<stop  offset="0.554" style="stop-color:#3CBDFE"/>
	<stop  offset="0.796" style="stop-color:#4AB0FE"/>
	<stop  offset="1" style="stop-color:#4FACFE"/>
</linearGradient>
<path style="fill:url(#SVGID_1_);" d="M437.02,74.98C388.667,26.629,324.38,0,256,0c-0.269,0-0.537,0.009-0.806,0.01
	C255.129,0.009,255.065,0,255,0c-0.107,0-0.211,0.014-0.318,0.016C186.795,0.356,123.021,26.94,74.98,74.98
	C26.629,123.333,0,187.62,0,256s26.629,132.667,74.98,181.02c48.041,48.041,111.815,74.624,179.702,74.964
	c0.107,0.002,0.21,0.016,0.318,0.016c0.065,0,0.129-0.009,0.194-0.01c0.269,0.001,0.537,0.01,0.806,0.01
	c46.813,0,92.617-12.757,132.461-36.893c9.448-5.723,12.467-18.021,6.745-27.468c-5.723-9.449-18.022-12.468-27.468-6.745
	c-21.362,12.94-44.766,21.994-69.133,26.877l169.09-169.09c-5.568,27.327-16.47,53.495-32.322,77.204
	c-6.139,9.183-3.672,21.603,5.511,27.742c9.184,6.14,21.603,3.671,27.742-5.511C497.001,355.674,512,306.531,512,256
	C512,187.62,485.371,123.333,437.02,74.98z M393.493,89.534L275,208.027v-57.044l84.523-84.511
	C371.589,73.089,382.961,80.82,393.493,89.534z M275,94.419V40.845c15.453,1.354,30.448,4.328,44.804,8.776L275,94.419z
	 M275,379.156l187.283-187.283c4.649,14.924,7.711,30.539,9.007,46.645L275,434.808V379.156z M445.378,152.209L275,322.588v-57.992
	l146.834-146.834C430.739,128.425,438.636,139.956,445.378,152.209z M40,256c0-112.018,85.715-204.383,195-214.977v429.953
	C125.715,460.383,40,368.018,40,256z"/>
<g>
</g>
<g>
</g>
<g>
</g>
<g>
</g>
<g>
</g>
<g>
</g>
<g>
</g>
<g>
</g>
<g>
</g>
<g>
</g>
<g>
</g>
<g>
</g>
<g>
</g>
<g>
</g>
<g>
</g>
</svg>
