<?xml version="1.0" encoding="iso-8859-1"?>
<!-- Generator: Adobe Illustrator 19.0.0, SVG Export Plug-In . SVG Version: 6.00 Build 0)  -->
<svg version="1.1" id="Capa_1" xmlns="http://www.w3.org/2000/svg" xmlns:xlink="http://www.w3.org/1999/xlink" x="0px" y="0px"
	 viewBox="0 0 512 512" style="enable-background:new 0 0 512 512;" xml:space="preserve">
<linearGradient id="SVGID_1_" gradientUnits="userSpaceOnUse" x1="0.0029" y1="257.9969" x2="512.0019" y2="257.9969" gradientTransform="matrix(1 0 0 -1 -3.855189e-004 513.9949)">
	<stop  offset="0" style="stop-color:#00F2FE"/>
	<stop  offset="0.021" style="stop-color:#03EFFE"/>
	<stop  offset="0.293" style="stop-color:#24D2FE"/>
	<stop  offset="0.554" style="stop-color:#3CBDFE"/>
	<stop  offset="0.796" style="stop-color:#4AB0FE"/>
	<stop  offset="1" style="stop-color:#4FACFE"/>
</linearGradient>
<path style="fill:url(#SVGID_1_);" d="M437.018,74.979C388.666,26.629,324.38,0,256,0c-2.443,0-4.879,0.043-7.311,0.111
	c-1.816-0.184-3.631-0.108-5.404,0.198c-63.604,3.09-122.96,29.329-168.304,74.67C26.631,123.332,0.002,187.619,0.002,255.998
	s26.629,132.666,74.979,181.019c45.323,45.323,104.648,71.558,168.22,74.667c1.146,0.203,2.31,0.316,3.483,0.316
	c0.684,0,1.37-0.042,2.056-0.113c2.415,0.067,4.833,0.109,7.259,0.109c46.813,0,92.616-12.757,132.46-36.893
	c9.448-5.723,12.467-18.021,6.745-27.468c-5.723-9.449-18.022-12.468-27.468-6.745c-17.027,10.314-35.351,18.158-54.425,23.392
	c4.224-4.379,8.51-9.094,12.791-14.155c8.369-9.894,17.161-21.699,25.564-35.425c0.006-0.006,0.013-0.011,0.02-0.018
	l116.006-116.006c-5.568,27.327-16.47,53.495-32.322,77.203c-6.139,9.183-3.672,21.603,5.511,27.742
	c9.183,6.14,21.603,3.671,27.742-5.511c28.375-42.442,43.374-91.584,43.374-142.115C511.998,187.619,485.37,123.332,437.018,74.979z
	 M445.377,152.208l-54.104,54.104c-2.586-16.846-6.411-32.465-11.081-46.911l41.641-41.642
	C430.738,128.424,438.635,139.955,445.377,152.208z M359.522,66.471c12.066,6.617,23.438,14.349,33.97,23.063l-29.681,29.681
	c-6.66-13.363-13.898-25.292-21.214-35.826L359.522,66.471z M40.002,255.998c0-114.408,89.415-208.31,202.031-215.534
	C263.872,54.082,355,119.143,355,255.998c0,64.417-19.632,120.607-58.352,167.007c-22.401,26.845-45.125,42.577-54.638,48.527
	C129.405,464.295,40.002,370.399,40.002,255.998z M394.959,259.194l67.322-67.322c4.649,14.924,7.711,30.539,9.007,46.645
	l-82.843,82.843C392.383,302.338,394.75,281.622,394.959,259.194z"/>
<g>
</g>
<g>
</g>
<g>
</g>
<g>
</g>
<g>
</g>
<g>
</g>
<g>
</g>
<g>
</g>
<g>
</g>
<g>
</g>
<g>
</g>
<g>
</g>
<g>
</g>
<g>
</g>
<g>
</g>
</svg>
