<?xml version="1.0" encoding="iso-8859-1"?>
<!-- Generator: Adobe Illustrator 19.0.0, SVG Export Plug-In . SVG Version: 6.00 Build 0)  -->
<svg version="1.1" id="Capa_1" xmlns="http://www.w3.org/2000/svg" xmlns:xlink="http://www.w3.org/1999/xlink" x="0px" y="0px"
	 viewBox="0 0 512 512" style="enable-background:new 0 0 512 512;" xml:space="preserve">
<linearGradient id="SVGID_1_" gradientUnits="userSpaceOnUse" x1="0.0019" y1="257.9969" x2="512.0029" y2="257.9969" gradientTransform="matrix(1 0 0 -1 -3.855269e-004 513.9949)">
	<stop  offset="0" style="stop-color:#00F2FE"/>
	<stop  offset="0.021" style="stop-color:#03EFFE"/>
	<stop  offset="0.293" style="stop-color:#24D2FE"/>
	<stop  offset="0.554" style="stop-color:#3CBDFE"/>
	<stop  offset="0.796" style="stop-color:#4AB0FE"/>
	<stop  offset="1" style="stop-color:#4FACFE"/>
</linearGradient>
<path style="fill:url(#SVGID_1_);" d="M437.017,74.979C392.055,30.019,333.311,3.854,270.313,0.405
	c-2.028-0.413-4.124-0.499-6.215-0.265C261.404,0.057,258.706,0,255.999,0C187.62,0,123.334,26.629,74.981,74.979
	C26.63,123.332,0.001,187.619,0.001,255.998S26.63,388.664,74.981,437.017c48.352,48.352,112.639,74.979,181.019,74.979
	c2.678,0,5.353-0.047,8.023-0.13c0.764,0.089,1.529,0.134,2.292,0.134c1.359,0,2.709-0.14,4.03-0.411
	c41.786-2.333,82.351-14.822,118.115-36.486c9.448-5.723,12.467-18.021,6.745-27.468c-5.723-9.449-18.022-12.468-27.468-6.745
	c-29.359,17.784-62.57,28.24-96.845,30.594c-21.972-13.72-112.89-78.789-112.89-215.486c0-56.357,15.026-106.415,44.714-149.13
	c0.319-0.42,0.63-0.844,0.912-1.282c3.987-5.66,8.222-11.197,12.727-16.595c22.312-26.738,44.945-42.452,54.549-48.469
	c112.174,7.682,201.095,101.383,201.095,215.475c0,42.589-12.665,84.043-36.626,119.884c-6.139,9.183-3.672,21.603,5.511,27.742
	c9.183,6.14,21.604,3.671,27.742-5.511c28.375-42.442,43.374-91.584,43.374-142.115C511.997,187.619,485.369,123.332,437.017,74.979
	z M88.835,392.629c-8.817-10.767-16.613-22.398-23.246-34.745l55.649-55.648c2.415,16.991,6.07,32.781,10.616,47.375L88.835,392.629
	z M118.091,248.814l-69.047,69.047c-4.68-15.628-7.634-31.992-8.641-48.874c0.96-0.668,1.883-1.414,2.74-2.27l82.898-82.891
	C121.475,203.579,118.584,225.232,118.091,248.814z M200.024,47.37c-4.334,4.477-8.732,9.302-13.128,14.499
	c-5.035,5.952-10.224,12.598-15.389,19.93L45.409,207.885C63.199,129.983,123.229,67.994,200.024,47.37z M200.024,464.626
	c-30.993-8.323-59.251-23.383-83.107-43.511l30.975-30.975c11.985,24.677,26.009,44.621,39.006,59.987
	C191.291,455.323,195.69,460.149,200.024,464.626z"/>
<g>
</g>
<g>
</g>
<g>
</g>
<g>
</g>
<g>
</g>
<g>
</g>
<g>
</g>
<g>
</g>
<g>
</g>
<g>
</g>
<g>
</g>
<g>
</g>
<g>
</g>
<g>
</g>
<g>
</g>
</svg>
