<?xml version="1.0" encoding="iso-8859-1"?>
<!-- Generator: Adobe Illustrator 19.0.0, SVG Export Plug-In . SVG Version: 6.00 Build 0)  -->
<svg version="1.1" id="Capa_1" xmlns="http://www.w3.org/2000/svg" xmlns:xlink="http://www.w3.org/1999/xlink" x="0px" y="0px"
	 viewBox="0 0 512 512" style="enable-background:new 0 0 512 512;" xml:space="preserve">
<linearGradient id="SVGID_1_" gradientUnits="userSpaceOnUse" x1="0" y1="258" x2="512" y2="258" gradientTransform="matrix(1 0 0 -1 0 514)">
	<stop  offset="0" style="stop-color:#00F2FE"/>
	<stop  offset="0.021" style="stop-color:#03EFFE"/>
	<stop  offset="0.293" style="stop-color:#24D2FE"/>
	<stop  offset="0.554" style="stop-color:#3CBDFE"/>
	<stop  offset="0.796" style="stop-color:#4AB0FE"/>
	<stop  offset="1" style="stop-color:#4FACFE"/>
</linearGradient>
<path style="fill:url(#SVGID_1_);" d="M437.02,74.98C388.667,26.629,324.38,0,256,0c-0.269,0-0.537,0.009-0.806,0.01
	C255.129,0.009,255.065,0,255,0c-0.107,0-0.211,0.014-0.317,0.016C186.795,0.356,123.022,26.94,74.98,74.98
	C26.629,123.333,0,187.62,0,256s26.629,132.667,74.98,181.02c48.042,48.04,111.815,74.624,179.702,74.964
	c0.106,0.002,0.21,0.016,0.317,0.016c0.065,0,0.129-0.009,0.194-0.01c0.269,0.001,0.537,0.01,0.806,0.01
	c46.812,0,92.616-12.757,132.462-36.893c9.447-5.723,12.467-18.021,6.744-27.468c-5.724-9.449-18.021-12.467-27.469-6.745
	c-28.185,17.073-59.92,27.389-92.737,30.27V40.845C385.236,50.5,472,143.3,472,256c0,42.589-12.665,84.044-36.626,119.885
	c-6.14,9.183-3.672,21.603,5.51,27.742c9.185,6.141,21.604,3.671,27.742-5.511C497.002,355.674,512,306.531,512,256
	C512,187.62,485.371,123.333,437.02,74.98z M117.762,421.835L235,304.597v57.99l-82.791,82.791
	C139.956,438.636,128.425,430.739,117.762,421.835z M66.468,359.516L235,190.994v57.034L89.535,393.493
	C80.818,382.959,73.086,371.584,66.468,359.516z M235,419.156v51.82c-14.863-1.441-29.292-4.384-43.126-8.694L235,419.156z
	 M235,134.427L49.619,319.797c-4.593-14.828-7.624-30.335-8.91-46.327L235,79.19V134.427z M213.393,44.229L44.231,213.381
	C61.307,128.399,128.41,61.3,213.393,44.229z"/>
<g>
</g>
<g>
</g>
<g>
</g>
<g>
</g>
<g>
</g>
<g>
</g>
<g>
</g>
<g>
</g>
<g>
</g>
<g>
</g>
<g>
</g>
<g>
</g>
<g>
</g>
<g>
</g>
<g>
</g>
</svg>
