<?xml version="1.0" encoding="iso-8859-1"?>
<!-- Generator: Adobe Illustrator 19.0.0, SVG Export Plug-In . SVG Version: 6.00 Build 0)  -->
<svg version="1.1" id="Capa_1" xmlns="http://www.w3.org/2000/svg" xmlns:xlink="http://www.w3.org/1999/xlink" x="0px" y="0px"
	 viewBox="0 0 512 512" style="enable-background:new 0 0 512 512;" xml:space="preserve">
<linearGradient id="SVGID_1_" gradientUnits="userSpaceOnUse" x1="0.0024" y1="257.9969" x2="512.0024" y2="257.9969" gradientTransform="matrix(1 0 0 -1 -3.855228e-004 513.9949)">
	<stop  offset="0" style="stop-color:#00F2FE"/>
	<stop  offset="0.021" style="stop-color:#03EFFE"/>
	<stop  offset="0.293" style="stop-color:#24D2FE"/>
	<stop  offset="0.554" style="stop-color:#3CBDFE"/>
	<stop  offset="0.796" style="stop-color:#4AB0FE"/>
	<stop  offset="1" style="stop-color:#4FACFE"/>
</linearGradient>
<path style="fill:url(#SVGID_1_);" d="M437.018,74.979C388.666,26.629,324.379,0,256,0c-2.443,0-4.88,0.043-7.313,0.111
	c-1.814-0.183-3.626-0.108-5.396,0.197c-63.606,3.089-122.964,29.328-168.31,74.671C26.631,123.332,0.002,187.619,0.002,255.998
	s26.629,132.666,74.979,181.019c45.324,45.323,104.647,71.558,168.22,74.667c1.146,0.203,2.311,0.316,3.483,0.316
	c0.685,0,1.371-0.042,2.057-0.113c2.415,0.067,4.833,0.109,7.259,0.109c46.812,0,92.615-12.757,132.461-36.893
	c9.447-5.723,12.467-18.021,6.744-27.468c-5.724-9.449-18.021-12.467-27.469-6.745c-17.027,10.314-35.351,18.158-54.424,23.392
	c4.224-4.379,8.509-9.094,12.791-14.155c31.431-37.157,68.895-100.998,68.895-194.129S357.533,99.025,326.102,61.869
	c-4.273-5.051-8.55-9.758-12.766-14.13c91.361,25.184,158.662,109.004,158.662,208.259c0,42.589-12.665,84.043-36.626,119.884
	c-6.14,9.183-3.672,21.603,5.51,27.742c9.185,6.141,21.604,3.671,27.742-5.511c28.376-42.442,43.374-91.584,43.374-142.115
	C511.998,187.619,485.369,123.332,437.018,74.979z M333.706,149.319L89.536,393.49c-8.716-10.534-16.449-21.908-23.067-33.977
	l247.278-247.267C320.953,123.265,327.765,135.604,333.706,149.319z M320.258,389.545l-81.741,81.741
	c-16.105-1.296-31.72-4.358-46.644-9.007l159.436-159.436C346.21,334.15,335.827,363.121,320.258,389.545z M354.705,242.879
	L152.21,445.374c-12.253-6.742-23.784-14.639-34.447-23.543l229.993-229.993C351.443,207.517,353.904,224.509,354.705,242.879z
	 M49.621,319.794c-4.593-14.828-7.624-30.334-8.91-46.326L260.534,53.658c8.374,6.674,18.296,15.536,28.509,26.726L49.621,319.794z
	 M213.393,44.229L44.233,213.379C61.309,128.398,128.411,61.3,213.393,44.229z"/>
<g>
</g>
<g>
</g>
<g>
</g>
<g>
</g>
<g>
</g>
<g>
</g>
<g>
</g>
<g>
</g>
<g>
</g>
<g>
</g>
<g>
</g>
<g>
</g>
<g>
</g>
<g>
</g>
<g>
</g>
</svg>
