<?xml version="1.0" encoding="iso-8859-1"?>
<!-- Generator: Adobe Illustrator 19.0.0, SVG Export Plug-In . SVG Version: 6.00 Build 0)  -->
<svg version="1.1" id="Capa_1" xmlns="http://www.w3.org/2000/svg" xmlns:xlink="http://www.w3.org/1999/xlink" x="0px" y="0px"
	 viewBox="0 0 512 512" style="enable-background:new 0 0 512 512;" xml:space="preserve">
<linearGradient id="SVGID_1_" gradientUnits="userSpaceOnUse" x1="0" y1="258" x2="512" y2="258" gradientTransform="matrix(1 0 0 -1 0 514)">
	<stop  offset="0" style="stop-color:#00F2FE"/>
	<stop  offset="0.021" style="stop-color:#03EFFE"/>
	<stop  offset="0.293" style="stop-color:#24D2FE"/>
	<stop  offset="0.554" style="stop-color:#3CBDFE"/>
	<stop  offset="0.796" style="stop-color:#4AB0FE"/>
	<stop  offset="1" style="stop-color:#4FACFE"/>
</linearGradient>
<path style="fill:url(#SVGID_1_);" d="M437.02,74.98C388.667,26.629,324.38,0,256,0S123.333,26.629,74.98,74.98
	C26.629,123.333,0,187.62,0,256s26.629,132.667,74.98,181.02C123.333,485.371,187.62,512,256,512
	c46.812,0,92.616-12.757,132.462-36.893c9.447-5.723,12.467-18.021,6.744-27.468c-5.724-9.449-18.021-12.467-27.469-6.745
	c-21.362,12.94-44.765,21.994-69.132,26.877l169.09-169.09c-5.568,27.327-16.471,53.494-32.321,77.204
	c-6.14,9.183-3.672,21.603,5.51,27.742c9.185,6.141,21.604,3.671,27.742-5.511C497.002,355.674,512,306.531,512,256
	C512,187.62,485.371,123.333,437.02,74.98z M191.874,462.283l270.409-270.41c4.649,14.923,7.711,30.538,9.007,46.644L238.517,471.29
	C222.412,469.994,206.797,466.932,191.874,462.283z M445.378,152.209L152.209,445.378c-12.253-6.742-23.784-14.639-34.447-23.543
	l304.073-304.073C430.739,128.425,438.636,139.956,445.378,152.209z M66.468,359.516L359.523,66.472
	c12.066,6.617,23.438,14.348,33.969,23.062L89.535,393.493C80.818,382.959,73.086,371.584,66.468,359.516z M40.709,273.47
	L273.482,40.71c15.99,1.287,31.496,4.318,46.323,8.911L49.619,319.797C45.026,304.969,41.995,289.462,40.709,273.47z
	 M213.393,44.229L44.231,213.381C61.307,128.399,128.41,61.3,213.393,44.229z"/>
<g>
</g>
<g>
</g>
<g>
</g>
<g>
</g>
<g>
</g>
<g>
</g>
<g>
</g>
<g>
</g>
<g>
</g>
<g>
</g>
<g>
</g>
<g>
</g>
<g>
</g>
<g>
</g>
<g>
</g>
</svg>
