<?xml version="1.0" encoding="iso-8859-1"?>
<!-- Generator: Adobe Illustrator 19.0.0, SVG Export Plug-In . SVG Version: 6.00 Build 0)  -->
<svg version="1.1" id="Capa_1" xmlns="http://www.w3.org/2000/svg" xmlns:xlink="http://www.w3.org/1999/xlink" x="0px" y="0px"
	 viewBox="0 0 512 512" style="enable-background:new 0 0 512 512;" xml:space="preserve">
<linearGradient id="SVGID_1_" gradientUnits="userSpaceOnUse" x1="0" y1="258" x2="512" y2="258" gradientTransform="matrix(1 0 0 -1 0 514)">
	<stop  offset="0" style="stop-color:#00F2FE"/>
	<stop  offset="0.021" style="stop-color:#03EFFE"/>
	<stop  offset="0.293" style="stop-color:#24D2FE"/>
	<stop  offset="0.554" style="stop-color:#3CBDFE"/>
	<stop  offset="0.796" style="stop-color:#4AB0FE"/>
	<stop  offset="1" style="stop-color:#4FACFE"/>
</linearGradient>
<path style="fill:url(#SVGID_1_);" d="M512,244c0,25.976-8.972,51.393-25.262,71.57c-16.04,19.867-38.516,33.921-63.289,39.574
	c-4.662,1.063-8.559,1.336-11.996,1.578c-0.88,0.062-1.799,0.126-2.781,0.208c-10.996,0.916-20.679-7.251-21.602-18.259
	c-0.924-11.007,7.251-20.678,18.258-21.602c1.174-0.098,2.271-0.176,3.321-0.25c2.876-0.202,4.328-0.315,5.907-0.675
	C448.376,308.428,472,278.76,472,244c0-27.458-15.088-52.523-39.376-65.414C426.087,175.117,422,168.321,422,160.92v-24.598
	C422,83.21,378.79,40,325.678,40c-47.067,0-87.985,35.007-95.178,81.431c-1.188,7.666-6.701,13.953-14.146,16.132
	c-7.446,2.18-15.479-0.144-20.612-5.959C186.427,121.052,173.035,115,159,115c-27.019,0-49,21.981-49,49v36c0,11.046-8.954,20-20,20
	h-0.154C62.36,220,40,241.981,40,269c0,27.477,21.084,49,48,49h18c11.046,0,20,8.954,20,20s-8.954,20-20,20H88
	c-23.866,0-46.119-9.313-62.66-26.225C8.999,315.067,0,292.774,0,269c0-42.32,29.978-77.837,70-86.812V164c0-49.075,39.925-89,89-89
	c14.217,0,28.067,3.414,40.47,9.751c8.067-19.71,20.729-37.445,37.093-51.591C261.297,11.776,292.945,0,325.678,0
	C400.846,0,462,61.154,462,136.322v13.324C493.119,170.737,512,205.868,512,244z M336,400c-11.046,0-20,8.954-20,20s8.954,20,20,20
	s20-8.954,20-20S347.046,400,336,400z M336,472c-11.046,0-20,8.954-20,20s8.954,20,20,20s20-8.954,20-20S347.046,472,336,472z
	 M336,330c-11.046,0-20,8.954-20,20s8.954,20,20,20s20-8.954,20-20S347.046,330,336,330z M256,472c-11.046,0-20,8.954-20,20
	s8.954,20,20,20c11.046,0,20-8.954,20-20S267.046,472,256,472z M256,402c-11.046,0-20,8.954-20,20s8.954,20,20,20
	c11.046,0,20-8.954,20-20S267.046,402,256,402z M176,400c-11.046,0-20,8.954-20,20s8.954,20,20,20s20-8.954,20-20
	S187.046,400,176,400z M176,472c-11.046,0-20,8.954-20,20s8.954,20,20,20s20-8.954,20-20S187.046,472,176,472z M176,330
	c-11.046,0-20,8.954-20,20s8.954,20,20,20s20-8.954,20-20S187.046,330,176,330z M309.355,270.779L294.85,262l14.505-8.779
	c9.45-5.72,12.474-18.017,6.755-27.466c-5.72-9.45-18.018-12.472-27.466-6.754L276,226.653V212c0-11.046-8.954-20-20-20
	s-20,8.954-20,20v14.381L223.805,219c-9.447-5.718-21.746-2.695-27.466,6.754c-5.719,9.45-2.695,21.747,6.755,27.466l14.505,8.78
	l-14.505,8.779c-9.45,5.72-12.474,18.017-6.755,27.466c3.76,6.212,10.361,9.647,17.129,9.647c3.527,0,7.1-0.934,10.337-2.893
	l12.195-7.38V312c0,11.046,8.954,20,20,20c11.046,0,20-8.954,20-20v-14.653L288.645,305c3.237,1.959,6.81,2.893,10.337,2.893
	c6.767,0,13.369-3.436,17.129-9.647C321.829,288.796,318.806,276.499,309.355,270.779z"/>
<g>
</g>
<g>
</g>
<g>
</g>
<g>
</g>
<g>
</g>
<g>
</g>
<g>
</g>
<g>
</g>
<g>
</g>
<g>
</g>
<g>
</g>
<g>
</g>
<g>
</g>
<g>
</g>
<g>
</g>
</svg>
