<?xml version="1.0" encoding="iso-8859-1"?>
<!-- Generator: Adobe Illustrator 19.0.0, SVG Export Plug-In . SVG Version: 6.00 Build 0)  -->
<svg version="1.1" id="Capa_1" xmlns="http://www.w3.org/2000/svg" xmlns:xlink="http://www.w3.org/1999/xlink" x="0px" y="0px"
	 viewBox="0 0 512 512" style="enable-background:new 0 0 512 512;" xml:space="preserve">
<linearGradient id="SVGID_1_" gradientUnits="userSpaceOnUse" x1="0" y1="258" x2="512" y2="258" gradientTransform="matrix(1 0 0 -1 0 514)">
	<stop  offset="0" style="stop-color:#00F2FE"/>
	<stop  offset="0.021" style="stop-color:#03EFFE"/>
	<stop  offset="0.293" style="stop-color:#24D2FE"/>
	<stop  offset="0.554" style="stop-color:#3CBDFE"/>
	<stop  offset="0.796" style="stop-color:#4AB0FE"/>
	<stop  offset="1" style="stop-color:#4FACFE"/>
</linearGradient>
<path style="fill:url(#SVGID_1_);" d="M433,332c0,11.046-8.954,20-20,20H101c-11.046,0-20-8.954-20-20s8.954-20,20-20h312
	C424.046,312,433,320.954,433,332z M373,392H141c-11.046,0-20,8.954-20,20s8.954,20,20,20h232c11.046,0,20-8.954,20-20
	S384.046,392,373,392z M333,472H181c-11.046,0-20,8.954-20,20s8.954,20,20,20h152c11.046,0,20-8.954,20-20S344.046,472,333,472z
	 M492,232h-81.774c-5.127-33.292-20.871-63.943-45.41-87.81C335.517,115.694,296.872,100,256,100
	c-40.87,0-79.507,15.695-108.791,44.194c-24.521,23.863-40.248,54.514-45.372,87.806H20c-11.046,0-20,8.954-20,20
	c0,11.046,8.954,20,20,20h272c11.046,0,20-8.954,20-20s-8.954-20-20-20H142.448C153.4,179.028,199.859,140,256,140
	c63.228,0,114.185,49.45,116.008,112.578C372.32,263.394,381.179,272,392,272h100c11.046,0,20-8.954,20-20S503.046,232,492,232z
	 M256,60c11.046,0,20-8.954,20-20V20c0-11.046-8.954-20-20-20s-20,8.954-20,20v20C236,51.046,244.954,60,256,60z M443.08,168.003
	c3.393,0,6.832-0.865,9.981-2.683l17.32-10c9.565-5.523,12.844-17.754,7.32-27.32c-5.522-9.566-17.755-12.844-27.32-7.32l-17.32,10
	c-9.565,5.523-12.844,17.754-7.32,27.32C429.445,164.417,436.168,168.003,443.08,168.003z M358.333,88.836
	c3.259,1.995,6.863,2.945,10.424,2.945c6.731,0,13.304-3.399,17.076-9.561l10.442-17.058c5.767-9.421,2.806-21.733-6.615-27.5
	c-9.419-5.767-21.732-2.806-27.5,6.615l-10.442,17.058C345.951,70.757,348.912,83.069,358.333,88.836z M130.667,78.947
	c3.705,6.416,10.427,10.002,17.339,10.002c3.394,0,6.833-0.865,9.982-2.684c9.565-5.523,12.843-17.755,7.319-27.321l-10.001-17.32
	c-5.523-9.566-17.756-12.842-27.321-7.319s-12.843,17.755-7.319,27.321L130.667,78.947z M44.164,150.069l17.068,10.424
	c3.254,1.987,6.852,2.934,10.405,2.934c6.739,0,13.317-3.406,17.087-9.579c5.758-9.427,2.782-21.735-6.645-27.493l-17.068-10.424
	c-9.426-5.756-21.735-2.783-27.492,6.645C31.762,132.003,34.737,144.312,44.164,150.069z"/>
<g>
</g>
<g>
</g>
<g>
</g>
<g>
</g>
<g>
</g>
<g>
</g>
<g>
</g>
<g>
</g>
<g>
</g>
<g>
</g>
<g>
</g>
<g>
</g>
<g>
</g>
<g>
</g>
<g>
</g>
</svg>
