<?xml version="1.0" encoding="iso-8859-1"?>
<!-- Generator: Adobe Illustrator 19.0.0, SVG Export Plug-In . SVG Version: 6.00 Build 0)  -->
<svg version="1.1" id="Capa_1" xmlns="http://www.w3.org/2000/svg" xmlns:xlink="http://www.w3.org/1999/xlink" x="0px" y="0px"
	 viewBox="0 0 512.001 512.001" style="enable-background:new 0 0 512.001 512.001;" xml:space="preserve">
<linearGradient id="SVGID_1_" gradientUnits="userSpaceOnUse" x1="5.724466e-004" y1="257.9957" x2="512.0072" y2="257.9957" gradientTransform="matrix(1 0 0 -1 -5.724399e-004 513.993)">
	<stop  offset="0" style="stop-color:#00F2FE"/>
	<stop  offset="0.021" style="stop-color:#03EFFE"/>
	<stop  offset="0.293" style="stop-color:#24D2FE"/>
	<stop  offset="0.554" style="stop-color:#3CBDFE"/>
	<stop  offset="0.796" style="stop-color:#4AB0FE"/>
	<stop  offset="1" style="stop-color:#4FACFE"/>
</linearGradient>
<path style="fill:url(#SVGID_1_);" d="M237.001,276V20.003c0-11.046,8.954-20,20-20c11.046,0,20,8.954,20,20V276
	c0,11.046-8.954,20-20,20C245.954,296,237.001,287.046,237.001,276z M491.997,471.998h-81.275
	c-9.844-76.61-75.477-135.998-154.722-135.998c-79.242,0-144.873,59.391-154.72,135.998H20.003c-11.046,0-20,8.954-20,20
	c0,11.046,8.954,20,20,20H291c11.046,0,20-8.954,20-20c0-11.046-8.954-20-20-20H141.733c9.505-54.464,57.125-95.999,114.268-95.999
	c63.961,0,115.999,52.037,115.999,115.999c0,11.046,8.954,20,20,20h99.999c11.046,0,20-8.954,20-20
	C511.997,480.952,503.043,471.998,491.997,471.998z M481.138,336.205l-47.937,31c-9.275,5.998-11.932,18.379-5.934,27.655
	c3.828,5.919,10.253,9.142,16.813,9.142c3.721,0,7.485-1.038,10.842-3.208l47.937-31c9.275-5.998,11.932-18.379,5.934-27.655
	C502.793,332.863,490.411,330.207,481.138,336.205z M359.524,324.952c3.212,1.917,6.744,2.829,10.231,2.829
	c6.81,0,13.449-3.48,17.193-9.752l122.224-204.777c5.661-9.484,2.561-21.763-6.923-27.424c-9.485-5.66-21.763-2.56-27.424,6.923
	L352.601,297.528C346.94,307.013,350.04,319.291,359.524,324.952z M9.704,371.143l49.937,30c3.224,1.937,6.774,2.859,10.28,2.859
	c6.79,0,13.412-3.459,17.163-9.704c5.688-9.469,2.624-21.755-6.845-27.443l-49.937-30c-9.468-5.688-21.756-2.624-27.443,6.845
	C-2.83,353.168,0.235,365.455,9.704,371.143z M127.127,318.151c3.762,6.202,10.358,9.63,17.119,9.63
	c3.534,0,7.112-0.937,10.354-2.903c9.444-5.729,12.456-18.029,6.727-27.473L37.103,92.629c-5.728-9.444-18.028-12.455-27.473-6.727
	c-9.444,5.729-12.456,18.029-6.727,27.473L127.127,318.151z"/>
<g>
</g>
<g>
</g>
<g>
</g>
<g>
</g>
<g>
</g>
<g>
</g>
<g>
</g>
<g>
</g>
<g>
</g>
<g>
</g>
<g>
</g>
<g>
</g>
<g>
</g>
<g>
</g>
<g>
</g>
</svg>
