<?xml version="1.0" encoding="iso-8859-1"?>
<!-- Generator: Adobe Illustrator 19.0.0, SVG Export Plug-In . SVG Version: 6.00 Build 0)  -->
<svg version="1.1" id="Capa_1" xmlns="http://www.w3.org/2000/svg" xmlns:xlink="http://www.w3.org/1999/xlink" x="0px" y="0px"
	 viewBox="0 0 512 512" style="enable-background:new 0 0 512 512;" xml:space="preserve">
<linearGradient id="SVGID_1_" gradientUnits="userSpaceOnUse" x1="0" y1="258" x2="512" y2="258" gradientTransform="matrix(1 0 0 -1 0 514)">
	<stop  offset="0" style="stop-color:#00F2FE"/>
	<stop  offset="0.021" style="stop-color:#03EFFE"/>
	<stop  offset="0.293" style="stop-color:#24D2FE"/>
	<stop  offset="0.554" style="stop-color:#3CBDFE"/>
	<stop  offset="0.796" style="stop-color:#4AB0FE"/>
	<stop  offset="1" style="stop-color:#4FACFE"/>
</linearGradient>
<path style="fill:url(#SVGID_1_);" d="M512,372v40c-20.464,0-40.453-11.508-59.411-34.206C451.65,376.671,449.935,376,448,376
	s-3.65,0.671-4.589,1.794C424.453,400.492,404.464,412,384,412s-40.453-11.508-59.411-34.206C323.65,376.671,321.935,376,320,376
	s-3.65,0.671-4.589,1.794C296.453,400.492,276.464,412,256,412s-40.453-11.508-59.411-34.206C195.65,376.671,193.935,376,192,376
	s-3.65,0.671-4.589,1.794C168.453,400.492,148.464,412,128,412s-40.453-11.508-59.411-34.206C67.65,376.671,65.935,376,64,376
	s-3.65,0.671-4.589,1.794C40.453,400.492,20.464,412,0,412v-40c7.711,0,18.176-7.234,28.712-19.848
	C37.286,341.887,50.148,336,64,336s26.714,5.887,35.288,16.152C109.824,364.766,120.289,372,128,372s18.176-7.234,28.712-19.848
	C165.286,341.887,178.148,336,192,336s26.714,5.887,35.288,16.152C237.824,364.766,248.289,372,256,372s18.176-7.234,28.712-19.848
	C293.286,341.887,306.148,336,320,336s26.714,5.887,35.288,16.152C365.824,364.766,376.289,372,384,372s18.176-7.234,28.712-19.848
	C421.286,341.887,434.148,336,448,336s26.714,5.887,35.288,16.152C493.824,364.766,504.289,372,512,372z M483.288,452.152
	C474.714,441.887,461.852,436,448,436s-26.714,5.887-35.288,16.152C402.176,464.766,391.711,472,384,472
	s-18.176-7.234-28.712-19.848C346.714,441.887,333.852,436,320,436s-26.714,5.887-35.288,16.152
	C274.176,464.766,263.711,472,256,472s-18.176-7.234-28.712-19.848C218.714,441.887,205.852,436,192,436
	s-26.714,5.887-35.288,16.152C146.176,464.766,135.711,472,128,472s-18.176-7.234-28.712-19.848C90.714,441.887,77.852,436,64,436
	s-26.714,5.887-35.288,16.152C18.176,464.766,7.711,472,0,472v40c20.464,0,40.453-11.508,59.411-34.206
	C60.35,476.671,62.065,476,64,476c1.935,0,3.65,0.671,4.589,1.794C87.547,500.492,107.536,512,128,512s40.453-11.508,59.411-34.206
	C188.35,476.671,190.065,476,192,476s3.65,0.671,4.589,1.794C215.547,500.492,235.536,512,256,512s40.453-11.508,59.411-34.206
	C316.35,476.671,318.065,476,320,476s3.65,0.671,4.589,1.794C343.547,500.492,363.536,512,384,512s40.453-11.508,59.411-34.206
	C444.35,476.671,446.065,476,448,476s3.65,0.671,4.589,1.794C471.547,500.492,491.536,512,512,512v-40
	C504.289,472,493.824,464.766,483.288,452.152z M214.376,279.426c11.333,11.333,26.4,17.574,42.427,17.574
	c16.026,0,31.094-6.241,42.469-17.617l60.913-61.284c7.787-7.834,7.748-20.498-0.086-28.284c-7.834-7.786-20.498-7.748-28.284,0.086
	L276,246.056V20c0-11.046-8.954-20-20-20s-20,8.954-20,20v224.507l-54.885-54.676c-7.826-7.796-20.489-7.772-28.284,0.054
	c-7.796,7.825-7.771,20.489,0.054,28.284L214.376,279.426z"/>
<g>
</g>
<g>
</g>
<g>
</g>
<g>
</g>
<g>
</g>
<g>
</g>
<g>
</g>
<g>
</g>
<g>
</g>
<g>
</g>
<g>
</g>
<g>
</g>
<g>
</g>
<g>
</g>
<g>
</g>
</svg>
