<?xml version="1.0" encoding="iso-8859-1"?>
<!-- Generator: Adobe Illustrator 19.0.0, SVG Export Plug-In . SVG Version: 6.00 Build 0)  -->
<svg version="1.1" id="Capa_1" xmlns="http://www.w3.org/2000/svg" xmlns:xlink="http://www.w3.org/1999/xlink" x="0px" y="0px"
	 viewBox="0 0 512 512" style="enable-background:new 0 0 512 512;" xml:space="preserve">
<linearGradient id="SVGID_1_" gradientUnits="userSpaceOnUse" x1="0" y1="258" x2="512" y2="258" gradientTransform="matrix(1 0 0 -1 0 514)">
	<stop  offset="0" style="stop-color:#00F2FE"/>
	<stop  offset="0.021" style="stop-color:#03EFFE"/>
	<stop  offset="0.293" style="stop-color:#24D2FE"/>
	<stop  offset="0.554" style="stop-color:#3CBDFE"/>
	<stop  offset="0.796" style="stop-color:#4AB0FE"/>
	<stop  offset="1" style="stop-color:#4FACFE"/>
</linearGradient>
<path style="fill:url(#SVGID_1_);" d="M76.023,356.967c-1.147,0-2.311-0.099-3.48-0.305C30.509,349.286,0,312.419,0,269
	c0-42.32,29.978-77.837,70-86.812V164c0-49.075,39.925-89,89-89c14.217,0,28.068,3.414,40.47,9.751
	c8.067-19.71,20.729-37.444,37.093-51.591C261.297,11.776,292.945,0,325.678,0C400.846,0,462,61.154,462,136.322v13.324
	c31.119,21.09,50,56.221,50,94.354c0,40.57-21.835,78.403-56.985,98.736c-1.962,1.135-3.983,2.225-6.008,3.239
	c-9.876,4.949-21.893,0.953-26.84-8.922s-0.953-21.893,8.922-26.84c1.313-0.658,2.624-1.364,3.896-2.101
	C457.817,294.905,472,270.339,472,244c0-27.458-15.088-52.523-39.376-65.414C426.087,175.117,422,168.321,422,160.92v-24.598
	C422,83.21,378.79,40,325.678,40c-47.068,0-87.985,35.007-95.178,81.431c-1.188,7.666-6.701,13.953-14.146,16.132
	c-7.444,2.177-15.479-0.144-20.612-5.959C186.427,121.052,173.036,115,159,115c-27.019,0-49,21.981-49,49v36
	c0,11.046-8.954,20-20,20h-0.154C62.361,220,40,241.981,40,269c0,23.954,16.594,44.252,39.457,48.264
	c10.88,1.909,18.151,12.276,16.243,23.156C93.995,350.13,85.554,356.967,76.023,356.967z M152.556,424.19l30-140
	c2.314-10.8-4.565-21.432-15.366-23.747s-21.432,4.565-23.747,15.366l-30,140c-2.314,10.8,4.565,21.432,15.366,23.747
	c1.413,0.303,2.821,0.448,4.21,0.448C142.248,440.004,150.544,433.579,152.556,424.19z M223.556,424.19l30-140
	c2.314-10.8-4.565-21.432-15.366-23.747c-10.8-2.315-21.432,4.565-23.747,15.366l-30,140c-2.314,10.8,4.565,21.432,15.366,23.747
	c1.413,0.303,2.821,0.448,4.21,0.448C213.248,440.004,221.544,433.579,223.556,424.19z M294.556,424.19l30-140
	c2.314-10.8-4.565-21.432-15.366-23.747c-10.802-2.315-21.433,4.565-23.747,15.366l-30,140c-2.314,10.8,4.565,21.432,15.366,23.747
	c1.413,0.303,2.821,0.448,4.21,0.448C284.248,440.004,292.544,433.579,294.556,424.19z M365.556,424.19l30-140
	c2.314-10.8-4.565-21.432-15.366-23.747c-10.8-2.315-21.432,4.565-23.747,15.366l-30,140c-2.314,10.8,4.565,21.432,15.366,23.747
	c1.413,0.303,2.821,0.448,4.21,0.448C355.248,440.004,363.544,433.579,365.556,424.19z M240,492c0,11.046,8.954,20,20,20
	c11.046,0,20-8.954,20-20s-8.954-20-20-20C248.954,472,240,480.954,240,492z M169,492c0,11.046,8.954,20,20,20s20-8.954,20-20
	s-8.954-20-20-20S169,480.954,169,492z M99,492c0,11.046,8.954,20,20,20s20-8.954,20-20s-8.954-20-20-20S99,480.954,99,492z
	 M311,492c0,11.046,8.954,20,20,20s20-8.954,20-20s-8.954-20-20-20S311,480.954,311,492z"/>
<g>
</g>
<g>
</g>
<g>
</g>
<g>
</g>
<g>
</g>
<g>
</g>
<g>
</g>
<g>
</g>
<g>
</g>
<g>
</g>
<g>
</g>
<g>
</g>
<g>
</g>
<g>
</g>
<g>
</g>
</svg>
