<?xml version="1.0" encoding="iso-8859-1"?>
<!-- Generator: Adobe Illustrator 19.0.0, SVG Export Plug-In . SVG Version: 6.00 Build 0)  -->
<svg version="1.1" id="Capa_1" xmlns="http://www.w3.org/2000/svg" xmlns:xlink="http://www.w3.org/1999/xlink" x="0px" y="0px"
	 viewBox="0 0 512 512" style="enable-background:new 0 0 512 512;" xml:space="preserve">
<linearGradient id="SVGID_1_" gradientUnits="userSpaceOnUse" x1="0" y1="258" x2="512" y2="258" gradientTransform="matrix(1 0 0 -1 0 514)">
	<stop  offset="0" style="stop-color:#00F2FE"/>
	<stop  offset="0.021" style="stop-color:#03EFFE"/>
	<stop  offset="0.293" style="stop-color:#24D2FE"/>
	<stop  offset="0.554" style="stop-color:#3CBDFE"/>
	<stop  offset="0.796" style="stop-color:#4AB0FE"/>
	<stop  offset="1" style="stop-color:#4FACFE"/>
</linearGradient>
<path style="fill:url(#SVGID_1_);" d="M512,271v40c-20.464,0-40.453-11.508-59.411-34.206C451.65,275.67,449.935,275,448,275
	s-3.65,0.67-4.589,1.794C424.453,299.492,404.464,311,384,311s-40.453-11.508-59.411-34.206C323.65,275.67,321.935,275,320,275
	s-3.65,0.67-4.589,1.794C296.453,299.492,276.464,311,256,311s-40.453-11.508-59.411-34.206C195.65,275.67,193.935,275,192,275
	s-3.65,0.67-4.589,1.794C168.453,299.492,148.464,311,128,311s-40.453-11.508-59.411-34.206C67.65,275.67,65.935,275,64,275
	s-3.65,0.67-4.589,1.794C40.453,299.492,20.464,311,0,311v-40c7.711,0,18.176-7.234,28.712-19.848C37.285,240.887,50.147,235,64,235
	s26.715,5.887,35.288,16.152C109.824,263.766,120.289,271,128,271s18.176-7.234,28.712-19.848C165.285,240.887,178.147,235,192,235
	s26.715,5.887,35.288,16.152C237.824,263.766,248.289,271,256,271s18.176-7.234,28.712-19.848C293.285,240.887,306.147,235,320,235
	s26.715,5.887,35.288,16.152C365.824,263.766,376.289,271,384,271s18.176-7.234,28.712-19.848C421.285,240.887,434.147,235,448,235
	s26.715,5.887,35.288,16.152C493.824,263.766,504.289,271,512,271z M483.288,352.152C474.715,341.887,461.853,336,448,336
	s-26.715,5.887-35.288,16.152C402.176,364.766,391.711,372,384,372s-18.176-7.234-28.712-19.848
	C346.715,341.887,333.853,336,320,336s-26.715,5.887-35.288,16.152C274.176,364.766,263.711,372,256,372
	s-18.176-7.234-28.712-19.848C218.715,341.887,205.853,336,192,336s-26.715,5.887-35.288,16.152
	C146.176,364.766,135.711,372,128,372s-18.176-7.234-28.712-19.848C90.715,341.887,77.853,336,64,336s-26.715,5.887-35.288,16.152
	C18.176,364.766,7.711,372,0,372v40c20.464,0,40.453-11.508,59.411-34.206C60.35,376.67,62.065,376,64,376
	c1.935,0,3.65,0.67,4.589,1.794C87.547,400.492,107.536,412,128,412s40.453-11.508,59.411-34.206C188.35,376.67,190.065,376,192,376
	s3.65,0.67,4.589,1.794C215.547,400.492,235.536,412,256,412s40.453-11.508,59.411-34.206C316.35,376.67,318.065,376,320,376
	s3.65,0.67,4.589,1.794C343.547,400.492,363.536,412,384,412s40.453-11.508,59.411-34.206C444.35,376.67,446.065,376,448,376
	s3.65,0.67,4.589,1.794C471.547,400.492,491.536,412,512,412v-40C504.289,372,493.824,364.766,483.288,352.152z M483.288,452.152
	C474.715,441.887,461.853,436,448,436s-26.715,5.887-35.288,16.152C402.176,464.766,391.711,472,384,472
	s-18.176-7.234-28.712-19.848C346.715,441.887,333.853,436,320,436s-26.715,5.887-35.288,16.152
	C274.176,464.766,263.711,472,256,472s-18.176-7.234-28.712-19.848C218.715,441.887,205.853,436,192,436
	s-26.715,5.887-35.288,16.152C146.176,464.766,135.711,472,128,472s-18.176-7.234-28.712-19.848C90.715,441.887,77.853,436,64,436
	s-26.715,5.887-35.288,16.152C18.176,464.766,7.711,472,0,472v40c20.464,0,40.453-11.508,59.411-34.206
	C60.35,476.67,62.065,476,64,476c1.935,0,3.65,0.67,4.589,1.794C87.547,500.492,107.536,512,128,512s40.453-11.508,59.411-34.206
	C188.35,476.67,190.065,476,192,476s3.65,0.67,4.589,1.794C215.547,500.492,235.536,512,256,512s40.453-11.508,59.411-34.206
	C316.35,476.67,318.065,476,320,476s3.65,0.67,4.589,1.794C343.547,500.492,363.536,512,384,512s40.453-11.508,59.411-34.206
	C444.35,476.67,446.065,476,448,476s3.65,0.67,4.589,1.794C471.547,500.492,491.536,512,512,512v-40
	C504.289,472,493.824,464.766,483.288,452.152z M167,113c5.105,0,10.213-1.943,14.115-5.831L236,52.494V176c0,11.046,8.954,20,20,20
	c11.046,0,20-8.954,20-20V50.944l55.815,56.155c7.785,7.835,20.45,7.871,28.284,0.086c7.834-7.787,7.872-20.45,0.085-28.284
	l-60.955-61.327C287.896,6.241,272.829,0,256.803,0s-31.094,6.241-42.399,17.547l-61.519,61.284
	c-7.825,7.795-7.85,20.458-0.054,28.284C156.738,111.038,161.868,113,167,113z"/>
<g>
</g>
<g>
</g>
<g>
</g>
<g>
</g>
<g>
</g>
<g>
</g>
<g>
</g>
<g>
</g>
<g>
</g>
<g>
</g>
<g>
</g>
<g>
</g>
<g>
</g>
<g>
</g>
<g>
</g>
</svg>
