<?xml version="1.0" encoding="iso-8859-1"?>
<!-- Generator: Adobe Illustrator 19.0.0, SVG Export Plug-In . SVG Version: 6.00 Build 0)  -->
<svg version="1.1" id="Capa_1" xmlns="http://www.w3.org/2000/svg" xmlns:xlink="http://www.w3.org/1999/xlink" x="0px" y="0px"
	 viewBox="0 0 512 512" style="enable-background:new 0 0 512 512;" xml:space="preserve">
<linearGradient id="SVGID_1_" gradientUnits="userSpaceOnUse" x1="0" y1="258" x2="512" y2="258" gradientTransform="matrix(1 0 0 -1 0 514)">
	<stop  offset="0" style="stop-color:#00F2FE"/>
	<stop  offset="0.021" style="stop-color:#03EFFE"/>
	<stop  offset="0.293" style="stop-color:#24D2FE"/>
	<stop  offset="0.554" style="stop-color:#3CBDFE"/>
	<stop  offset="0.796" style="stop-color:#4AB0FE"/>
	<stop  offset="1" style="stop-color:#4FACFE"/>
</linearGradient>
<path style="fill:url(#SVGID_1_);" d="M76.023,356.967c-1.147,0-2.311-0.099-3.48-0.305C30.509,349.286,0,312.419,0,269
	c0-42.32,29.978-77.837,70-86.812V164c0-49.075,39.925-89,89-89c14.217,0,28.067,3.414,40.47,9.751
	c8.067-19.71,20.729-37.445,37.093-51.591C261.297,11.776,292.945,0,325.678,0C400.846,0,462,61.154,462,136.322v13.324
	c31.119,21.091,50,56.222,50,94.354c0,40.57-21.836,78.403-56.985,98.736c-1.963,1.135-3.983,2.224-6.006,3.238
	c-9.876,4.947-21.893,0.956-26.841-8.919c-4.949-9.875-0.956-21.892,8.919-26.841c1.313-0.658,2.626-1.366,3.9-2.103
	C457.816,294.905,472,270.339,472,244c0-27.458-15.088-52.523-39.376-65.414C426.087,175.117,422,168.321,422,160.92v-24.598
	C422,83.21,378.79,40,325.678,40c-47.067,0-87.985,35.007-95.178,81.431c-1.188,7.666-6.701,13.953-14.146,16.132
	c-7.446,2.179-15.479-0.144-20.612-5.959C186.427,121.052,173.035,115,159,115c-27.019,0-49,21.981-49,49v36
	c0,11.046-8.954,20-20,20h-0.154C62.36,220,40,241.981,40,269c0,23.954,16.594,44.252,39.457,48.264
	c10.879,1.909,18.151,12.276,16.242,23.156C93.995,350.13,85.554,356.967,76.023,356.967z M174,349v-69c0-11.046-8.954-20-20-20
	s-20,8.954-20,20v69c0,11.046,8.954,20,20,20S174,360.046,174,349z M174,492v-71c0-11.046-8.954-20-20-20s-20,8.954-20,20v71
	c0,11.046,8.954,20,20,20S174,503.046,174,492z M246,349v-69c0-11.046-8.954-20-20-20s-20,8.954-20,20v69c0,11.046,8.954,20,20,20
	S246,360.046,246,349z M246,492v-71c0-11.046-8.954-20-20-20s-20,8.954-20,20v71c0,11.046,8.954,20,20,20S246,503.046,246,492z
	 M316,349v-69c0-11.046-8.954-20-20-20s-20,8.954-20,20v69c0,11.046,8.954,20,20,20S316,360.046,316,349z M316,492v-71
	c0-11.046-8.954-20-20-20s-20,8.954-20,20v71c0,11.046,8.954,20,20,20S316,503.046,316,492z M386,349v-69c0-11.046-8.954-20-20-20
	s-20,8.954-20,20v69c0,11.046,8.954,20,20,20S386,360.046,386,349z M386,492v-71c0-11.046-8.954-20-20-20s-20,8.954-20,20v71
	c0,11.046,8.954,20,20,20S386,503.046,386,492z"/>
<g>
</g>
<g>
</g>
<g>
</g>
<g>
</g>
<g>
</g>
<g>
</g>
<g>
</g>
<g>
</g>
<g>
</g>
<g>
</g>
<g>
</g>
<g>
</g>
<g>
</g>
<g>
</g>
<g>
</g>
</svg>
