<?xml version="1.0" encoding="iso-8859-1"?>
<!-- Generator: Adobe Illustrator 19.0.0, SVG Export Plug-In . SVG Version: 6.00 Build 0)  -->
<svg version="1.1" id="Capa_1" xmlns="http://www.w3.org/2000/svg" xmlns:xlink="http://www.w3.org/1999/xlink" x="0px" y="0px"
	 viewBox="0 0 512 512" style="enable-background:new 0 0 512 512;" xml:space="preserve">
<linearGradient id="SVGID_1_" gradientUnits="userSpaceOnUse" x1="0.0784" y1="257.3679" x2="512.8975" y2="257.3679" gradientTransform="matrix(0.9984 0 0 -0.9984 -0.0783 512.9569)">
	<stop  offset="0" style="stop-color:#00F2FE"/>
	<stop  offset="0.021" style="stop-color:#03EFFE"/>
	<stop  offset="0.293" style="stop-color:#24D2FE"/>
	<stop  offset="0.554" style="stop-color:#3CBDFE"/>
	<stop  offset="0.796" style="stop-color:#4AB0FE"/>
	<stop  offset="1" style="stop-color:#4FACFE"/>
</linearGradient>
<path style="fill:url(#SVGID_1_);" d="M511.018,369.202c-1.729-31.41-17.547-59.909-42.767-77.611v-10.248
	c0-66.772-54.564-121.095-121.632-121.095c-29.072,0-57.197,10.514-79.191,29.606c-13.853,12.024-24.716,26.936-31.905,43.497
	c-10.444-4.812-21.967-7.388-33.808-7.388c-11.724,0-22.855,2.557-32.896,7.11c-15.486-15.647-26.318-35.424-30.874-56.767
	c-1.372-6.426-2.054-13.136-2.026-19.944c0.126-31.679,16.583-68.867,44.024-99.475c10.27-11.455,11.604-27.861,3.323-40.826
	c-8.272-12.946-23.696-18.622-38.388-14.126c-41.055,12.57-76.608,37.322-102.819,71.584
	C15.366,108.412,0.834,150.105,0.034,194.085c-1.128,62.11,25.841,120.588,72.987,160.292
	c-7.883,12.651-12.119,27.188-12.119,42.312c0,21.347,8.085,41.37,22.766,56.379c14.87,15.204,34.871,23.575,56.32,23.575h11.769
	c11.028,0,19.968-8.94,19.968-19.968s-8.94-19.968-19.968-19.968h-11.769c-21.953,0-39.149-17.578-39.149-40.019
	c0-22.145,18.663-40.852,40.754-40.852c10.971,0,19.888-8.853,19.967-19.823c0.002-0.186,0.135-18.686,0.135-30.097
	c0-22.067,17.952-40.019,40.019-40.019c11.782,0,22.438,4.721,30.007,13.297c5.125,5.806,13.143,8.127,20.579,5.949
	c7.432-2.176,12.937-8.452,14.123-16.106c6.083-39.253,40.559-68.855,80.196-68.855c45.048,0,81.696,36.408,81.696,81.159v21.384
	c0,7.389,4.081,14.174,10.607,17.638c19.939,10.583,32.324,31.502,32.324,54.592c0,1.735,0.245,3.409,0.66,5.013
	c-1.54,22.489-14.288,42.484-33.358,51.763c-9.917,4.825-14.045,16.775-9.219,26.692c3.456,7.104,10.568,11.236,17.97,11.236
	c2.932,0,5.909-0.648,8.721-2.017C490.027,451.096,512,414.878,512,375.372C512,373.217,511.65,371.146,511.018,369.202z
	 M121.725,318.398c-6.922,1.775-13.568,4.48-19.792,8.048c-39.938-32.01-62.901-80.293-61.968-131.635
	c1.163-64.061,38.828-120.586,95.801-146.769c-17.627,23.975-39.604,62.91-39.784,108.16c-0.039,9.658,0.939,19.226,2.905,28.441
	c5.866,27.478,19.381,53.019,38.69,73.589c-9.931,13.323-15.819,29.829-15.819,47.686
	C121.758,309.612,121.743,314.069,121.725,318.398z M321.486,84.272c0-11.028,8.94-19.968,19.968-19.968s19.968,8.94,19.968,19.968
	s-8.94,19.968-19.968,19.968S321.486,95.299,321.486,84.272z M207.668,134.192c0-11.028,8.94-19.968,19.968-19.968
	s19.968,8.94,19.968,19.968c0,11.028-8.94,19.968-19.968,19.968S207.668,145.22,207.668,134.192z M451.278,157.155
	c0-11.028,8.94-19.968,19.968-19.968s19.968,8.94,19.968,19.968s-8.94,19.968-19.968,19.968S451.278,168.183,451.278,157.155z
	 M319.489,419.736c0,11.028-8.94,19.968-19.968,19.968s-19.968-8.94-19.968-19.968s8.94-19.968,19.968-19.968
	S319.489,408.707,319.489,419.736z M319.489,491.621c0,11.028-8.94,19.968-19.968,19.968s-19.968-8.94-19.968-19.968
	s8.94-19.968,19.968-19.968S319.489,480.592,319.489,491.621z M239.617,419.736c0,11.028-8.94,19.968-19.968,19.968
	s-19.968-8.94-19.968-19.968s8.94-19.968,19.968-19.968S239.617,408.707,239.617,419.736z M239.617,491.621
	c0,11.028-8.94,19.968-19.968,19.968s-19.968-8.94-19.968-19.968s8.94-19.968,19.968-19.968S239.617,480.592,239.617,491.621z
	 M399.361,419.736c0,11.028-8.94,19.968-19.968,19.968s-19.968-8.94-19.968-19.968s8.94-19.968,19.968-19.968
	S399.361,408.707,399.361,419.736z M399.361,491.621c0,11.028-8.94,19.968-19.968,19.968s-19.968-8.94-19.968-19.968
	s8.94-19.968,19.968-19.968S399.361,480.592,399.361,491.621z"/>
<g>
</g>
<g>
</g>
<g>
</g>
<g>
</g>
<g>
</g>
<g>
</g>
<g>
</g>
<g>
</g>
<g>
</g>
<g>
</g>
<g>
</g>
<g>
</g>
<g>
</g>
<g>
</g>
<g>
</g>
</svg>
