<?xml version="1.0" encoding="iso-8859-1"?>
<!-- Generator: Adobe Illustrator 19.0.0, SVG Export Plug-In . SVG Version: 6.00 Build 0)  -->
<svg version="1.1" id="Capa_1" xmlns="http://www.w3.org/2000/svg" xmlns:xlink="http://www.w3.org/1999/xlink" x="0px" y="0px"
	 viewBox="0 0 512 512" style="enable-background:new 0 0 512 512;" xml:space="preserve">
<linearGradient id="SVGID_1_" gradientUnits="userSpaceOnUse" x1="0" y1="258" x2="512" y2="258" gradientTransform="matrix(1 0 0 -1 0 514)">
	<stop  offset="0" style="stop-color:#00F2FE"/>
	<stop  offset="0.021" style="stop-color:#03EFFE"/>
	<stop  offset="0.293" style="stop-color:#24D2FE"/>
	<stop  offset="0.554" style="stop-color:#3CBDFE"/>
	<stop  offset="0.796" style="stop-color:#4AB0FE"/>
	<stop  offset="1" style="stop-color:#4FACFE"/>
</linearGradient>
<path style="fill:url(#SVGID_1_);" d="M76.023,356.967c-1.147,0-2.311-0.099-3.48-0.305C30.509,349.286,0,312.419,0,269
	c0-42.32,29.978-77.837,70-86.812V164c0-49.075,39.925-89,89-89c14.217,0,28.068,3.414,40.47,9.751
	c8.067-19.71,20.729-37.444,37.093-51.591C261.297,11.776,292.945,0,325.678,0C400.846,0,462,61.154,462,136.322v13.324
	c31.119,21.09,50,56.221,50,94.354c0,40.57-21.835,78.403-56.985,98.736c-1.962,1.135-3.983,2.225-6.008,3.239
	c-9.876,4.948-21.892,0.953-26.84-8.922s-0.953-21.893,8.922-26.84c1.313-0.658,2.624-1.364,3.896-2.101
	C457.817,294.905,472,270.339,472,244c0-27.458-15.088-52.523-39.376-65.414C426.087,175.117,422,168.321,422,160.92v-24.598
	C422,83.21,378.79,40,325.678,40c-47.068,0-87.985,35.007-95.178,81.431c-1.188,7.666-6.701,13.953-14.146,16.132
	c-7.445,2.178-15.479-0.144-20.612-5.959C186.427,121.052,173.036,115,159,115c-27.019,0-49,21.981-49,49v36
	c0,11.046-8.954,20-20,20h-0.154C62.361,220,40,241.981,40,269c0,23.954,16.594,44.252,39.457,48.264
	c10.88,1.909,18.151,12.276,16.243,23.156C93.995,350.13,85.554,356.967,76.023,356.967z M276,420c0,11.046,8.954,20,20,20
	s20-8.954,20-20s-8.954-20-20-20S276,408.954,276,420z M276,492c0,11.046,8.954,20,20,20s20-8.954,20-20s-8.954-20-20-20
	S276,480.954,276,492z M206,420c0,11.046,8.954,20,20,20s20-8.954,20-20s-8.954-20-20-20S206,408.954,206,420z M206,492
	c0,11.046,8.954,20,20,20s20-8.954,20-20s-8.954-20-20-20S206,480.954,206,492z M135,492c0,11.046,8.954,20,20,20s20-8.954,20-20
	s-8.954-20-20-20S135,480.954,135,492z M346,420c0,11.046,8.954,20,20,20s20-8.954,20-20s-8.954-20-20-20S346,408.954,346,420z
	 M346,492c0,11.046,8.954,20,20,20s20-8.954,20-20s-8.954-20-20-20S346,480.954,346,492z M276,350c0,11.046,8.954,20,20,20
	s20-8.954,20-20s-8.954-20-20-20S276,338.954,276,350z M346,350c0,11.046,8.954,20,20,20s20-8.954,20-20s-8.954-20-20-20
	S346,338.954,346,350z M346,280c0,11.046,8.954,20,20,20s20-8.954,20-20s-8.954-20-20-20S346,268.954,346,280z M276,280
	c0,11.046,8.954,20,20,20s20-8.954,20-20s-8.954-20-20-20S276,268.954,276,280z M206,350c0,11.046,8.954,20,20,20s20-8.954,20-20
	s-8.954-20-20-20S206,338.954,206,350z M206,280c0,11.046,8.954,20,20,20s20-8.954,20-20s-8.954-20-20-20S206,268.954,206,280z
	 M135,420c0,11.046,8.954,20,20,20s20-8.954,20-20s-8.954-20-20-20S135,408.954,135,420z M134,350c0,11.046,8.954,20,20,20
	s20-8.954,20-20s-8.954-20-20-20S134,338.954,134,350z M134,280c0,11.046,8.954,20,20,20s20-8.954,20-20s-8.954-20-20-20
	S134,268.954,134,280z"/>
<g>
</g>
<g>
</g>
<g>
</g>
<g>
</g>
<g>
</g>
<g>
</g>
<g>
</g>
<g>
</g>
<g>
</g>
<g>
</g>
<g>
</g>
<g>
</g>
<g>
</g>
<g>
</g>
<g>
</g>
</svg>
