<?xml version="1.0" encoding="iso-8859-1"?>
<!-- Generator: Adobe Illustrator 19.0.0, SVG Export Plug-In . SVG Version: 6.00 Build 0)  -->
<svg version="1.1" id="Capa_1" xmlns="http://www.w3.org/2000/svg" xmlns:xlink="http://www.w3.org/1999/xlink" x="0px" y="0px"
	 viewBox="0 0 512 512" style="enable-background:new 0 0 512 512;" xml:space="preserve">
<linearGradient id="SVGID_1_" gradientUnits="userSpaceOnUse" x1="0" y1="258" x2="512" y2="258" gradientTransform="matrix(1 0 0 -1 0 514)">
	<stop  offset="0" style="stop-color:#00F2FE"/>
	<stop  offset="0.021" style="stop-color:#03EFFE"/>
	<stop  offset="0.293" style="stop-color:#24D2FE"/>
	<stop  offset="0.554" style="stop-color:#3CBDFE"/>
	<stop  offset="0.796" style="stop-color:#4AB0FE"/>
	<stop  offset="1" style="stop-color:#4FACFE"/>
</linearGradient>
<path style="fill:url(#SVGID_1_);" d="M398,358h-22c-11.046,0-20-8.954-20-20s8.954-20,20-20h22c5.667,0,11.082-0.606,16.555-1.854
	C448.376,308.428,472,278.76,472,244c0-27.458-15.088-52.523-39.376-65.414C426.087,175.117,422,168.321,422,160.92v-24.598
	C422,83.21,378.79,40,325.678,40c-47.068,0-87.985,35.007-95.178,81.431c-1.188,7.666-6.701,13.953-14.146,16.132
	c-7.444,2.178-15.479-0.144-20.612-5.959C186.427,121.052,173.036,115,159,115c-27.019,0-49,21.981-49,49v36
	c0,11.046-8.954,20-20,20h-0.154C62.361,220,40,241.981,40,269c0,27.477,21.084,49,48,49h57c11.046,0,20,8.954,20,20
	s-8.954,20-20,20H88c-23.866,0-46.119-9.313-62.66-26.225C8.999,315.067,0,292.773,0,269c0-42.32,29.978-77.837,70-86.812V164
	c0-49.075,39.925-89,89-89c14.217,0,28.068,3.414,40.47,9.751c8.067-19.71,20.729-37.444,37.093-51.591
	C261.297,11.776,292.945,0,325.678,0C400.846,0,462,61.154,462,136.322v13.324c31.119,21.09,50,56.221,50,94.354
	c0,25.976-8.972,51.393-25.262,71.57c-16.04,19.867-38.516,33.921-63.289,39.574C415.02,357.066,406.696,358,398,358z M276,420
	c0,11.046,8.954,20,20,20s20-8.954,20-20s-8.954-20-20-20S276,408.954,276,420z M276,492c0,11.046,8.954,20,20,20s20-8.954,20-20
	s-8.954-20-20-20S276,480.954,276,492z M206,420c0,11.046,8.954,20,20,20s20-8.954,20-20s-8.954-20-20-20S206,408.954,206,420z
	 M206,492c0,11.046,8.954,20,20,20s20-8.954,20-20s-8.954-20-20-20S206,480.954,206,492z M276,350c0,11.046,8.954,20,20,20
	s20-8.954,20-20s-8.954-20-20-20S276,338.954,276,350z M276,280c0,11.046,8.954,20,20,20s20-8.954,20-20s-8.954-20-20-20
	S276,268.954,276,280z M206,350c0,11.046,8.954,20,20,20s20-8.954,20-20s-8.954-20-20-20S206,338.954,206,350z M206,280
	c0,11.046,8.954,20,20,20s20-8.954,20-20s-8.954-20-20-20S206,268.954,206,280z"/>
<g>
</g>
<g>
</g>
<g>
</g>
<g>
</g>
<g>
</g>
<g>
</g>
<g>
</g>
<g>
</g>
<g>
</g>
<g>
</g>
<g>
</g>
<g>
</g>
<g>
</g>
<g>
</g>
<g>
</g>
</svg>
