<?xml version="1.0" encoding="iso-8859-1"?>
<!-- Generator: Adobe Illustrator 19.0.0, SVG Export Plug-In . SVG Version: 6.00 Build 0)  -->
<svg version="1.1" id="Capa_1" xmlns="http://www.w3.org/2000/svg" xmlns:xlink="http://www.w3.org/1999/xlink" x="0px" y="0px"
	 viewBox="0 0 512 512" style="enable-background:new 0 0 512 512;" xml:space="preserve">
<linearGradient id="SVGID_1_" gradientUnits="userSpaceOnUse" x1="121" y1="258" x2="391" y2="258" gradientTransform="matrix(1 0 0 -1 0 514)">
	<stop  offset="0" style="stop-color:#00F2FE"/>
	<stop  offset="0.021" style="stop-color:#03EFFE"/>
	<stop  offset="0.293" style="stop-color:#24D2FE"/>
	<stop  offset="0.554" style="stop-color:#3CBDFE"/>
	<stop  offset="0.796" style="stop-color:#4AB0FE"/>
	<stop  offset="1" style="stop-color:#4FACFE"/>
</linearGradient>
<path style="fill:url(#SVGID_1_);" d="M261,283v74.365c11.953,6.917,20,19.832,20,34.635c0,22.091-17.909,40-40,40s-40-17.909-40-40
	c0-14.803,8.047-27.718,20-34.635V283c0-11.046,8.954-20,20-20S261,271.954,261,283z M371,192c11.046,0,20-8.954,20-20
	s-8.954-20-20-20h-40v-31h40c11.046,0,20-8.954,20-20s-8.954-20-20-20h-40.449C326.021,35.583,287.589,0,241,0
	c-49.626,0-90,40.374-90,90v222.625c-19.408,21.929-30,49.797-30,79.375c0,66.168,53.832,120,120,120s120-53.832,120-120
	c0-25.135-7.695-49.208-22.255-69.615c-6.415-8.992-18.904-11.081-27.896-4.666s-11.081,18.905-4.666,27.896
	C315.876,359.203,321,375.243,321,392c0,44.112-35.888,80-80,80s-80-35.888-80-80c0-21.662,8.524-41.948,24.002-57.124
	c3.836-3.762,5.998-8.909,5.998-14.281V90c0-27.57,22.43-50,50-50s50,22.43,50,50v152c0,11.046,8.954,20,20,20h60
	c11.046,0,20-8.954,20-20s-8.954-20-20-20h-40v-30H371z"/>
<g>
</g>
<g>
</g>
<g>
</g>
<g>
</g>
<g>
</g>
<g>
</g>
<g>
</g>
<g>
</g>
<g>
</g>
<g>
</g>
<g>
</g>
<g>
</g>
<g>
</g>
<g>
</g>
<g>
</g>
</svg>
