<?xml version="1.0" encoding="iso-8859-1"?>
<!-- Generator: Adobe Illustrator 19.0.0, SVG Export Plug-In . SVG Version: 6.00 Build 0)  -->
<svg version="1.1" id="Capa_1" xmlns="http://www.w3.org/2000/svg" xmlns:xlink="http://www.w3.org/1999/xlink" x="0px" y="0px"
	 viewBox="0 0 512 512" style="enable-background:new 0 0 512 512;" xml:space="preserve">
<linearGradient id="SVGID_1_" gradientUnits="userSpaceOnUse" x1="0" y1="258" x2="512" y2="258" gradientTransform="matrix(1 0 0 -1 0 514)">
	<stop  offset="0" style="stop-color:#00F2FE"/>
	<stop  offset="0.021" style="stop-color:#03EFFE"/>
	<stop  offset="0.293" style="stop-color:#24D2FE"/>
	<stop  offset="0.554" style="stop-color:#3CBDFE"/>
	<stop  offset="0.796" style="stop-color:#4AB0FE"/>
	<stop  offset="1" style="stop-color:#4FACFE"/>
</linearGradient>
<path style="fill:url(#SVGID_1_);" d="M390.08,326.5c-0.019-4.336-0.033-8.799-0.033-12.5c0-10.796-2.16-21.094-6.05-30.501
	C403.192,263.177,414,236.284,414,208c0-60.654-49.346-110-110-110c-26.173,0-51.534,9.351-71.413,26.331
	c-15.301,13.07-26.646,30.049-32.938,48.898c-11.214-3.376-22.939-5.131-34.822-5.131C97.651,168.098,43,222.508,43,289.387v10.264
	c-26.724,18.757-42.915,49.62-43,83.233c0,0.038,0,0.077,0,0.116v0.148c0,0.039,0,0.079,0,0.118
	c0.118,46.155,31.293,86.575,75.893,98.356c10.677,2.821,21.622-3.549,24.444-14.229c2.821-10.679-3.55-21.624-14.229-24.445
	C58.983,435.784,40.032,411.17,40,383.074c0.027-23.098,12.428-44.016,32.376-54.603C78.913,325.002,83,318.206,83,310.805v-21.418
	c0-44.823,36.707-81.289,81.827-81.289c39.7,0,74.231,29.648,80.324,68.965c1.188,7.666,6.701,13.954,14.146,16.132
	c7.446,2.18,15.479-0.145,20.612-5.959c7.581-8.588,18.254-13.318,30.055-13.318c22.102,0,40.083,17.981,40.083,40.083
	c0,11.428,0.133,29.958,0.135,30.145c0.079,10.989,9.01,19.855,19.999,19.855C392.307,364,411,382.738,411,405
	c0,15.469-9.159,29.938-23.334,36.86c-2.243,1.096-4.589,1.984-6.973,2.64c-10.649,2.931-16.907,13.94-13.977,24.59
	c2.442,8.875,10.492,14.698,19.271,14.698c1.757,0,3.543-0.233,5.318-0.722c4.768-1.312,9.449-3.083,13.913-5.264
	C433.03,464.221,451,435.645,451,404.917c0-21.4-8.429-41.648-23.732-57.015C416.774,337.367,403.98,330.066,390.08,326.5z
	 M309.964,233.917c-11.86,0-23.401,2.58-33.862,7.4c-7.2-16.587-18.081-31.523-31.956-43.567c-2.625-2.279-5.34-4.431-8.13-6.462
	C243.587,160.124,271.396,138,304,138c38.598,0,70,31.402,70,70c0,15.728-5.264,30.775-14.743,42.955
	C345.655,240.296,328.545,233.917,309.964,233.917z M284,48V20c0-11.046,8.954-20,20-20s20,8.954,20,20v28c0,11.046-8.954,20-20,20
	S284,59.046,284,48z M512,208c0,11.046-8.954,20-20,20h-28c-11.046,0-20-8.954-20-20s8.954-20,20-20h28
	C503.046,188,512,196.954,512,208z M425.244,138c-5.523-9.565-2.246-21.797,7.32-27.32l24.248-14
	c9.565-5.524,21.798-2.246,27.32,7.32c5.523,9.565,2.246,21.797-7.32,27.32l-24.248,14c-3.149,1.818-6.589,2.683-9.981,2.683
	C435.671,148.003,428.948,144.417,425.244,138z M369.421,60.623l14.447-23.985c5.699-9.463,17.99-12.511,27.451-6.813
	c9.462,5.699,12.512,17.99,6.813,27.452l-14.447,23.985c-3.754,6.232-10.369,9.684-17.15,9.684c-3.515,0-7.071-0.926-10.301-2.871
	C366.771,82.375,363.722,70.084,369.421,60.623z M192.68,55.187c-5.523-9.566-2.245-21.798,7.32-27.32
	c9.564-5.523,21.798-2.246,27.32,7.32l14,24.249c5.523,9.566,2.245,21.798-7.32,27.32c-3.149,1.818-6.589,2.683-9.981,2.683
	c-6.912,0-13.635-3.587-17.339-10.003L192.68,55.187z M127.177,98.468c5.816-9.39,18.145-12.286,27.534-6.47l23.803,14.745
	c9.39,5.817,12.287,18.145,6.47,27.535c-3.784,6.109-10.326,9.471-17.021,9.471c-3.595,0-7.233-0.969-10.514-3l-23.803-14.745
	C124.257,120.186,121.359,107.858,127.177,98.468z M482.176,315.319c-3.754,6.233-10.369,9.684-17.15,9.684
	c-3.514,0-7.071-0.926-10.301-2.871l-23.985-14.447c-9.462-5.699-12.512-17.989-6.813-27.451c5.7-9.463,17.989-12.512,27.452-6.813
	l23.985,14.447C484.825,293.567,487.875,305.857,482.176,315.319z M253,419c0,11.046-8.954,20-20,20s-20-8.954-20-20s8.954-20,20-20
	S253,407.954,253,419z M253,492c0,11.046-8.954,20-20,20s-20-8.954-20-20s8.954-20,20-20S253,480.954,253,492z M173,419
	c0,11.046-8.954,20-20,20s-20-8.954-20-20s8.954-20,20-20S173,407.954,173,419z M173,492c0,11.046-8.954,20-20,20s-20-8.954-20-20
	s8.954-20,20-20S173,480.954,173,492z M333,419c0,11.046-8.954,20-20,20s-20-8.954-20-20s8.954-20,20-20S333,407.954,333,419z
	 M333,492c0,11.046-8.954,20-20,20s-20-8.954-20-20s8.954-20,20-20S333,480.954,333,492z"/>
<g>
</g>
<g>
</g>
<g>
</g>
<g>
</g>
<g>
</g>
<g>
</g>
<g>
</g>
<g>
</g>
<g>
</g>
<g>
</g>
<g>
</g>
<g>
</g>
<g>
</g>
<g>
</g>
<g>
</g>
</svg>
