<?xml version="1.0" encoding="iso-8859-1"?>
<!-- Generator: Adobe Illustrator 19.0.0, SVG Export Plug-In . SVG Version: 6.00 Build 0)  -->
<svg version="1.1" id="Capa_1" xmlns="http://www.w3.org/2000/svg" xmlns:xlink="http://www.w3.org/1999/xlink" x="0px" y="0px"
	 viewBox="0 0 512 512" style="enable-background:new 0 0 512 512;" xml:space="preserve">
<linearGradient id="SVGID_1_" gradientUnits="userSpaceOnUse" x1="0" y1="258" x2="512" y2="258" gradientTransform="matrix(1 0 0 -1 0 514)">
	<stop  offset="0" style="stop-color:#00F2FE"/>
	<stop  offset="0.021" style="stop-color:#03EFFE"/>
	<stop  offset="0.293" style="stop-color:#24D2FE"/>
	<stop  offset="0.554" style="stop-color:#3CBDFE"/>
	<stop  offset="0.796" style="stop-color:#4AB0FE"/>
	<stop  offset="1" style="stop-color:#4FACFE"/>
</linearGradient>
<path style="fill:url(#SVGID_1_);" d="M437.02,74.98C388.667,26.629,324.38,0,256,0S123.333,26.629,74.98,74.98
	C26.629,123.333,0,187.62,0,256s26.629,132.667,74.98,181.02C123.333,485.371,187.62,512,256,512
	c46.812,0,92.616-12.757,132.462-36.893c9.447-5.723,12.467-18.021,6.744-27.468c-5.724-9.449-18.021-12.467-27.469-6.745
	C334.143,461.244,295.504,472,256,472c-60.386,0-115.053-24.919-154.288-65H449c0.471,0,0.932-0.038,1.395-0.07
	c6.987,0.556,14.06-2.573,18.231-8.813C497.002,355.674,512,306.531,512,256C512,187.62,485.371,123.333,437.02,74.98z M40.935,276
	H70c11.046,0,20-8.954,20-20s-8.954-20-20-20H40.935c4.111-44.566,21.809-85.254,48.916-117.866l20.487,20.486
	c3.905,3.905,9.023,5.857,14.142,5.857c5.119,0,10.237-1.953,14.143-5.858c7.811-7.811,7.81-20.474-0.001-28.285L118.134,89.85
	c32.612-27.107,73.3-44.804,117.866-48.916V70c0,11.046,8.954,20,20,20c11.046,0,20-8.954,20-20V40.934
	c44.566,4.111,85.254,21.809,117.866,48.916l-20.486,20.485c-7.811,7.811-7.812,20.474-0.001,28.285
	c3.906,3.906,9.023,5.858,14.143,5.858c5.118,0,10.237-1.953,14.142-5.857l20.487-20.486
	c27.107,32.612,44.804,73.299,48.916,117.866H442c-11.046,0-20,8.954-20,20c0,11.046,8.954,20,20,20h29.063
	c-3.007,32.058-13.232,63.048-30.06,91H72c-0.403,0-0.796,0.037-1.193,0.06C54.508,339.983,43.984,309.059,40.935,276z M257,315.972
	c15.364,0,30.729-5.849,42.427-17.545c5.822-5.822,15.06-18.507,34.977-65.311c10.521-24.727,18.963-47.134,19.316-48.076
	c2.764-7.347,0.973-15.632-4.577-21.182c-5.551-5.55-13.834-7.341-21.183-4.578c-0.941,0.354-23.349,8.795-48.075,19.317
	c-46.804,19.917-59.488,29.154-65.312,34.977c-23.394,23.394-23.394,61.458,0,84.853C226.271,310.123,241.636,315.972,257,315.972z
	 M242.849,241.868c5.24-5.077,28.86-16.393,56.278-27.993c-11.598,27.416-22.909,51.028-27.985,56.267
	c-7.797,7.798-20.486,7.798-28.283,0C235.06,262.344,235.06,249.656,242.849,241.868z"/>
<g>
</g>
<g>
</g>
<g>
</g>
<g>
</g>
<g>
</g>
<g>
</g>
<g>
</g>
<g>
</g>
<g>
</g>
<g>
</g>
<g>
</g>
<g>
</g>
<g>
</g>
<g>
</g>
<g>
</g>
</svg>
