<?xml version="1.0" encoding="iso-8859-1"?>
<!-- Generator: Adobe Illustrator 19.0.0, SVG Export Plug-In . SVG Version: 6.00 Build 0)  -->
<svg version="1.1" id="Capa_1" xmlns="http://www.w3.org/2000/svg" xmlns:xlink="http://www.w3.org/1999/xlink" x="0px" y="0px"
	 viewBox="0 0 512.001 512.001" style="enable-background:new 0 0 512.001 512.001;" xml:space="preserve">
<linearGradient id="SVGID_1_" gradientUnits="userSpaceOnUse" x1="4.882813e-004" y1="257.9995" x2="512.0005" y2="257.9995" gradientTransform="matrix(1 0 0 -1 0 514)">
	<stop  offset="0" style="stop-color:#00F2FE"/>
	<stop  offset="0.021" style="stop-color:#03EFFE"/>
	<stop  offset="0.293" style="stop-color:#24D2FE"/>
	<stop  offset="0.554" style="stop-color:#3CBDFE"/>
	<stop  offset="0.796" style="stop-color:#4AB0FE"/>
	<stop  offset="1" style="stop-color:#4FACFE"/>
</linearGradient>
<path style="fill:url(#SVGID_1_);" d="M77.024,357.134c-1.052,0-2.116-0.083-3.188-0.255C31.053,350.026,0,313.068,0,269
	c0-42.32,29.978-77.837,70-86.812V164c0-49.075,39.925-89,89-89c14.217,0,28.067,3.414,40.47,9.751
	c8.067-19.71,20.729-37.445,37.093-51.591C261.297,11.776,292.945,0,325.678,0C400.846,0,462,61.154,462,136.322v13.324
	c31.119,21.091,50,56.222,50,94.354c0,45.369-26.263,86.305-66.907,104.29c-10.101,4.469-21.913-0.095-26.382-10.197
	c-4.47-10.101,0.095-21.913,10.196-26.382C455.085,300.127,472,273.549,472,244c0-27.458-15.088-52.523-39.376-65.414
	C426.087,175.117,422,168.321,422,160.92v-24.598C422,83.21,378.79,40,325.678,40c-47.067,0-87.985,35.007-95.178,81.431
	c-1.188,7.666-6.701,13.953-14.146,16.132c-7.446,2.18-15.479-0.144-20.612-5.959C186.427,121.052,173.035,115,159,115
	c-27.019,0-49,21.981-49,49v36c0,11.045-8.954,20-20,20h-0.154C62.36,220,40,241.981,40,269c0,24.307,16.891,44.655,40.163,48.382
	c10.906,1.747,18.332,12.005,16.585,22.912C95.173,350.129,86.676,357.134,77.024,357.134z M209.076,512
	c9.069-0.036,17.849-3.644,24.086-9.9c0.265-0.266,0.522-0.539,0.772-0.819l80.127-89.979c7.346-8.249,6.613-20.891-1.636-28.237
	c-8.247-7.345-20.891-6.614-28.237,1.635l-47.058,52.844l22.13-60.692c2.236-6.132,1.339-12.97-2.403-18.318
	c-3.743-5.348-9.859-8.533-16.387-8.533h-59.428c-5.164,0-7.75-3.45-8.621-4.933c-0.872-1.483-2.628-5.42-0.115-9.932L234.752,223
	h57.673l-35.646,58.607c-3.755,6.175-3.888,13.895-0.346,20.195c3.542,6.299,10.207,10.198,17.433,10.198h68.51
	c1.12,0,1.376,0.353,1.528,0.684c0.115,0.25,0.258,0.562-0.428,1.361c-0.05,0.058-0.099,0.116-0.147,0.174l-6.65,7.924
	c-7.102,8.46-5.999,21.076,2.462,28.177c8.46,7.102,21.074,5.999,28.177-2.462l6.587-7.849
	c10.658-12.482,13.093-29.338,6.349-44.021C373.457,281.191,358.943,272,342.376,272h-32.937l35.646-58.607
	c3.755-6.175,3.888-13.895,0.346-20.194c-3.542-6.3-10.207-10.199-17.434-10.199h-105c-7.256,0-13.943,3.93-17.474,10.27
	l-68.165,122.404c-8.716,15.651-8.5,34.216,0.577,49.661C147.014,380.779,163.128,390,181.043,390h30.848l-30.48,83.596
	c-3.646,8.69-2.985,17.887,1.854,25.369c5.283,8.17,14.872,13.036,25.67,13.036C208.98,512,209.029,512,209.076,512z"/>
<g>
</g>
<g>
</g>
<g>
</g>
<g>
</g>
<g>
</g>
<g>
</g>
<g>
</g>
<g>
</g>
<g>
</g>
<g>
</g>
<g>
</g>
<g>
</g>
<g>
</g>
<g>
</g>
<g>
</g>
</svg>
