<?xml version="1.0" encoding="iso-8859-1"?>
<!-- Generator: Adobe Illustrator 19.0.0, SVG Export Plug-In . SVG Version: 6.00 Build 0)  -->
<svg version="1.1" id="Capa_1" xmlns="http://www.w3.org/2000/svg" xmlns:xlink="http://www.w3.org/1999/xlink" x="0px" y="0px"
	 viewBox="0 0 512 512" style="enable-background:new 0 0 512 512;" xml:space="preserve">
<linearGradient id="SVGID_1_" gradientUnits="userSpaceOnUse" x1="4.789876e-004" y1="257.9973" x2="512.0057" y2="257.9973" gradientTransform="matrix(1 0 0 -1 -4.789829e-004 513.9948)">
	<stop  offset="0" style="stop-color:#00F2FE"/>
	<stop  offset="0.021" style="stop-color:#03EFFE"/>
	<stop  offset="0.293" style="stop-color:#24D2FE"/>
	<stop  offset="0.554" style="stop-color:#3CBDFE"/>
	<stop  offset="0.796" style="stop-color:#4AB0FE"/>
	<stop  offset="1" style="stop-color:#4FACFE"/>
</linearGradient>
<path style="fill:url(#SVGID_1_);" d="M59.999,120.001C26.916,120.001,0,93.086,0,60.002S26.916,0.003,59.999,0.003
	s59.999,26.916,59.999,59.999c0,11.046-8.954,20-20,20s-20-8.954-20-20c0-11.028-8.972-20-20-20s-20,8.972-20,20s8.972,20,20,20
	c11.046,0,20,8.954,20,20S71.045,120.001,59.999,120.001z M510.257,401.044c4.504-10.086-0.021-21.913-10.106-26.417
	c-10.086-4.505-21.914,0.021-26.417,10.107c-23.673,53.01-76.47,87.264-134.509,87.264c-81.181,0-147.228-66.045-147.228-147.227
	V187.229c0-81.181,66.046-147.227,147.228-147.227c58.038,0,110.836,34.254,134.509,87.264c4.503,10.085,16.328,14.61,26.417,10.107
	c10.085-4.504,14.61-16.331,10.106-26.417C480.158,43.555,413.024,0.003,339.226,0.003c-103.238,0-187.227,83.99-187.227,187.226
	v137.543c0,103.237,83.989,187.226,187.227,187.226C413.024,511.998,480.158,468.446,510.257,401.044z"/>
<g>
</g>
<g>
</g>
<g>
</g>
<g>
</g>
<g>
</g>
<g>
</g>
<g>
</g>
<g>
</g>
<g>
</g>
<g>
</g>
<g>
</g>
<g>
</g>
<g>
</g>
<g>
</g>
<g>
</g>
</svg>
