<?xml version="1.0" encoding="iso-8859-1"?>
<!-- Generator: Adobe Illustrator 19.0.0, SVG Export Plug-In . SVG Version: 6.00 Build 0)  -->
<svg version="1.1" id="Capa_1" xmlns="http://www.w3.org/2000/svg" xmlns:xlink="http://www.w3.org/1999/xlink" x="0px" y="0px"
	 viewBox="0 0 512 512" style="enable-background:new 0 0 512 512;" xml:space="preserve">
<linearGradient id="SVGID_1_" gradientUnits="userSpaceOnUse" x1="0" y1="258" x2="512" y2="258" gradientTransform="matrix(1 0 0 -1 0 514)">
	<stop  offset="0" style="stop-color:#00F2FE"/>
	<stop  offset="0.021" style="stop-color:#03EFFE"/>
	<stop  offset="0.293" style="stop-color:#24D2FE"/>
	<stop  offset="0.554" style="stop-color:#3CBDFE"/>
	<stop  offset="0.796" style="stop-color:#4AB0FE"/>
	<stop  offset="1" style="stop-color:#4FACFE"/>
</linearGradient>
<path style="fill:url(#SVGID_1_);" d="M211,512c-11.046,0-20-8.954-20-20V80c0-44.112,35.888-80,80-80h221c11.046,0,20,8.954,20,20
	s-8.954,20-20,20H271c-22.056,0-40,17.944-40,40v412C231,503.046,222.046,512,211,512z M80,100c0-11.046-8.954-20-20-20
	c-11.028,0-20-8.972-20-20s8.972-20,20-20s20,8.972,20,20c0,11.046,8.954,20,20,20s20-8.954,20-20c0-33.084-26.916-60-60-60
	S0,26.916,0,60s26.916,60,60,60C71.046,120,80,111.046,80,100z M485,238c0-11.046-8.954-20-20-20H292c-11.046,0-20,8.954-20,20
	s8.954,20,20,20h173C476.046,258,485,249.046,485,238z"/>
<g>
</g>
<g>
</g>
<g>
</g>
<g>
</g>
<g>
</g>
<g>
</g>
<g>
</g>
<g>
</g>
<g>
</g>
<g>
</g>
<g>
</g>
<g>
</g>
<g>
</g>
<g>
</g>
<g>
</g>
</svg>
