<?xml version="1.0" encoding="iso-8859-1"?>
<!-- Generator: Adobe Illustrator 19.0.0, SVG Export Plug-In . SVG Version: 6.00 Build 0)  -->
<svg version="1.1" id="Capa_1" xmlns="http://www.w3.org/2000/svg" xmlns:xlink="http://www.w3.org/1999/xlink" x="0px" y="0px"
	 viewBox="0 0 512 512" style="enable-background:new 0 0 512 512;" xml:space="preserve">
<linearGradient id="SVGID_1_" gradientUnits="userSpaceOnUse" x1="-1.234098e-004" y1="258.0108" x2="511.9834" y2="258.0108" gradientTransform="matrix(1 0 0 -1 0.0013 514.0178)">
	<stop  offset="0" style="stop-color:#00F2FE"/>
	<stop  offset="0.021" style="stop-color:#03EFFE"/>
	<stop  offset="0.293" style="stop-color:#24D2FE"/>
	<stop  offset="0.554" style="stop-color:#3CBDFE"/>
	<stop  offset="0.796" style="stop-color:#4AB0FE"/>
	<stop  offset="1" style="stop-color:#4FACFE"/>
</linearGradient>
<path style="fill:url(#SVGID_1_);" d="M277.01,129.989c11.046,0,20.001,8.954,20.001,20.001s-8.954,20.001-20.001,20.001
	s-20.001-8.954-20.001-20.001C257.009,138.944,265.964,129.989,277.01,129.989z M368.837,239.677
	c3.14,10.59,14.27,16.63,24.861,13.49c10.59-3.14,16.63-14.27,13.49-24.861s-14.27-16.63-24.861-13.49
	C371.737,217.956,365.697,229.086,368.837,239.677z M238.009,254.992c0,11.046,8.954,20.001,20.001,20.001
	c11.046,0,20.001-8.954,20.001-20.001s-8.954-20.001-20.001-20.001C246.963,234.991,238.009,243.947,238.009,254.992z
	 M436.014,60.987c0,11.046,8.954,20.001,20.001,20.001s20.001-8.954,20.001-20.001s-8.954-20.001-20.001-20.001
	C444.968,40.986,436.014,49.941,436.014,60.987z M265.79,511.956c43.637-0.792,85.039-12.076,123.055-33.542
	c9.618-5.431,13.013-17.63,7.582-27.25c-5.43-9.618-17.63-13.013-27.25-7.582c-32.166,18.161-67.194,27.71-104.114,28.38
	c-60.353,1.098-117.245-21.952-160.186-64.894c-42.906-42.907-65.933-99.732-64.839-160.005
	c1.698-93.461,61.432-174.944,149.425-204.937c-22.435,26.32-64.178,84.698-64.458,154.784c-0.049,12.151,1.18,24.184,3.652,35.764
	c7.867,36.851,26.279,70.562,53.245,97.489c26.951,26.91,60.688,45.291,97.563,53.154c11.847,2.527,24.199,3.767,36.685,3.675
	c29.061-0.204,59.202-7.481,89.584-21.629c27.215-12.672,48.818-28.178,63.595-40.49c-6.886,19.454-16.476,37.819-28.574,54.703
	c-6.433,8.979-4.369,21.474,4.609,27.907c8.979,6.433,21.474,4.369,27.907-4.609c16.293-22.742,28.741-47.768,36.996-74.385
	c5.039-16.244-1.177-33.356-15.466-42.583c-14.396-9.295-32.69-7.903-45.522,3.463c-15.131,13.404-69.471,57.174-133.412,57.623
	c-9.599,0.081-19.044-0.873-28.061-2.796c-60.108-12.818-107.223-59.871-120.031-119.873c-1.876-8.787-2.808-17.956-2.771-27.252
	c0.17-42.69,22.179-92.612,58.871-133.542c11.552-12.886,13.053-31.344,3.736-45.928c-9.3-14.561-26.65-20.946-43.171-15.887
	C132.176,17.715,86.913,49.229,53.544,92.85C19.562,137.269,1.062,190.344,0.045,246.335c-0.653,35.967,5.965,70.97,19.673,104.038
	c13.203,31.852,32.338,60.443,56.876,84.98c24.553,24.553,53.167,43.702,85.052,56.916c31.615,13.102,64.995,19.733,99.301,19.732
	C262.557,512,264.175,511.985,265.79,511.956z"/>
<g>
</g>
<g>
</g>
<g>
</g>
<g>
</g>
<g>
</g>
<g>
</g>
<g>
</g>
<g>
</g>
<g>
</g>
<g>
</g>
<g>
</g>
<g>
</g>
<g>
</g>
<g>
</g>
<g>
</g>
</svg>
