<?xml version="1.0" encoding="iso-8859-1"?>
<!-- Generator: Adobe Illustrator 19.0.0, SVG Export Plug-In . SVG Version: 6.00 Build 0)  -->
<svg version="1.1" id="Capa_1" xmlns="http://www.w3.org/2000/svg" xmlns:xlink="http://www.w3.org/1999/xlink" x="0px" y="0px"
	 viewBox="0 0 512 512" style="enable-background:new 0 0 512 512;" xml:space="preserve">
<linearGradient id="SVGID_1_" gradientUnits="userSpaceOnUse" x1="0" y1="258" x2="512" y2="258" gradientTransform="matrix(1 0 0 -1 0 514)">
	<stop  offset="0" style="stop-color:#00F2FE"/>
	<stop  offset="0.021" style="stop-color:#03EFFE"/>
	<stop  offset="0.293" style="stop-color:#24D2FE"/>
	<stop  offset="0.554" style="stop-color:#3CBDFE"/>
	<stop  offset="0.796" style="stop-color:#4AB0FE"/>
	<stop  offset="1" style="stop-color:#4FACFE"/>
</linearGradient>
<path style="fill:url(#SVGID_1_);" d="M390.08,340c-0.02-4.336-0.034-8.8-0.034-12.5c0-10.796-2.16-21.094-6.05-30.501
	C403.192,276.678,414,249.784,414,221.5c0-60.654-49.346-110-110-110c-26.173,0-51.535,9.351-71.413,26.331
	c-15.301,13.07-26.646,30.049-32.937,48.899c-11.215-3.376-22.939-5.132-34.823-5.132C97.651,181.598,43,236.008,43,302.887v10.264
	c-26.724,18.758-42.915,49.62-43,83.233c0,0.038,0,0.077,0,0.116v0.148c0,0.04,0,0.079,0,0.119
	c0.142,54.992,44.021,99.894,98.62,101.678c0.493,0.037,0.99,0.055,1.49,0.055h271.678c11.046,0,20-8.954,20-20s-8.954-20-20-20
	H102.12l-1.69-0.02C66.992,457.644,40.04,430.2,40,396.573c0.027-23.097,12.428-44.015,32.376-54.602
	C78.913,338.502,83,331.706,83,324.305v-21.418c0-44.823,36.708-81.289,81.827-81.289c39.7,0,74.231,29.648,80.323,68.964
	c1.188,7.666,6.701,13.954,14.146,16.133c7.446,2.179,15.479-0.144,20.612-5.959c7.581-8.588,18.255-13.318,30.055-13.318
	c22.102,0,40.083,17.981,40.083,40.083c0,11.429,0.134,29.96,0.135,30.146c0.08,10.989,9.011,19.854,20,19.854
	c22.126,0,40.819,18.738,40.819,40.917c0,11.045,8.954,20,20,20s20-8.955,20-20c0-21.4-8.428-41.648-23.732-57.015
	C416.774,350.866,403.981,343.565,390.08,340z M359.257,264.456c-13.603-10.659-30.712-17.038-49.293-17.038
	c-11.86,0-23.401,2.58-33.862,7.401c-7.2-16.588-18.081-31.524-31.956-43.567c-2.625-2.279-5.34-4.431-8.13-6.463
	c7.572-31.165,35.38-53.289,67.984-53.289c38.598,0,70,31.402,70,70C374,237.228,368.736,252.275,359.257,264.456z M284,61.5v-28
	c0-11.046,8.954-20,20-20s20,8.954,20,20v28c0,11.046-8.954,20-20,20S284,72.546,284,61.5z M512,221.5c0,11.046-8.954,20-20,20h-28
	c-11.046,0-20-8.954-20-20s8.954-20,20-20h28C503.046,201.5,512,210.454,512,221.5z M425.244,151.5
	c-5.523-9.566-2.246-21.798,7.32-27.321l24.249-14c9.565-5.521,21.798-2.245,27.32,7.321c5.523,9.566,2.246,21.798-7.32,27.321
	l-24.249,14c-3.149,1.818-6.589,2.683-9.981,2.683C435.67,161.503,428.948,157.917,425.244,151.5z M369.421,74.123l14.447-23.985
	c5.699-9.462,17.989-12.513,27.452-6.813c9.461,5.699,12.512,17.989,6.813,27.452l-14.447,23.985
	c-3.754,6.233-10.369,9.684-17.151,9.684c-3.513,0-7.071-0.926-10.3-2.871C366.772,95.875,363.722,83.585,369.421,74.123z
	 M192.679,68.687c-5.522-9.566-2.245-21.798,7.321-27.32c9.566-5.523,21.798-2.246,27.321,7.32l14,24.249
	c5.522,9.566,2.245,21.798-7.321,27.32c-3.149,1.818-6.589,2.683-9.981,2.683c-6.913,0-13.635-3.587-17.339-10.003L192.679,68.687z
	 M127.176,111.968c5.817-9.39,18.145-12.287,27.534-6.471l23.803,14.745c9.39,5.817,12.287,18.144,6.471,27.534
	c-3.785,6.11-10.327,9.471-17.021,9.471c-3.595,0-7.232-0.968-10.513-3l-23.803-14.745
	C124.256,133.686,121.359,121.358,127.176,111.968z M482.176,328.819c-3.754,6.233-10.369,9.684-17.151,9.684
	c-3.513,0-7.071-0.926-10.3-2.871l-23.985-14.447c-9.462-5.699-12.513-17.989-6.813-27.451c5.699-9.462,17.99-12.513,27.452-6.813
	l23.985,14.447C484.825,307.067,487.875,319.357,482.176,328.819z"/>
<g>
</g>
<g>
</g>
<g>
</g>
<g>
</g>
<g>
</g>
<g>
</g>
<g>
</g>
<g>
</g>
<g>
</g>
<g>
</g>
<g>
</g>
<g>
</g>
<g>
</g>
<g>
</g>
<g>
</g>
</svg>
