<?xml version="1.0" encoding="iso-8859-1"?>
<!-- Generator: Adobe Illustrator 19.0.0, SVG Export Plug-In . SVG Version: 6.00 Build 0)  -->
<svg version="1.1" id="Capa_1" xmlns="http://www.w3.org/2000/svg" xmlns:xlink="http://www.w3.org/1999/xlink" x="0px" y="0px"
	 viewBox="0 0 511.999 511.999" style="enable-background:new 0 0 511.999 511.999;" xml:space="preserve">
<linearGradient id="SVGID_1_" gradientUnits="userSpaceOnUse" x1="0" y1="258.0003" x2="511.9989" y2="258.0003" gradientTransform="matrix(1 0 0 -1 0 513.9997)">
	<stop  offset="0" style="stop-color:#00F2FE"/>
	<stop  offset="0.021" style="stop-color:#03EFFE"/>
	<stop  offset="0.293" style="stop-color:#24D2FE"/>
	<stop  offset="0.554" style="stop-color:#3CBDFE"/>
	<stop  offset="0.796" style="stop-color:#4AB0FE"/>
	<stop  offset="1" style="stop-color:#4FACFE"/>
</linearGradient>
<path style="fill:url(#SVGID_1_);" d="M469,326.648v-10.264c0-66.879-54.651-121.289-121.827-121.289
	c-29.12,0-57.289,10.531-79.319,29.654c-13.325,11.566-23.879,25.805-31.073,41.608c-3.347-0.344-6.645-0.858-9.862-1.544
	c-0.039-0.008-0.076-0.018-0.115-0.027c-2.953-0.947-5.967-1.728-9.029-2.332c-40.031-12.03-70.801-45.004-79.611-86.277
	c-1.374-6.433-2.057-13.154-2.029-19.975c0.127-31.73,16.611-68.977,44.095-99.635c10.285-11.474,11.622-27.906,3.326-40.891
	c-8.284-12.966-23.734-18.65-38.447-14.147C103.988,14.118,68.377,38.91,42.126,73.226c-26.737,34.95-41.292,76.708-42.092,120.76
	c-1.288,70.909,34.252,136.355,91.731,174.619c-2.44,1.95-4.792,4.044-7.033,6.294C69.428,390.266,61,410.514,61,431.914
	c0,21.381,8.098,41.436,22.802,56.469c14.894,15.228,34.927,23.613,56.41,23.613H411.89c0.491,0,0.978-0.018,1.461-0.053
	c11.237-0.348,22.233-2.521,32.7-6.464c10.336-3.894,15.56-15.43,11.666-25.767c-3.894-10.336-15.428-15.56-25.767-11.666
	c-6.534,2.461-13.421,3.784-20.473,3.932c-0.173,0.003-0.347,0.01-0.519,0.018H140.212c-21.988,0-39.212-17.606-39.212-40.083
	c0-20.754,16.368-38.492,36.6-40.687c1.327,0.271,2.659,0.419,3.979,0.419c8.137,0,15.785-5.003,18.766-13.083
	c0.045-0.121,0.072-0.244,0.114-0.365c0.848-2.194,1.341-4.566,1.359-7.056c0.001-0.186,0.135-18.717,0.135-30.146
	c0-22.102,17.981-40.083,40.083-40.083c2.17,0,4.301,0.163,6.383,0.477c2.577,0.735,5.181,1.391,7.802,1.994
	c6.069,2.218,11.488,5.883,15.87,10.847c5.133,5.815,13.166,8.138,20.612,5.959c7.445-2.179,12.958-8.467,14.146-16.133
	c6.092-39.316,40.623-68.964,80.323-68.964c45.12,0,81.827,36.466,81.827,81.289v21.418c0,7.401,4.087,14.197,10.624,17.666
	c19.97,10.599,32.376,31.55,32.376,54.677c0,11.046,8.954,20,20,20s20-8.954,20-20C512,376.43,495.794,345.454,469,326.648z
	 M121.97,340.335c-51.008-29.888-83.039-85.305-81.943-145.623c1.166-64.163,38.892-120.779,95.956-147.004
	c-17.656,24.013-39.667,63.011-39.849,108.334c-0.038,9.677,0.941,19.261,2.911,28.485c6.236,29.215,20.83,55.937,42.202,77.277
	c4.819,4.812,9.925,9.259,15.258,13.365C135.817,289.524,122.191,313.356,121.97,340.335z M322,83.997c0-11.046,8.954-20,20-20
	s20,8.954,20,20s-8.954,20-20,20S322,95.042,322,83.997z M208,133.997c0-11.046,8.954-20,20-20s20,8.954,20,20s-8.954,20-20,20
	S208,145.042,208,133.997z M452,176.997c0-11.046,8.954-20,20-20s20,8.954,20,20s-8.954,20-20,20S452,188.042,452,176.997z"/>
<g>
</g>
<g>
</g>
<g>
</g>
<g>
</g>
<g>
</g>
<g>
</g>
<g>
</g>
<g>
</g>
<g>
</g>
<g>
</g>
<g>
</g>
<g>
</g>
<g>
</g>
<g>
</g>
<g>
</g>
</svg>
