<?xml version="1.0" encoding="iso-8859-1"?>
<!-- Generator: Adobe Illustrator 19.0.0, SVG Export Plug-In . SVG Version: 6.00 Build 0)  -->
<svg version="1.1" id="Capa_1" xmlns="http://www.w3.org/2000/svg" xmlns:xlink="http://www.w3.org/1999/xlink" x="0px" y="0px"
	 viewBox="0 0 512 512" style="enable-background:new 0 0 512 512;" xml:space="preserve">
<linearGradient id="SVGID_1_" gradientUnits="userSpaceOnUse" x1="0" y1="258" x2="512" y2="258" gradientTransform="matrix(1 0 0 -1 0 514)">
	<stop  offset="0" style="stop-color:#00F2FE"/>
	<stop  offset="0.021" style="stop-color:#03EFFE"/>
	<stop  offset="0.293" style="stop-color:#24D2FE"/>
	<stop  offset="0.554" style="stop-color:#3CBDFE"/>
	<stop  offset="0.796" style="stop-color:#4AB0FE"/>
	<stop  offset="1" style="stop-color:#4FACFE"/>
</linearGradient>
<path style="fill:url(#SVGID_1_);" d="M447.341,82.439C416.69,40.918,386.519,7.879,385.25,6.493C381.461,2.356,376.109,0,370.5,0
	s-10.961,2.356-14.75,6.493c-1.269,1.386-31.44,34.425-62.091,75.947c-13.36,18.099-24.603,34.77-33.782,50.096
	c-33.973-43.933-63.69-76.473-65.128-78.044C190.961,50.355,185.609,48,180,48s-10.961,2.355-14.749,6.492
	c-1.662,1.815-41.176,45.08-81.342,99.488c-23.805,32.246-42.836,61.684-56.566,87.496C8.943,276.065,0,303.964,0,326.765v4.911
	C0,431.107,80.748,512,180,512c55.945,0,107.612-25.032,141.753-68.678c6.806-8.7,5.27-21.27-3.431-28.075
	c-8.699-6.805-21.27-5.269-28.075,3.431C263.739,452.565,223.557,472,180,472c-77.196,0-140-62.949-140-140.325v-4.911
	c0-17.138,9.859-59.253,75.891-148.757c24.386-33.054,49.017-62.403,64.109-79.818c14.159,16.339,36.714,43.182,59.585,73.733
	C232.502,188.981,229,203.789,229,216.515v3.729C229,298.409,292.477,362,370.5,362c37.321,0,72.535-14.428,99.155-40.626
	c7.873-7.748,7.975-20.411,0.227-28.284c-7.748-7.872-20.411-7.973-28.283-0.226C422.507,311.653,397.257,322,370.5,322
	C314.533,322,269,276.353,269,220.244v-3.729c0-12.418,7.358-43.229,56.643-110.05c16.6-22.508,33.357-42.748,44.859-56.168
	c11.444,13.352,28.098,33.466,44.657,55.899C464.615,173.193,472,204.072,472,216.515v3.729c0,11.046,8.954,20,20,20s20-8.954,20-20
	v-3.729C512,185.237,490.85,141.381,447.341,82.439z"/>
<g>
</g>
<g>
</g>
<g>
</g>
<g>
</g>
<g>
</g>
<g>
</g>
<g>
</g>
<g>
</g>
<g>
</g>
<g>
</g>
<g>
</g>
<g>
</g>
<g>
</g>
<g>
</g>
<g>
</g>
</svg>
