<?xml version="1.0" encoding="iso-8859-1"?>
<!-- Generator: Adobe Illustrator 19.0.0, SVG Export Plug-In . SVG Version: 6.00 Build 0)  -->
<svg version="1.1" id="Capa_1" xmlns="http://www.w3.org/2000/svg" xmlns:xlink="http://www.w3.org/1999/xlink" x="0px" y="0px"
	 viewBox="0 0 512 512" style="enable-background:new 0 0 512 512;" xml:space="preserve">
<linearGradient id="SVGID_1_" gradientUnits="userSpaceOnUse" x1="0" y1="258" x2="512" y2="258" gradientTransform="matrix(1 0 0 -1 0 514)">
	<stop  offset="0" style="stop-color:#00F2FE"/>
	<stop  offset="0.021" style="stop-color:#03EFFE"/>
	<stop  offset="0.293" style="stop-color:#24D2FE"/>
	<stop  offset="0.554" style="stop-color:#3CBDFE"/>
	<stop  offset="0.796" style="stop-color:#4AB0FE"/>
	<stop  offset="1" style="stop-color:#4FACFE"/>
</linearGradient>
<path style="fill:url(#SVGID_1_);" d="M512,244c0,25.976-8.972,51.393-25.262,71.57c-16.04,19.867-38.516,33.921-63.289,39.574
	c-10.769,2.457-21.49-4.28-23.948-15.049c-2.457-10.769,4.28-21.491,15.05-23.948C448.376,308.428,472,278.76,472,244
	c0-27.458-15.088-52.523-39.376-65.414C426.087,175.117,422,168.321,422,160.92v-24.598C422,83.21,378.79,40,325.678,40
	c-47.067,0-87.985,35.007-95.178,81.431c-1.188,7.666-6.701,13.953-14.146,16.132s-15.479-0.144-20.612-5.959
	C186.427,121.052,173.035,115,159,115c-27.019,0-49,21.981-49,49v36c0,11.046-8.954,20-20,20h-0.154C62.36,220,40,241.981,40,269
	c0,27.477,21.084,49,48,49c11.046,0,20,8.954,20,20s-8.954,20-20,20c-23.866,0-46.119-9.313-62.66-26.225
	C8.999,315.067,0,292.774,0,269c0-42.32,29.978-77.837,70-86.812V164c0-49.075,39.925-89,89-89c14.217,0,28.067,3.414,40.47,9.751
	c8.067-19.71,20.729-37.445,37.093-51.591C261.297,11.776,292.945,0,325.678,0C400.846,0,462,61.154,462,136.322v13.324
	C493.119,170.737,512,205.868,512,244z M289.072,319c3.237,1.959,6.81,2.893,10.337,2.893c6.767,0,13.369-3.436,17.129-9.647
	c5.719-9.45,2.695-21.747-6.755-27.466L295.278,276l14.505-8.779c9.45-5.72,12.474-18.017,6.755-27.466
	c-5.719-9.45-18.017-12.472-27.466-6.754l-13.195,7.986V226c0-11.046-8.954-20-20-20s-20,8.954-20,20v14.048L224.232,233
	c-9.447-5.718-21.746-2.695-27.466,6.754c-5.719,9.45-2.695,21.747,6.755,27.466l14.506,8.78l-14.505,8.779
	c-9.45,5.72-12.474,18.017-6.755,27.466c3.76,6.212,10.361,9.647,17.129,9.647c3.527,0,7.1-0.934,10.337-2.893l11.645-7.048V326
	c0,11.046,8.954,20,20,20c11.046,0,20-8.954,20-20v-14.986L289.072,319z M405.661,405.754c-5.719-9.45-18.017-12.472-27.466-6.754
	L365,406.986V392c0-11.046-8.954-20-20-20s-20,8.954-20,20v14.048L313.355,399c-9.447-5.718-21.746-2.695-27.466,6.754
	c-5.719,9.45-2.695,21.747,6.755,27.466L307.15,442l-14.505,8.779c-9.45,5.72-12.474,18.017-6.755,27.466
	c3.76,6.212,10.361,9.647,17.129,9.647c3.527,0,7.1-0.934,10.337-2.893L325,477.952V492c0,11.046,8.954,20,20,20s20-8.954,20-20
	v-14.986L378.195,485c3.237,1.959,6.81,2.893,10.337,2.893c6.767,0,13.369-3.436,17.129-9.647c5.719-9.45,2.695-21.747-6.755-27.466
	L384.401,442l14.505-8.779C408.356,427.501,411.38,415.204,405.661,405.754z M230.661,405.754
	c-5.719-9.45-18.018-12.472-27.466-6.754L190,406.986V392c0-11.046-8.954-20-20-20s-20,8.954-20,20v14.048L138.355,399
	c-9.447-5.718-21.746-2.695-27.466,6.754c-5.719,9.45-2.695,21.747,6.755,27.466L132.15,442l-14.505,8.779
	c-9.45,5.72-12.474,18.017-6.755,27.466c3.76,6.212,10.361,9.647,17.129,9.647c3.527,0,7.1-0.934,10.337-2.893L150,477.952V492
	c0,11.046,8.954,20,20,20s20-8.954,20-20v-14.986L203.195,485c3.237,1.959,6.81,2.893,10.337,2.893
	c6.767,0,13.369-3.436,17.129-9.647c5.719-9.45,2.695-21.747-6.755-27.466L209.401,442l14.505-8.779
	C233.356,427.501,236.38,415.204,230.661,405.754z"/>
<g>
</g>
<g>
</g>
<g>
</g>
<g>
</g>
<g>
</g>
<g>
</g>
<g>
</g>
<g>
</g>
<g>
</g>
<g>
</g>
<g>
</g>
<g>
</g>
<g>
</g>
<g>
</g>
<g>
</g>
</svg>
