<?xml version="1.0" encoding="UTF-8"?>
<svg xmlns="http://www.w3.org/2000/svg" xmlns:xlink="http://www.w3.org/1999/xlink" width="50pt" height="50pt" viewBox="0 0 50 50" version="1.1">
<g id="surface1">
<path style=" stroke:none;fill-rule:nonzero;fill:#FFFFFF;fill-opacity:1;" d="M 39.90625 5.96875 C 39.863281 5.976563 39.820313 5.988281 39.78125 6 C 39.316406 6.105469 38.988281 6.523438 39 7 L 39 13.6875 C 38.796875 13.433594 38.59375 13.179688 38.375 12.9375 C 35.082031 9.285156 30.300781 7 25 7 C 15.070313 7 7 15.070313 7 25 C 7 34.929688 15.070313 43 25 43 C 34.929688 43 43 34.929688 43 25 C 43.003906 24.640625 42.816406 24.304688 42.503906 24.121094 C 42.191406 23.941406 41.808594 23.941406 41.496094 24.121094 C 41.183594 24.304688 40.996094 24.640625 41 25 C 41 33.851563 33.851563 41 25 41 C 16.148438 41 9 33.851563 9 25 C 9 16.148438 16.148438 9 25 9 C 29.722656 9 33.945313 11.035156 36.875 14.28125 C 37.082031 14.511719 37.273438 14.753906 37.46875 15 L 31 15 C 30.640625 14.996094 30.304688 15.183594 30.121094 15.496094 C 29.941406 15.808594 29.941406 16.191406 30.121094 16.503906 C 30.304688 16.816406 30.640625 17.003906 31 17 L 41 17 L 41 7 C 41.011719 6.710938 40.894531 6.433594 40.6875 6.238281 C 40.476563 6.039063 40.191406 5.941406 39.90625 5.96875 Z "/>
</g>
</svg>
