<?xml version="1.0" encoding="iso-8859-1"?>
<!-- Generator: Adobe Illustrator 19.0.0, SVG Export Plug-In . SVG Version: 6.00 Build 0)  -->
<svg version="1.1" id="Capa_1" xmlns="http://www.w3.org/2000/svg" xmlns:xlink="http://www.w3.org/1999/xlink" x="0px" y="0px"
	 viewBox="0 0 512 512" style="enable-background:new 0 0 512 512;" xml:space="preserve">
<linearGradient id="SVGID_1_" gradientUnits="userSpaceOnUse" x1="0" y1="258" x2="512" y2="258" gradientTransform="matrix(1 0 0 -1 0 514)">
	<stop  offset="0" style="stop-color:#00F2FE"/>
	<stop  offset="0.021" style="stop-color:#03EFFE"/>
	<stop  offset="0.293" style="stop-color:#24D2FE"/>
	<stop  offset="0.554" style="stop-color:#3CBDFE"/>
	<stop  offset="0.796" style="stop-color:#4AB0FE"/>
	<stop  offset="1" style="stop-color:#4FACFE"/>
</linearGradient>
<path style="fill:url(#SVGID_1_);" d="M77.024,357.134c-1.052,0-2.116-0.083-3.188-0.255C31.053,350.026,0,313.068,0,269
	c0-42.32,29.978-77.837,70-86.812V164c0-49.075,39.925-89,89-89c14.217,0,28.068,3.414,40.47,9.751
	c8.067-19.71,20.729-37.444,37.093-51.591C261.297,11.776,292.945,0,325.678,0C400.846,0,462,61.154,462,136.322v13.324
	c31.119,21.09,50,56.221,50,94.354c0,45.369-26.263,86.305-66.907,104.29c-10.099,4.47-21.912-0.096-26.382-10.197
	c-4.47-10.101,0.096-21.913,10.197-26.382C455.085,300.127,472,273.549,472,244c0-27.458-15.088-52.523-39.376-65.414
	C426.087,175.117,422,168.321,422,160.92v-24.598C422,83.21,378.79,40,325.678,40c-47.068,0-87.985,35.007-95.178,81.431
	c-1.188,7.666-6.701,13.953-14.146,16.132c-7.445,2.177-15.479-0.144-20.612-5.959C186.427,121.052,173.036,115,159,115
	c-27.019,0-49,21.981-49,49v36c0,11.045-8.954,20-20,20h-0.154C62.361,220,40,241.981,40,269c0,24.307,16.891,44.655,40.163,48.382
	c10.907,1.747,18.332,12.005,16.585,22.912C95.173,350.129,86.676,357.134,77.024,357.134z M334,430c0,11.046,8.954,20,20,20
	s20-8.954,20-20s-8.954-20-20-20S334,418.954,334,430z M314,492c0,11.046,8.954,20,20,20s20-8.954,20-20s-8.954-20-20-20
	S314,480.954,314,492z M404,430c0,11.046,8.954,20,20,20s20-8.954,20-20s-8.954-20-20-20S404,418.954,404,430z M384,492
	c0,11.046,8.954,20,20,20s20-8.954,20-20s-8.954-20-20-20S384,480.954,384,492z M54,430c0,11.046,8.954,20,20,20s20-8.954,20-20
	s-8.954-20-20-20S54,418.954,54,430z M34,492c0,11.046,8.954,20,20,20s20-8.954,20-20s-8.954-20-20-20S34,480.954,34,492z M124,430
	c0,11.046,8.954,20,20,20s20-8.954,20-20s-8.954-20-20-20S124,418.954,124,430z M104,492c0,11.046,8.954,20,20,20s20-8.954,20-20
	s-8.954-20-20-20S104,480.954,104,492z M209.077,512c9.07-0.036,17.849-3.644,24.086-9.9c0.265-0.266,0.522-0.539,0.772-0.819
	l80.126-89.979c7.346-8.249,6.614-20.891-1.635-28.237c-8.25-7.347-20.892-6.613-28.237,1.635l-47.057,52.843l22.129-60.691
	c2.236-6.132,1.339-12.97-2.404-18.318c-3.742-5.348-9.859-8.533-16.386-8.533h-59.428c-5.165,0-7.75-3.45-8.622-4.933
	s-2.628-5.42-0.115-9.932L234.753,223h57.672l-35.646,58.607c-3.756,6.175-3.888,13.895-0.346,20.195
	C259.975,308.101,266.64,312,273.867,312h68.509c1.121,0,1.376,0.353,1.529,0.684c0.115,0.25,0.258,0.562-0.428,1.361
	c-0.049,0.058-0.099,0.116-0.147,0.174l-6.65,7.924c-7.101,8.46-5.999,21.076,2.462,28.177c8.46,7.101,21.076,6,28.177-2.462
	l6.587-7.849c10.658-12.482,13.092-29.338,6.348-44.021C373.458,281.192,358.943,272,342.376,272H309.44l35.646-58.607
	c3.756-6.175,3.888-13.895,0.346-20.194c-3.542-6.3-10.207-10.199-17.434-10.199h-105c-7.256,0-13.943,3.93-17.473,10.27
	L137.36,315.673c-8.716,15.651-8.5,34.216,0.577,49.661S163.128,390,181.043,390h30.847l-30.48,83.596
	c-3.645,8.69-2.985,17.887,1.854,25.369c5.284,8.169,14.872,13.035,25.67,13.035C208.981,512,209.029,512,209.077,512z"/>
<g>
</g>
<g>
</g>
<g>
</g>
<g>
</g>
<g>
</g>
<g>
</g>
<g>
</g>
<g>
</g>
<g>
</g>
<g>
</g>
<g>
</g>
<g>
</g>
<g>
</g>
<g>
</g>
<g>
</g>
</svg>
