<?xml version="1.0" encoding="iso-8859-1"?>
<!-- Generator: Adobe Illustrator 19.0.0, SVG Export Plug-In . SVG Version: 6.00 Build 0)  -->
<svg version="1.1" id="Capa_1" xmlns="http://www.w3.org/2000/svg" xmlns:xlink="http://www.w3.org/1999/xlink" x="0px" y="0px"
	 viewBox="0 0 512 512" style="enable-background:new 0 0 512 512;" xml:space="preserve">
<linearGradient id="SVGID_1_" gradientUnits="userSpaceOnUse" x1="0" y1="258" x2="512" y2="258" gradientTransform="matrix(1 0 0 -1 0 514)">
	<stop  offset="0" style="stop-color:#00F2FE"/>
	<stop  offset="0.021" style="stop-color:#03EFFE"/>
	<stop  offset="0.293" style="stop-color:#24D2FE"/>
	<stop  offset="0.554" style="stop-color:#3CBDFE"/>
	<stop  offset="0.796" style="stop-color:#4AB0FE"/>
	<stop  offset="1" style="stop-color:#4FACFE"/>
</linearGradient>
<path style="fill:url(#SVGID_1_);" d="M250,40h-93c-11.046,0-20-8.954-20-20s8.954-20,20-20h93c11.046,0,20,8.954,20,20
	S261.046,40,250,40z M456,59c0-32.533-26.468-59-59-59h-67c-11.046,0-20,8.954-20,20s8.954,20,20,20h67c10.477,0,19,8.523,19,19
	s-8.523,19-19,19h-31c-11.046,0-20,8.954-20,20s8.954,20,20,20h31C429.532,118,456,91.533,456,59z M470,176c0-11.046-8.954-20-20-20
	H116c-10.477,0-19-8.523-19-19s8.523-19,19-19h169c11.046,0,20-8.954,20-20s-8.954-20-20-20H116c-32.532,0-59,26.467-59,59
	s26.468,59,59,59h334C461.046,196,470,187.046,470,176z M335,255c0-11.046-8.954-20-20-20H20c-11.046,0-20,8.954-20,20
	c0,11.046,8.954,20,20,20h295C326.046,275,335,266.046,335,255z M512,294.5c0-32.809-26.691-59.5-59.5-59.5H395
	c-11.046,0-20,8.954-20,20c0,11.046,8.954,20,20,20h57.5c10.752,0,19.5,8.748,19.5,19.5s-8.748,19.5-19.5,19.5H333
	c-11.046,0-20,8.954-20,20s8.954,20,20,20h119.5C485.309,354,512,327.309,512,294.5z M185,413c0-11.046-8.954-20-20-20H92.5
	c-10.752,0-19.5-8.748-19.5-19.5S81.748,354,92.5,354H253c11.046,0,20-8.954,20-20s-8.954-20-20-20H92.5
	C59.691,314,33,340.691,33,373.5S59.691,433,92.5,433H165C176.046,433,185,424.046,185,413z M493,413c0-11.046-8.954-20-20-20H245
	c-11.046,0-20,8.954-20,20s8.954,20,20,20h228C484.046,433,493,424.046,493,413z M409,492c0-11.046-8.954-20-20-20h-89
	c-11.046,0-20,8.954-20,20s8.954,20,20,20h89C400.046,512,409,503.046,409,492z M239.995,492c0-11.046-8.954-20-20-20H139
	c-11.046,0-20,8.954-20,20s8.954,20,20,20h80.995C231.041,512,239.995,503.046,239.995,492z"/>
<g>
</g>
<g>
</g>
<g>
</g>
<g>
</g>
<g>
</g>
<g>
</g>
<g>
</g>
<g>
</g>
<g>
</g>
<g>
</g>
<g>
</g>
<g>
</g>
<g>
</g>
<g>
</g>
<g>
</g>
</svg>
