<?xml version="1.0" encoding="iso-8859-1"?>
<!-- Generator: Adobe Illustrator 19.0.0, SVG Export Plug-In . SVG Version: 6.00 Build 0)  -->
<svg version="1.1" id="Layer_1" xmlns="http://www.w3.org/2000/svg" xmlns:xlink="http://www.w3.org/1999/xlink" x="0px" y="0px"
	 viewBox="0 0 512 512" style="enable-background:new 0 0 512 512;" xml:space="preserve">
<circle style="fill:#FFCA28;" cx="256" cy="256" r="198.247"/>
<g>
	<path style="fill:#FF9800;" d="M97.83,256c0-102.725,78.132-187.199,178.209-197.245c-6.59-0.661-13.275-1.003-20.039-1.003
		C146.51,57.752,57.752,146.511,57.752,256c0,109.49,88.758,198.248,198.248,198.248c6.764,0,13.449-0.342,20.039-1.003
		C175.961,443.2,97.83,358.725,97.83,256z"/>
	<path style="fill:#FF9800;" d="M256,41.08c-4.15,0-7.515-3.365-7.515-7.515V7.515C248.485,3.365,251.85,0,256,0
		c4.15,0,7.515,3.365,7.515,7.515v26.051C263.515,37.716,260.15,41.08,256,41.08z"/>
	<path style="fill:#FF9800;" d="M341.239,58.063c-0.96,0-1.935-0.185-2.877-0.576c-3.833-1.59-5.652-5.988-4.061-9.821l9.983-24.062
		c1.59-3.833,5.988-5.652,9.821-4.061c3.833,1.59,5.652,5.988,4.061,9.821l-9.983,24.062
		C346.983,56.319,344.186,58.063,341.239,58.063z"/>
	<path style="fill:#FF9800;" d="M413.469,106.414c-1.926,0-3.852-0.735-5.32-2.207c-2.932-2.938-2.926-7.696,0.012-10.628
		l18.442-18.399c2.938-2.931,7.696-2.926,10.628,0.012c2.932,2.938,2.926,7.696-0.012,10.628l-18.442,18.399
		C417.309,105.681,415.388,106.414,413.469,106.414z"/>
	<path style="fill:#FF9800;" d="M461.654,178.754c-2.954,0-5.755-1.752-6.951-4.653c-1.581-3.837,0.247-8.23,4.084-9.811
		l24.085-9.927c3.836-1.582,8.229,0.247,9.811,4.084c1.581,3.837-0.247,8.23-4.084,9.811l-24.085,9.927
		C463.578,178.572,462.609,178.754,461.654,178.754z"/>
	<path style="fill:#FF9800;" d="M504.485,263.804c-0.003,0-0.006,0-0.009,0l-26.051-0.03c-4.15-0.005-7.511-3.374-7.506-7.524
		c0.005-4.15,3.344-7.513,7.524-7.506l26.051,0.03c4.15,0.005,7.511,3.374,7.506,7.524
		C511.995,260.446,508.631,263.804,504.485,263.804z"/>
	<path style="fill:#FF9800;" d="M485.289,359.277c-0.965,0-1.947-0.187-2.893-0.582l-24.039-10.04
		c-3.829-1.599-5.638-6.001-4.038-9.83c1.599-3.829,6.001-5.638,9.83-4.038l24.039,10.04c3.829,1.599,5.638,6.001,4.038,9.83
		C491.022,357.539,488.23,359.277,485.289,359.277z"/>
	<path style="fill:#FF9800;" d="M431.09,439.834c-1.932,0-3.864-0.74-5.332-2.219l-18.357-18.485
		c-2.925-2.945-2.908-7.703,0.037-10.628c2.945-2.925,7.703-2.908,10.627,0.037l18.357,18.485c2.925,2.945,2.908,7.703-0.037,10.628
		C434.919,439.107,433.005,439.834,431.09,439.834z"/>
	<path style="fill:#FF9800;" d="M431.295,439.63c-1.929,0-3.858-0.738-5.326-2.213l-18.378-18.464
		c-2.928-2.942-2.917-7.7,0.025-10.628c2.941-2.928,7.699-2.917,10.628,0.025l18.378,18.464c2.928,2.942,2.917,7.7-0.025,10.628
		C435.131,438.9,433.213,439.63,431.295,439.63z"/>
	<path style="fill:#FF9800;" d="M350.156,493.474c-2.96,0-5.766-1.76-6.957-4.669l-9.871-24.108
		c-1.573-3.841,0.267-8.229,4.107-9.802c3.841-1.572,8.229,0.267,9.801,4.107l9.871,24.108c1.573,3.841-0.267,8.229-4.107,9.802
		C352.07,493.292,351.105,493.474,350.156,493.474z"/>
	<path style="fill:#FF9800;" d="M350.424,493.364c-2.957,0-5.761-1.756-6.954-4.661l-9.899-24.097
		c-1.577-3.839,0.257-8.229,4.096-9.806c3.839-1.577,8.229,0.257,9.806,4.095l9.899,24.097c1.577,3.839-0.257,8.229-4.096,9.806
		C352.343,493.181,351.375,493.364,350.424,493.364z"/>
	<path style="fill:#FF9800;" d="M170.762,58.063c-2.948,0-5.744-1.745-6.944-4.637l-9.984-24.062
		c-1.59-3.833,0.227-8.23,4.061-9.821c3.833-1.59,8.23,0.227,9.821,4.061l9.984,24.062c1.59,3.833-0.227,8.23-4.061,9.821
		C172.696,57.879,171.72,58.063,170.762,58.063z"/>
	<path style="fill:#FF9800;" d="M50.346,178.754c-0.954,0-1.924-0.182-2.861-0.569l-24.085-9.927
		c-3.837-1.581-5.666-5.974-4.084-9.811c1.581-3.837,5.974-5.666,9.811-4.084l24.085,9.927c3.837,1.581,5.666,5.974,4.084,9.811
		C56.102,177.002,53.3,178.754,50.346,178.754z"/>
	<path style="fill:#FF9800;" d="M26.711,359.277c-2.941,0-5.733-1.737-6.938-4.621c-1.599-3.829,0.208-8.231,4.038-9.83
		l24.039-10.04c3.829-1.599,8.231,0.208,9.83,4.038c1.599,3.829-0.208,8.231-4.038,9.83l-24.039,10.04
		C28.658,359.089,27.676,359.277,26.711,359.277z"/>
	<path style="fill:#FF9800;" d="M161.576,493.364c-0.951,0-1.918-0.181-2.853-0.566c-3.839-1.577-5.673-5.968-4.096-9.806
		l9.899-24.097c1.577-3.838,5.967-5.673,9.806-4.095c3.84,1.577,5.673,5.968,4.096,9.806l-9.899,24.097
		C167.337,491.607,164.532,493.364,161.576,493.364z"/>
	<path style="fill:#FF9800;" d="M256,512c-4.15,0-7.515-3.365-7.515-7.515v-26.051c0-4.15,3.365-7.515,7.515-7.515
		c4.15,0,7.515,3.365,7.515,7.515v26.051C263.515,508.635,260.15,512,256,512z"/>
	<path style="fill:#FF9800;" d="M80.295,439.22c-1.923,0-3.847-0.733-5.313-2.201c-2.935-2.935-2.935-7.693,0-10.628l18.421-18.421
		c2.935-2.935,7.693-2.935,10.627,0c2.935,2.935,2.935,7.693,0,10.628l-18.421,18.421C84.141,438.486,82.218,439.22,80.295,439.22z"
		/>
	<path style="fill:#FF9800;" d="M33.566,263.515H7.515C3.365,263.515,0,260.15,0,256c0-4.15,3.365-7.515,7.515-7.515h26.051
		c4.15,0,7.515,3.365,7.515,7.515C41.08,260.15,37.716,263.515,33.566,263.515z"/>
	<path style="fill:#FF9800;" d="M98.715,106.229c-1.924,0-3.847-0.733-5.313-2.201L74.98,85.608c-2.935-2.935-2.935-7.693,0-10.628
		c2.935-2.935,7.693-2.935,10.627,0l18.421,18.421c2.935,2.935,2.935,7.693,0,10.628
		C102.562,105.496,100.639,106.229,98.715,106.229z"/>
</g>
<path style="fill:#EF495B;" d="M458.062,170.5H53.938c-8.485,0-15.363,6.878-15.363,15.363l0,0c0,8.485,6.878,15.363,15.363,15.363
	h44.776v24.599c0,33.45,27.117,60.567,60.567,60.567l0,0c33.45,0,60.567-27.117,60.567-60.567v-24.599h72.298v24.599
	c0,33.45,27.117,60.567,60.567,60.567l0,0c33.45,0,60.567-27.117,60.567-60.567v-24.599h44.776c8.485,0,15.363-6.878,15.363-15.363
	l0,0C473.425,177.378,466.546,170.5,458.062,170.5z"/>
<g>
	<path style="fill:#8FE5F7;" d="M159.283,261.343c-19.585,0-35.518-15.933-35.518-35.518v-24.598h71.038v24.598
		C194.801,245.41,178.868,261.343,159.283,261.343z"/>
	<path style="fill:#8FE5F7;" d="M352.717,261.343c19.585,0,35.518-15.933,35.518-35.518v-24.598h-71.038v24.598
		C317.199,245.41,333.133,261.343,352.717,261.343z"/>
</g>
<path style="fill:#212121;" d="M300.494,316.12c5.405-7.27,5.67-17.496-0.043-25.105c-6.961-9.267-20.097-11.147-29.362-4.188
	c-0.881,0.607-6.028,2.878-15.094,2.878c-9.067,0-14.212-2.268-15.06-2.853c-9.265-6.957-22.419-5.09-29.378,4.176
	c-5.753,7.66-5.456,17.967,0.049,25.245l0,0h88.782v-0.003l0,0L300.494,316.12z"/>
<path style="fill:#EF5350;" d="M256,308.879c-17.484,0-33.243,2.844-44.396,7.394c1.154,1.526,2.522,2.928,4.128,4.134
	c9.53,7.157,24.204,11.262,40.262,11.262s30.733-4.105,40.263-11.263c1.606-1.206,2.975-2.609,4.13-4.136
	C289.236,311.721,273.48,308.879,256,308.879z"/>
<g>
</g>
<g>
</g>
<g>
</g>
<g>
</g>
<g>
</g>
<g>
</g>
<g>
</g>
<g>
</g>
<g>
</g>
<g>
</g>
<g>
</g>
<g>
</g>
<g>
</g>
<g>
</g>
<g>
</g>
</svg>
