<?xml version="1.0" encoding="iso-8859-1"?>
<!-- Generator: Adobe Illustrator 19.0.0, SVG Export Plug-In . SVG Version: 6.00 Build 0)  -->
<svg version="1.1" id="Capa_1" xmlns="http://www.w3.org/2000/svg" xmlns:xlink="http://www.w3.org/1999/xlink" x="0px" y="0px"
	 viewBox="0 0 512 512" style="enable-background:new 0 0 512 512;" xml:space="preserve">
<linearGradient id="SVGID_1_" gradientUnits="userSpaceOnUse" x1="0.5957" y1="257.2285" x2="512.5957" y2="257.2285" gradientTransform="matrix(0.9981 0 0 -0.9981 -0.0955 512.7271)">
	<stop  offset="0" style="stop-color:#00F2FE"/>
	<stop  offset="0.021" style="stop-color:#03EFFE"/>
	<stop  offset="0.293" style="stop-color:#24D2FE"/>
	<stop  offset="0.554" style="stop-color:#3CBDFE"/>
	<stop  offset="0.796" style="stop-color:#4AB0FE"/>
	<stop  offset="1" style="stop-color:#4FACFE"/>
</linearGradient>
<path style="fill:url(#SVGID_1_);" d="M77.349,311.392H20.46c-11.024,0-19.961-8.937-19.961-19.961
	c0-11.024,8.937-19.961,19.961-19.961h56.889c11.024,0,19.961,8.937,19.961,19.961C97.31,302.455,88.373,311.392,77.349,311.392z
	 M362.155,230.453c0-44.577-36.265-80.842-80.842-80.842c-21.756,0-42.165,8.517-57.467,23.983
	c-7.754,7.837-7.687,20.475,0.15,28.229c7.837,7.754,20.475,7.688,28.229-0.15c7.746-7.829,18.077-12.14,29.089-12.14
	c22.563,0,40.92,18.357,40.92,40.92c0,22.617-18.357,41.017-40.92,41.017h-104.16c-11.024,0-19.961,8.937-19.961,19.961
	c0,11.024,8.937,19.961,19.961,19.961h104.159C325.889,311.392,362.155,275.083,362.155,230.453z M259.992,370.286
	c0.005-11.024-8.928-19.965-19.952-19.97l-219.571-0.097c-0.003,0-0.006,0-0.009,0c-11.019,0-19.956,8.932-19.961,19.952
	c-0.005,11.024,8.928,19.965,19.952,19.97l219.571,0.097c0.003,0,0.006,0,0.009,0C251.051,390.238,259.987,381.306,259.992,370.286z
	 M511.501,431.158c0-44.63-36.265-80.939-80.842-80.939h-90.823c-11.024,0-19.961,8.937-19.961,19.961
	c0,11.024,8.937,19.961,19.961,19.961h90.823c22.563,0,40.92,18.4,40.92,41.017c0,22.563-18.357,40.92-40.92,40.92
	c-10.931,0-21.207-4.257-28.934-11.985c-7.796-7.797-20.434-7.797-28.229-0.001c-7.796,7.796-7.796,20.434-0.001,28.229
	C388.764,503.59,409.065,512,430.659,512C475.236,512,511.501,475.735,511.501,431.158z M280.951,490.963
	c0-33.57-27.311-60.881-60.881-60.881H20.46c-11.024,0-19.961,8.937-19.961,19.961c0,11.024,8.937,19.961,19.961,19.961h199.61
	c11.557,0,20.959,9.402,20.959,20.959c0,11.024,8.937,19.961,19.961,19.961S280.951,501.988,280.951,490.963z M495.557,301.639
	c10.431-17.529,15.944-37.625,15.944-58.114c0-38.058-18.844-73.12-49.903-94.17v-13.298C461.598,61.035,400.564,0,325.542,0
	c-32.668,0-64.255,11.753-88.941,33.095c-16.331,14.118-28.968,31.819-37.021,51.49c-12.378-6.325-26.202-9.732-40.391-9.732
	c-48.979,0-88.827,39.847-88.827,88.827v18.133c-11.167,2.454-21.824,6.949-31.127,13.228c-9.138,6.167-11.545,18.575-5.378,27.712
	c6.168,9.138,18.574,11.546,27.712,5.378c8.179-5.52,18.337-8.56,28.601-8.56h0.154c11.024,0,19.961-8.937,19.961-19.961v-35.93
	c0-26.966,21.938-48.904,48.904-48.904c14.009,0,27.374,6.04,36.669,16.572c5.123,5.805,13.141,8.122,20.572,5.947
	c7.43-2.175,12.933-8.45,14.118-16.101c7.179-46.333,48.017-81.272,94.993-81.272c53.008,0,96.134,43.126,96.134,96.134v24.55
	c0,7.387,4.079,14.169,10.603,17.632c24.241,12.866,39.299,37.882,39.299,65.286c0,13.307-3.572,26.344-10.329,37.698
	c-5.637,9.474-2.528,21.725,6.945,27.362c3.201,1.904,6.716,2.811,10.188,2.811C485.19,311.394,491.824,307.912,495.557,301.639z"/>
<g>
</g>
<g>
</g>
<g>
</g>
<g>
</g>
<g>
</g>
<g>
</g>
<g>
</g>
<g>
</g>
<g>
</g>
<g>
</g>
<g>
</g>
<g>
</g>
<g>
</g>
<g>
</g>
<g>
</g>
</svg>
